<svg width="36" height="36" viewBox="0 0 36 36" fill="none" xmlns="http://www.w3.org/2000/svg">
<path d="M31.1427 10.4311L35.845 9.27557L34.6895 13.9779L31.1427 10.4311ZM31.6821 12.7321L30.2235 11.2736L9.12235 32.3747L10.5827 33.8351L31.6821 12.7321ZM32.3884 13.4366L11.2863 34.5396L12.7458 36L33.8479 14.897L32.3884 13.4366ZM30.8261 7.26404L7.41932 30.6726L0.155273 23.4086L23.5638 0L30.8261 7.26404ZM7.41932 29.0607L8.55407 27.9277L7.44006 26.8128L8.24648 26.0073L9.36049 27.1222L10.6693 25.8134L9.55532 24.6985L10.3608 23.893L11.4757 25.0061L12.7819 23.699L11.6697 22.5841L12.4752 21.7786L13.5883 22.8917L14.8971 21.5829L13.7822 20.4698L14.5877 19.6624L15.7027 20.7773L17.0115 19.4685L15.8966 18.3536L16.7021 17.5481L17.817 18.663L19.1259 17.3541L18.0109 16.241L18.8156 15.4355L19.9323 16.5477L21.2393 15.2416L20.1244 14.1249L20.9317 13.3185L22.0448 14.4334L23.3537 13.1263L22.2406 12.0105L23.0461 11.2041L24.161 12.319L25.468 11.0102L24.3549 9.89617L25.1622 9.09065L26.2753 10.2056L27.5824 8.89672L26.4711 7.78361L27.2766 6.9781L28.3897 8.0903L29.2232 7.25863L23.5693 1.60651L1.76991 23.4059L7.41932 29.0607Z" fill="currentColor"/>
</svg>
