<svg width="36" height="36" viewBox="0 0 36 36" xmlns="http://www.w3.org/2000/svg">
<path d="M34.3732 13.2695L20.5789 1.03457C19.1395 -0.344878 16.8605 -0.344878 15.4211 1.03457L10.803 5.2328V3.61348H11.4027C11.7625 3.61348 12.0024 3.3736 12.0024 3.01375V0.61477C12.0024 0.25492 11.7625 0.015043 11.4027 0.015043H4.20575C3.8459 0.015043 3.60602 0.25492 3.60602 0.61477V3.01375C3.60602 3.3736 3.8459 3.61348 4.20575 3.61348H4.80548V10.5106L1.62685 13.2695C1.20705 13.6893 1.08707 14.2891 1.267 14.7688C1.44692 15.2486 1.9867 15.6085 2.52647 15.6085H4.80555V32.4015H4.20575C3.8459 32.4015 3.60602 32.6414 3.60602 33.0012V35.4002C3.60602 35.7601 3.8459 35.9999 4.20575 35.9999H31.7942C32.1541 35.9999 32.394 35.7601 32.394 35.3402V32.9412C32.394 32.5814 32.1541 32.3415 31.7942 32.3415H31.1945V15.5486H33.4736C34.0733 15.5486 34.5532 15.2487 34.7331 14.7089C34.913 14.2291 34.793 13.6293 34.3732 13.2695ZM33.5935 14.349C33.5335 14.409 33.4735 14.409 33.4735 14.409H30.5947C30.2349 14.409 29.995 14.6489 29.995 15.0087V33.0012C29.995 33.3611 30.2349 33.601 30.5947 33.601H31.1945V34.8005H4.80548V33.601H5.4052C5.76505 33.601 6.00493 33.3611 6.00493 33.0013V15.0088C6.00493 14.6489 5.76505 14.4091 5.4052 14.4091H2.5264C2.46645 14.4091 2.46645 14.4091 2.40643 14.3491C2.40643 14.2892 2.40643 14.2291 2.46638 14.1692L5.82501 11.2904C5.94498 11.1704 6.00493 10.9905 6.00493 10.8106V3.01375C6.00493 2.6539 5.76505 2.41402 5.4052 2.41402H4.80548V1.2145H10.803V2.41402H10.2032C9.84338 2.41402 9.60351 2.6539 9.60351 3.01375V6.61225C9.60351 6.85213 9.72348 7.09208 9.96336 7.272C10.2032 7.33195 10.4432 7.33195 10.6231 7.15203L16.2607 1.99415C17.2203 1.03457 18.7197 1.03457 19.7393 1.99415L33.5335 14.2291C33.5935 14.2291 33.6535 14.2891 33.5935 14.349Z" fill="currentColor"/>
<path d="M22.7978 11.4103C19.7991 11.4103 17.4001 13.8093 17.4001 16.808C17.4001 17.1623 17.4347 17.5077 17.4986 17.8422L8.58375 26.524C8.40383 26.644 8.34388 26.8838 8.40383 27.0638L9.00356 30.0625C9.06351 30.3624 9.30345 30.5424 9.60328 30.5424H12.6021C12.9619 30.5424 13.2018 30.3025 13.2618 30.0625V28.2633H15.6608C16.0206 28.2633 16.2605 28.0234 16.2605 27.6636V25.8642H18.0598C18.4196 25.8642 18.6595 25.6244 18.6595 25.2645V23.4653H20.4587C20.6387 23.4653 20.8186 23.3453 20.9386 23.2254C20.9386 23.2254 21.4367 22.6367 21.8821 22.1282C22.1796 22.1783 22.4852 22.2058 22.7978 22.2058C25.7966 22.2058 28.1956 19.8068 28.1956 16.808C28.1956 13.8093 25.7966 11.4103 22.7978 11.4103ZM20.099 22.1458H17.9998C17.64 22.1458 17.4001 22.3856 17.4001 22.7455V24.5447H15.6008C15.241 24.5447 15.0011 24.7846 15.0011 25.1445V26.9437H12.6021C12.2423 26.9437 12.0024 27.1836 12.0024 27.5434V29.3427H10.0832L9.66338 27.1836L17.88 19.087C18.004 19.3486 18.151 19.597 18.3163 19.8319C18.3178 19.8342 18.3195 19.8365 18.3211 19.8389C18.3387 19.8637 18.356 19.8888 18.374 19.9134C18.9092 20.6776 19.6374 21.2945 20.4911 21.6948C20.3267 21.865 20.2125 22.0323 20.099 22.1458ZM22.7978 21.0063C22.4295 21.0063 22.0731 20.9599 21.734 20.8731C20.2566 20.4434 19.1358 19.3126 18.7795 17.8875C18.7626 17.8366 18.7353 17.7861 18.7018 17.7379C18.6356 17.4391 18.5996 17.1282 18.5996 16.808C18.5996 14.4689 20.4588 12.6097 22.7978 12.6097C25.1369 12.6097 26.9961 14.4689 26.9961 16.808C26.9961 19.1471 25.1369 21.0063 22.7978 21.0063Z" fill="currentColor"/>
<path d="M23.398 13.8092C22.0786 13.8092 20.999 14.8888 20.999 16.2082C20.999 17.5277 22.0786 18.6072 23.398 18.6072C24.7174 18.6072 25.797 17.5277 25.797 16.2082C25.797 14.8888 24.7174 13.8092 23.398 13.8092ZM23.398 17.4078C22.7383 17.4078 22.1985 16.868 22.1985 16.2082C22.1985 15.5485 22.7383 15.0087 23.398 15.0087C24.0578 15.0087 24.5975 15.5485 24.5975 16.2082C24.5975 16.868 24.0577 17.4078 23.398 17.4078Z" fill="currentColor"/>
</svg>
