<svg width="36" height="36" viewBox="0 0 36 36" fill="none" xmlns="http://www.w3.org/2000/svg">
<path d="M33 1.8H30C29.64 1.8 29.4 2.03998 29.4 2.39998H25.7449L25.8 1.8C25.8 0.779977 25.0201 0 24 0H12.0001C11.0401 0 10.2001 0.779977 10.2001 1.85998L10.25 2.39998H6.60007C6.60007 2.03998 6.3601 1.8 6.0001 1.8H3.00007C1.6801 1.8 0.600098 2.88 0.600098 4.19998C0.600098 5.51995 1.6801 6.59995 3.00007 6.59995H6.0001C6.3601 6.59995 6.60007 6.35998 6.60007 5.99998H10.5826L11.2201 12.9C11.3643 14.1019 12.2024 15.1106 13.3323 15.4643L14.1601 20.1C14.3153 20.8761 14.8726 21.4281 15.6001 21.5656V25.2C15.6001 25.8049 15.8273 26.359 16.2001 26.7822V33.6C16.2001 33.72 16.26 33.84 16.3201 33.96L17.5201 35.76C17.6401 35.88 17.8201 36 18.0001 36C18.24 36 18.42 35.88 18.4801 35.76L19.6801 33.96C19.7401 33.84 19.8001 33.72 19.8001 33.6V26.7822C20.1729 26.359 20.4001 25.8049 20.4001 25.2V21.5527C21.098 21.3967 21.6292 20.8545 21.7801 20.1L22.6014 15.5006C23.7934 15.1848 24.6804 14.1463 24.7801 12.9L25.4142 5.99998H29.4002C29.4002 6.35998 29.6401 6.59995 30.0001 6.59995H33.0002C34.3201 6.59995 35.4001 5.51995 35.4001 4.19998C35.4001 2.88 34.3201 1.8 33 1.8ZM3.00007 5.4C2.34005 5.4 1.80005 4.86 1.80005 4.19998C1.80005 3.53995 2.34005 2.99995 3.00007 2.99995H5.40005V5.4H3.00007ZM6.60007 4.80002V3.6H10.3608L10.4717 4.80002H6.60007ZM19.2001 25.2C19.2001 25.5241 19.0694 25.8188 18.8586 26.0353C18.8314 26.0537 18.8051 26.075 18.78 26.1C18.6827 26.1973 18.4669 26.3341 18.1967 26.3823C18.1917 26.3831 18.1867 26.3839 18.1817 26.3846C18.1552 26.389 18.1281 26.3924 18.1006 26.3949C18.0673 26.3977 18.0339 26.4 18 26.4C17.9672 26.4 17.935 26.3977 17.9029 26.3951C17.5962 26.3666 17.3833 26.2089 17.22 26.1001C17.1925 26.0726 17.1635 26.0483 17.1335 26.0266C16.9276 25.8109 16.8 25.5199 16.8 25.2001V21.6001H19.2L19.2001 25.2ZM18.6 33.42L18.0001 34.32L17.4001 33.42V27.54C17.7601 27.66 18.2401 27.66 18.6001 27.54V33.42H18.6ZM20.6401 19.92C20.5801 20.22 20.3401 20.4 20.0401 20.4H19.8001H16.2001H16.0201C15.72 20.4 15.4801 20.22 15.4201 19.92L14.6401 15.6H21.4201L20.6401 19.92ZM23.64 12.78C23.536 13.5607 22.9803 14.2055 22.2083 14.3629C22.1472 14.3479 22.0837 14.34 22.02 14.34H21.9601C21.9001 14.34 21.84 14.34 21.7801 14.34H14.1601C14.1001 14.34 14.0401 14.34 13.9801 14.34H13.9201C13.8736 14.34 13.8272 14.3442 13.7818 14.3522C13.0322 14.1845 12.4706 13.5887 12.4201 12.78L11.7436 5.49823C11.7542 5.44648 11.7601 5.39332 11.7601 5.34002L11.5201 2.94005C11.5146 2.91234 11.507 2.88534 11.4985 2.85877L11.4 1.8C11.4 1.44 11.64 1.20002 12 1.20002H24C24.36 1.20002 24.6 1.50005 24.6 1.74002L23.64 12.78ZM25.5601 4.80002L25.6027 3.9484L25.6347 3.6H29.4V4.80002H25.5601ZM33 5.4H30.6001V3.00002H33C33.6601 3.00002 34.2001 3.54002 34.2001 4.20005C34.2001 4.86007 33.6601 5.4 33 5.4Z" fill="currentColor"/>
<path d="M18.5998 12H17.3998C17.0398 12 16.7998 12.24 16.7998 12.6C16.7998 12.96 17.0398 13.2 17.3998 13.2H18.5998C18.9598 13.2 19.1998 12.96 19.1998 12.6C19.1998 12.24 18.9598 12 18.5998 12Z" fill="currentColor"/>
<path d="M19.8001 9.59998H16.2001C15.8401 9.59998 15.6001 9.83995 15.6001 10.2C15.6001 10.56 15.8401 10.7999 16.2001 10.7999H19.8001C20.1601 10.7999 20.4001 10.56 20.4001 10.2C20.4001 9.84002 20.1601 9.59998 19.8001 9.59998Z" fill="currentColor"/>
<path d="M20.9999 7.2H14.9999C14.6399 7.2 14.3999 7.43997 14.3999 7.79997C14.3999 8.15997 14.6399 8.39995 14.9999 8.39995H20.9999C21.3599 8.39995 21.5998 8.15997 21.5998 7.79997C21.5998 7.43997 21.3599 7.2 20.9999 7.2Z" fill="currentColor"/>
</svg>
