<svg width="36" height="36" viewBox="0 0 36 36" fill="none" xmlns="http://www.w3.org/2000/svg">
<path d="M22.5391 16.5H25.5391C25.9531 16.5 26.2891 16.164 26.2891 15.75V12.75C26.2891 12.336 25.9531 12 25.5391 12H22.5391C22.1251 12 21.7891 12.336 21.7891 12.75V15.75C21.7891 16.164 22.1251 16.5 22.5391 16.5ZM24.7891 13.5V15H23.2891V13.5H24.7891Z" fill="currentColor"/>
<path d="M10.5391 28.5H13.5391C13.9531 28.5 14.2891 28.1639 14.2891 27.7499V24.75C14.2891 24.336 13.9531 24 13.5391 24H10.5391C10.1251 24 9.78906 24.336 9.78906 24.75V27.75C9.78906 28.164 10.1251 28.5 10.5391 28.5ZM11.2891 25.5H12.7891V27H11.2891V25.5Z" fill="currentColor"/>
<path d="M10.5391 10.5H13.5391C13.9531 10.5 14.2891 10.1639 14.2891 9.74995V6.74999C14.2891 6.33599 13.9531 5.99997 13.5391 5.99997H10.5391C10.1251 5.99997 9.78906 6.33599 9.78906 6.74999V9.75002C9.78906 10.164 10.1251 10.5 10.5391 10.5ZM11.2891 7.50002H12.7891V8.99999H11.2891V7.50002Z" fill="currentColor"/>
<path d="M31.4611 34.5H29.2891V3.74998C29.2891 3.33598 28.9531 2.99995 28.5391 2.99995H26.2891V0.749953C26.2891 0.336023 25.9531 0 25.5391 0H10.5391C10.1251 0 9.78911 0.336023 9.78911 0.750023V3.00002H7.53911C7.12511 3.00002 6.78909 3.33605 6.78909 3.75005V34.5H4.53909C4.12509 34.5 3.78906 34.836 3.78906 35.25C3.78906 35.664 4.12509 36.0001 4.53909 36.0001H13.5391C13.9531 36.0001 14.2891 35.664 14.2891 35.25V31.5H21.7891V35.25C21.7891 35.664 22.1252 36 22.5392 36H31.4612C31.8752 36 32.2112 35.664 32.2112 35.25C32.2111 34.836 31.8751 34.5 31.4611 34.5ZM11.2892 1.49998H24.7892V2.99995H11.2892V1.49998ZM27.7891 34.5H23.2891V30.75C23.2891 30.336 22.9531 30 22.5391 30H13.5391C13.1251 30 12.7891 30.336 12.7891 30.75V34.5H8.28906V4.5H27.789V34.5H27.7891Z" fill="currentColor"/>
<path d="M16.5391 28.5H19.5391C19.9531 28.5 20.2891 28.1639 20.2891 27.7499V24.75C20.2891 24.336 19.9531 24 19.5391 24H16.5391C16.1251 24 15.7891 24.336 15.7891 24.75V27.75C15.7891 28.164 16.1251 28.5 16.5391 28.5ZM17.2891 25.5H18.7891V27H17.2891V25.5Z" fill="currentColor"/>
<path d="M22.5391 10.5H25.5391C25.9531 10.5 26.2891 10.1639 26.2891 9.74995V6.74999C26.2891 6.33599 25.9531 5.99997 25.5391 5.99997H22.5391C22.1251 5.99997 21.7891 6.33599 21.7891 6.74999V9.75002C21.7891 10.164 22.1251 10.5 22.5391 10.5ZM24.7891 7.50002V8.99999H23.2891V7.50002H24.7891Z" fill="currentColor"/>
<path d="M10.5391 16.5H13.5391C13.9531 16.5 14.2891 16.164 14.2891 15.75V12.75C14.2891 12.336 13.9531 12 13.5391 12H10.5391C10.1251 12 9.78906 12.336 9.78906 12.75V15.75C9.78906 16.164 10.1251 16.5 10.5391 16.5ZM11.2891 13.5H12.7891V15H11.2891V13.5Z" fill="currentColor"/>
<path d="M16.5391 22.5H19.5391C19.9531 22.5 20.2891 22.164 20.2891 21.75V18.7499C20.2891 18.3359 19.9531 17.9999 19.5391 17.9999H16.5391C16.1251 17.9999 15.7891 18.3359 15.7891 18.7499V21.75C15.7891 22.164 16.1251 22.5 16.5391 22.5ZM17.2891 19.5H18.7891V20.9999H17.2891V19.5Z" fill="currentColor"/>
<path d="M16.5391 10.5H19.5391C19.9531 10.5 20.2891 10.1639 20.2891 9.74995V6.74999C20.2891 6.33599 19.9531 5.99997 19.5391 5.99997H16.5391C16.1251 5.99997 15.7891 6.33599 15.7891 6.74999V9.75002C15.7891 10.164 16.1251 10.5 16.5391 10.5ZM17.2891 7.50002H18.7891V8.99999H17.2891V7.50002Z" fill="currentColor"/>
<path d="M16.5391 16.5H19.5391C19.9531 16.5 20.2891 16.164 20.2891 15.75V12.75C20.2891 12.336 19.9531 12 19.5391 12H16.5391C16.1251 12 15.7891 12.336 15.7891 12.75V15.75C15.7891 16.164 16.1251 16.5 16.5391 16.5ZM17.2891 13.5H18.7891V15H17.2891V13.5Z" fill="currentColor"/>
<path d="M22.5391 28.5H25.5391C25.9531 28.5 26.2891 28.1639 26.2891 27.7499V24.75C26.2891 24.336 25.9531 24 25.5391 24H22.5391C22.1251 24 21.7891 24.336 21.7891 24.75V27.75C21.7891 28.164 22.1251 28.5 22.5391 28.5ZM24.7891 25.5V27H23.2891V25.5H24.7891Z" fill="currentColor"/>
<path d="M10.5391 22.5H13.5391C13.9531 22.5 14.2891 22.164 14.2891 21.75V18.7499C14.2891 18.3359 13.9531 17.9999 13.5391 17.9999H10.5391C10.1251 17.9999 9.78906 18.3359 9.78906 18.7499V21.75C9.78906 22.164 10.1251 22.5 10.5391 22.5ZM11.2891 19.5H12.7891V20.9999H11.2891V19.5Z" fill="currentColor"/>
<path d="M22.5391 22.5H25.5391C25.9531 22.5 26.2891 22.164 26.2891 21.75V18.7499C26.2891 18.3359 25.9531 17.9999 25.5391 17.9999H22.5391C22.1251 17.9999 21.7891 18.3359 21.7891 18.7499V21.75C21.7891 22.164 22.1251 22.5 22.5391 22.5ZM24.7891 19.5V20.9999H23.2891V19.5H24.7891Z" fill="currentColor"/>
</svg>
