<svg width="36" height="36" viewBox="0 0 36 36" fill="none" xmlns="http://www.w3.org/2000/svg">
<path d="M27.4219 22.4027C28.5925 23.5733 28.5918 25.4779 27.4209 26.6488C26.2502 27.8194 24.3464 27.82 23.1758 26.6498L21.9736 25.4476L22.4766 24.5746L23.8633 25.9613C24.6541 26.7521 25.9421 26.7525 26.7334 25.9613C27.5249 25.1698 27.5243 23.8821 26.7334 23.0912L24.5781 20.9359L25.082 20.0629L27.4219 22.4027ZM15.416 14.5746C15.61 14.4168 15.8906 14.431 16.0674 14.6078L18.6543 17.1947L18.1514 18.0668L15.6904 15.6068L6.11621 23.4261C5.9226 23.5838 5.64078 23.5708 5.46387 23.3939L1.68945 19.6185C1.49958 19.4287 1.49938 19.1211 1.68945 18.931C1.87923 18.7413 2.18699 18.7413 2.37695 18.931L5.84082 22.3949L15.416 14.5746Z" fill="currentColor"/>
<path d="M21.2525 5.04554L17.3047 0.659668C17.1251 0.460085 16.8171 0.443994 16.6176 0.62364L0.864532 14.803C0.664949 14.9827 0.648857 15.2906 0.82841 15.4901L4.77616 19.876C4.95599 20.0758 5.26376 20.0916 5.46324 19.9121L21.2163 5.73272C21.4165 5.55251 21.4322 5.24523 21.2525 5.04554ZM20.2037 5.33499L5.17378 18.8635L1.87708 15.2009L16.907 1.67243L20.2037 5.33499Z" fill="currentColor"/>
<path d="M19.5194 14.6101L20.6803 17.7762C20.771 18.0236 20.7393 18.3007 20.5956 18.5174L17.6273 22.993C17.214 23.0604 16.8299 23.2843 16.5789 23.6481L12.0521 30.2108C11.7058 30.7086 11.5819 31.3134 11.703 31.9138C11.8241 32.5142 12.175 33.0332 12.6907 33.3753C13.2065 33.7173 13.8211 33.8385 14.4213 33.7165C15.0216 33.5945 15.5305 33.245 15.8531 32.7344L20.139 26.0091C20.3766 25.6363 20.4333 25.1954 20.3346 24.7884L23.3029 20.3127C23.4466 20.0961 23.6896 19.959 23.9527 19.9464L27.3211 19.7841C28.055 19.7487 28.6928 19.2865 28.9447 18.61L34.6694 3.54393C34.9707 2.73464 34.6687 1.82959 33.9349 1.34294C33.2011 0.856288 32.2499 0.930204 31.6186 1.52539L19.9724 12.6548C19.4442 13.1528 19.2664 13.9203 19.5194 14.6101ZM19.0677 25.3253L18.5203 26.1843L17.0473 25.2074L17.6256 24.369C17.7133 24.2419 17.8751 24.1942 18.0187 24.2399L19.0337 24.913C19.1316 25.0275 19.1506 25.1952 19.0677 25.3253ZM14.1456 32.4887C13.8797 32.5428 13.6074 32.489 13.379 32.3375C13.1505 32.186 12.9952 31.956 12.9414 31.6901C12.8878 31.4241 12.9427 31.1562 13.0975 30.9337L16.3402 26.2326L17.8509 27.2346L14.7804 32.0527C14.6371 32.2798 14.4116 32.4347 14.1456 32.4887ZM20.8544 13.568L32.5006 2.43874C32.7032 2.2477 33.0099 2.22387 33.2465 2.38079C33.4831 2.53772 33.5805 2.82951 33.4848 3.08668L27.7601 18.1527C27.6784 18.372 27.4727 18.5211 27.2361 18.5326L23.8677 18.6948C23.2099 18.7265 22.6028 19.0687 22.2436 19.6104L19.5171 23.7214L18.9282 23.3308L21.6547 19.2198C22.0139 18.6782 22.093 17.9857 21.8663 17.3675L20.7054 14.2013C20.6239 13.9788 20.6812 13.7314 20.8544 13.568Z" fill="currentColor"/>
<path d="M21.8152 15.3629L25.0389 17.5009C25.3025 17.6757 25.7229 17.5056 25.9779 17.121C26.233 16.7365 26.2261 16.283 25.9626 16.1082L22.7388 13.9702C22.4753 13.7954 22.0549 13.9655 21.7998 14.3501C21.5448 14.7346 21.5517 15.1882 21.8152 15.3629Z" fill="currentColor"/>
</svg>
