<svg width="36" height="36" viewBox="0 0 36 36" fill="none" xmlns="http://www.w3.org/2000/svg">
<path d="M4.59354 5.47742L5.55743 9.09257C5.60485 9.27128 5.74592 9.41104 5.92537 9.45656C6.10525 9.50106 6.29505 9.44679 6.42285 9.31286C7.16922 8.52433 9.46873 6.47896 11.1201 6.47896C11.4985 6.47896 11.8143 6.58677 12.0826 6.80823L12.7054 10.6575C12.7458 10.905 12.9596 11.0869 13.2099 11.0869C13.2104 11.0869 13.2109 11.0869 13.2114 11.0869L16.5978 11.0752V14.2724H14.4891C14.2069 14.2724 13.9779 14.5016 13.9779 14.7836V35.4888C13.9779 35.771 14.2071 36 14.4891 36H22.7336C23.0163 36 23.2449 35.771 23.2449 35.4888V14.7836C23.2449 14.5014 23.0163 14.2724 22.7336 14.2724H20.6237V11.0605L24.0177 11.0488C24.1595 11.0484 24.2953 10.9885 24.3912 10.8842C24.4876 10.7799 24.5361 10.6405 24.5256 10.4988L24.4282 9.22416H25.6299V10.5764C25.6299 10.8587 25.859 11.0876 26.1411 11.0876H30.912C31.1948 11.0876 31.4232 10.8587 31.4232 10.5764V0.511197C31.4232 0.229047 31.1948 0 30.912 0H26.1411C25.859 0 25.6299 0.229193 25.6299 0.511197V3.21468H23.9703L23.8691 1.88898C23.8536 1.68605 23.7194 1.51185 23.5269 1.44489C23.4272 1.40988 21.0382 0.595084 17.5459 0.595084C14.2695 0.595084 9.39374 1.34919 4.77415 4.94215C4.61148 5.0685 4.54044 5.27916 4.59354 5.47742ZM22.2218 34.977H14.9998V15.2942H17.1087H20.112H22.2218V34.977ZM17.6199 14.2718V11.0867H19.6008V14.2718H17.6199ZM26.6522 1.02254H30.4007V10.0648H26.6522V1.02254ZM25.6298 4.23722V8.20133H24.3502L24.0482 4.23722H25.6298ZM17.5458 1.61762C20.1474 1.61762 22.1344 2.10344 22.8758 2.31425L23.4639 10.0276L13.6439 10.0627L13.0626 6.46904C13.0454 6.36268 12.9952 6.26508 12.9196 6.18936C12.4334 5.70282 11.8275 5.45627 11.119 5.45627C9.34925 5.45627 7.3297 7.06791 6.32043 7.98847L5.66918 5.54439C9.98007 2.30564 14.4929 1.61762 17.5458 1.61762Z" fill="currentColor"/>
</svg>
