<svg width="28" height="28" viewBox="0 0 28 28" fill="none" xmlns="http://www.w3.org/2000/svg">
<path d="M18.8244 21.3418C19.28 21.7974 20.0187 21.7974 20.4743 21.3418L26.1763 15.6343C27.0867 14.7229 27.0864 13.2461 26.1756 12.3352L20.4701 6.62979C20.0145 6.17418 19.2758 6.17418 18.8202 6.62979C18.3646 7.08541 18.3646 7.8241 18.8202 8.27971L23.7034 13.1629C24.1591 13.6186 24.1591 14.3572 23.7034 14.8128L18.8244 19.6919C18.3688 20.1475 18.3688 20.8863 18.8244 21.3418Z" fill="currentColor"/>
<path d="M9.20056 6.62979C8.74495 6.17418 8.00626 6.17418 7.55065 6.62979L1.84862 12.3374C0.938164 13.2488 0.938525 14.7256 1.84944 15.6364L7.55486 21.3418C8.01046 21.7974 8.74916 21.7974 9.20477 21.3418C9.66039 20.8863 9.66039 20.1475 9.20477 19.6919L4.32151 14.8086C3.8659 14.353 3.8659 13.6143 4.32152 13.1587L9.20056 8.27971C9.65618 7.8241 9.65618 7.08541 9.20056 6.62979Z" fill="currentColor"/>
</svg>
