<svg width="22" height="22" viewBox="0 0 22 22" fill="none" xmlns="http://www.w3.org/2000/svg">
<path fill-rule="evenodd" clip-rule="evenodd" d="M20.1673 11.0002C20.1673 16.0627 16.0632 20.1668 11.0007 20.1668C5.93804 20.1668 1.83398 16.0627 1.83398 11.0002C1.83398 5.93755 5.93804 1.8335 11.0007 1.8335C16.0632 1.8335 20.1673 5.93755 20.1673 11.0002ZM8.22281 8.22234C8.49129 7.95386 8.92659 7.95386 9.19509 8.22234L11.0007 10.0279L12.8061 8.22236C13.0746 7.95388 13.5099 7.95388 13.7784 8.22236C14.0469 8.49084 14.0469 8.92615 13.7784 9.1946L11.9729 11.0002L13.7784 12.8056C14.0469 13.0741 14.0469 13.5094 13.7784 13.7779C13.5099 14.0464 13.0746 14.0464 12.8061 13.7779L11.0007 11.9725L9.19509 13.7779C8.92662 14.0464 8.49131 14.0464 8.22283 13.7779C7.95435 13.5094 7.95435 13.0741 8.22283 12.8057L10.0283 11.0002L8.22281 9.1946C7.95432 8.92613 7.95432 8.49082 8.22281 8.22234Z" fill="currentColor"/>
</svg>
