<svg width="18" height="18" viewBox="0 0 18 18" fill="none" xmlns="http://www.w3.org/2000/svg">
<path fill-rule="evenodd" clip-rule="evenodd" d="M9 17C4.5815 17 1 13.4185 1 9C1 4.5815 4.5815 1 9 1C13.4185 1 17 4.5815 17 9C17 13.4185 13.4185 17 9 17ZM6.25 8.619V9.523H7.132V10.827H6.25V11.6795H7.132V13.5H8.126V11.6795H10.126V10.827H8.126V9.523H9.3805C9.76268 9.5262 10.1433 9.47399 10.5105 9.368C10.8585 9.2645 11.1605 9.108 11.4175 8.8965C11.6745 8.686 11.8775 8.4215 12.0265 8.1025C12.1755 7.784 12.25 7.4095 12.25 6.979C12.25 6.549 12.18 6.179 12.039 5.869C11.898 5.559 11.7035 5.3025 11.455 5.1005C11.2065 4.8985 10.9085 4.7475 10.5605 4.6485C10.1842 4.54577 9.79552 4.4958 9.4055 4.5H7.132V8.619H6.25ZM9.405 8.619H8.126V5.404H9.4055C9.9765 5.404 10.426 5.529 10.753 5.7785C11.08 6.028 11.244 6.4285 11.244 6.979C11.244 7.53 11.08 7.941 10.753 8.2125C10.426 8.4835 9.9765 8.619 9.4055 8.619H9.405Z" fill="currentColor"/>
</svg>
