<svg width="22" height="22" viewBox="0 0 22 22" fill="none" xmlns="http://www.w3.org/2000/svg">
<path fill-rule="evenodd" clip-rule="evenodd" d="M20.1673 11.0002C20.1673 16.0627 16.0632 20.1668 11.0007 20.1668C5.93804 20.1668 1.83398 16.0627 1.83398 11.0002C1.83398 5.93755 5.93804 1.8335 11.0007 1.8335C16.0632 1.8335 20.1673 5.93755 20.1673 11.0002ZM14.6951 8.22236C14.9636 8.49084 14.9636 8.92615 14.6951 9.1946L10.1118 13.7779C9.84327 14.0464 9.40803 14.0464 9.13952 13.7779L7.30618 11.9446C7.0377 11.6761 7.0377 11.2409 7.30618 10.9724C7.57466 10.7039 8.00997 10.7039 8.27845 10.9724L9.62565 12.3195L11.6742 10.271L13.7229 8.22236C13.9914 7.95388 14.4266 7.95388 14.6951 8.22236Z" fill="currentColor"/>
</svg>
