<svg width="22" height="22" viewBox="0 0 22 22" fill="none" xmlns="http://www.w3.org/2000/svg">
<path fill-rule="evenodd" clip-rule="evenodd" d="M11 17.875C10.197 17.875 9.4215 17.7815 8.67625 17.6227L5.4395 19.5683L5.48282 16.379C3.00163 14.8871 1.375 12.4204 1.375 9.625C1.375 5.06894 5.68425 1.375 11 1.375C16.3158 1.375 20.625 5.06894 20.625 9.625C20.625 14.1818 16.3158 17.875 11 17.875ZM11 0C4.92525 0 0 4.30994 0 9.625C0 12.6631 1.61219 15.3684 4.125 17.1318V22L8.94369 19.0761C9.61056 19.1861 10.2967 19.25 11 19.25C17.0748 19.25 22 14.9408 22 9.625C22 4.30994 17.0748 0 11 0ZM15.8125 7.5625H6.1875C5.808 7.5625 5.5 7.8705 5.5 8.25C5.5 8.63019 5.808 8.9375 6.1875 8.9375H15.8125C16.192 8.9375 16.5 8.63019 16.5 8.25C16.5 7.8705 16.192 7.5625 15.8125 7.5625ZM14.4375 11.6875H7.5625C7.183 11.6875 6.875 11.9948 6.875 12.375C6.875 12.7552 7.183 13.0625 7.5625 13.0625H14.4375C14.817 13.0625 15.125 12.7552 15.125 12.375C15.125 11.9948 14.817 11.6875 14.4375 11.6875Z" fill="currentColor"/>
</svg>
