<svg width="24" height="24" viewBox="0 0 24 24" fill="none" xmlns="http://www.w3.org/2000/svg">
<path d="M4.54306 5.12624L5.05756 5.64074L2.95156 7.74674L4.59256 9.38774L6.70831 7.27199L7.18906 7.75274L5.07331 9.86924L6.69331 11.4885L11.5053 6.67649L5.64631 0.85199L0.851562 5.64674L2.43706 7.23299L4.54306 5.12624ZM17.3238 12.4942L12.5118 17.307L14.1311 18.9262L16.2476 16.8105L16.7283 17.2912L14.6126 19.407L16.2536 21.048L18.3588 18.942L18.8733 19.4565L16.7681 21.5625L18.3528 23.148L23.1483 18.3525L17.3238 12.4942ZM22.3661 6.33824C22.9518 5.75174 22.9563 4.80449 22.3751 4.22249L19.7411 1.58924C19.1598 1.00799 18.2118 1.01099 17.6261 1.59824L15.9986 3.22574L20.7386 7.96574L22.3661 6.33824ZM2.54806 19.4565L4.51531 21.4237L8.47831 20.016L3.95581 15.4935L2.54806 19.4565ZM15.4871 3.70724L4.32331 14.8717L9.10006 19.6485L20.2646 8.48399L15.4871 3.70724ZM6.49231 14.862L15.4781 5.87624L16.0016 6.39974L7.01506 15.3862L6.49231 14.862ZM7.53931 15.9097L16.5243 6.92399L17.0478 7.44749L8.06206 16.4325L7.53931 15.9097ZM8.58631 16.956L17.5721 7.97024L18.0948 8.49374L9.10981 17.4795L8.58631 16.956ZM1.46506 22.5075L3.76456 21.6697L2.30281 20.208L1.46506 22.5075Z" fill="currentColor"/>
</svg>
