<svg width="22" height="22" viewBox="0 0 22 22" fill="none" xmlns="http://www.w3.org/2000/svg">
<path fill-rule="evenodd" clip-rule="evenodd" d="M11.2149 20.9429C9.25212 20.9429 8.34 20.6552 6.75452 19.504C5.75166 20.799 2.57593 21.8111 2.43744 20.0796C2.43744 18.7798 2.1509 17.6815 1.82617 16.4824C1.43935 15.0051 1 13.36 1 10.9763C1 5.28308 5.65137 1 11.1623 1C16.6781 1 20.9999 5.49411 20.9999 11.029C21.0185 16.4783 16.6406 20.9139 11.2149 20.9429ZM11.2961 5.92098C8.6122 5.78189 6.52052 7.64764 6.05729 10.5734C5.67525 12.9955 6.35337 15.9452 6.93121 16.0987C7.20819 16.1658 7.90542 15.5999 8.34 15.1634C9.05859 15.662 9.89538 15.9614 10.766 16.0315C13.5469 16.1659 15.9231 14.0396 16.1098 11.2496C16.2185 8.45382 14.0774 6.08577 11.2961 5.92578L11.2961 5.92098Z" fill="currentColor" />
</svg>
