<svg width="20" height="20" viewBox="0 0 20 20" fill="none" xmlns="http://www.w3.org/2000/svg">
<path d="M10.0001 10.1233C12.7901 10.1233 15.0513 7.8616 15.0513 5.07117C15.0512 2.28074 12.79 0.0195312 10.0001 0.0195312C7.20915 0.0195312 4.947 2.28074 4.947 5.07117C4.94696 7.8616 7.20915 10.1233 10.0001 10.1233ZM10.0001 2.58578C11.3724 2.58578 12.4849 3.69836 12.4849 5.07113C12.4849 6.44395 11.3724 7.55648 10.0001 7.55648C8.62634 7.55648 7.51423 6.44395 7.51423 5.07113C7.51423 3.69836 8.6263 2.58578 10.0001 2.58578ZM15.8226 10.7398C15.5381 10.1667 14.7481 9.69008 13.6979 10.5171C12.2783 11.635 10.0001 11.635 10.0001 11.635C10.0001 11.635 7.72032 11.635 6.30075 10.5171C5.25103 9.69008 4.46157 10.1667 4.1765 10.7398C3.67845 11.7383 4.24032 12.2213 5.50837 13.0351C6.59122 13.7305 8.0795 13.9903 9.04005 14.0873L8.2379 14.8894C7.10829 16.0185 6.01814 17.1096 5.2613 17.8665C4.80857 18.3187 4.80857 19.0522 5.2613 19.5044L5.39724 19.6414C5.84997 20.0936 6.58294 20.0936 7.03564 19.6414L10.0122 16.6643C11.1428 17.7939 12.233 18.8845 12.9898 19.6414C13.4425 20.0936 14.1755 20.0936 14.6282 19.6414L14.7641 19.5044C15.2168 19.0517 15.2168 18.3187 14.7641 17.866L11.7875 14.8895L10.9834 14.0848C11.9449 13.9854 13.4167 13.7247 14.4907 13.0352C15.7588 12.2212 16.3197 11.7383 15.8226 10.7398Z" fill="currentColor"/>
</svg>
