<svg width="26" height="26" viewBox="0 0 26 26" fill="none" xmlns="http://www.w3.org/2000/svg">
<path d="M12.2083 4.77874C12.4591 4.21607 12.5845 3.93474 12.7591 3.84811C12.9108 3.77284 13.0889 3.77284 13.2406 3.84811C13.4152 3.93474 13.5407 4.21607 13.7915 4.77874L15.7891 9.26041C15.8633 9.42674 15.9004 9.50991 15.9578 9.5736C16.0085 9.62996 16.0706 9.67503 16.1398 9.70589C16.2181 9.74077 16.3087 9.75033 16.4898 9.76944L21.3695 10.2845C21.9821 10.3491 22.2884 10.3814 22.4248 10.5207C22.5432 10.6417 22.5982 10.8112 22.5735 10.9787C22.5451 11.1715 22.3163 11.3777 21.8587 11.7901L18.2136 15.075C18.0784 15.1969 18.0107 15.2579 17.9679 15.3321C17.93 15.3978 17.9063 15.4707 17.8984 15.5461C17.8894 15.6314 17.9082 15.7205 17.946 15.8987L18.9642 20.6986C19.092 21.3012 19.1559 21.6025 19.0656 21.7752C18.987 21.9254 18.8429 22.03 18.676 22.0583C18.4838 22.0908 18.217 21.9369 17.6833 21.6292L13.4329 19.1776C13.2751 19.0866 13.1963 19.0412 13.1124 19.0233C13.0382 19.0076 12.9615 19.0076 12.8873 19.0233C12.8035 19.0412 12.7246 19.0866 12.5669 19.1776L8.31642 21.6292C7.78279 21.9369 7.51598 22.0908 7.32378 22.0583C7.15683 22.03 7.0127 21.9254 6.93423 21.7752C6.84389 21.6025 6.90779 21.3012 7.03562 20.6986L8.05369 15.8987C8.09148 15.7205 8.11037 15.6314 8.1014 15.5461C8.09346 15.4707 8.06977 15.3978 8.03185 15.3321C7.989 15.2579 7.92136 15.1969 7.78609 15.075L4.14108 11.7901C3.68347 11.3777 3.45466 11.1715 3.42621 10.9787C3.40151 10.8112 3.45655 10.6417 3.57501 10.5207C3.71138 10.3814 4.01769 10.3491 4.63031 10.2845L9.50996 9.76944C9.69107 9.75033 9.78162 9.74077 9.85992 9.70589C9.9292 9.67503 9.99123 9.62996 10.042 9.5736C10.0994 9.50991 10.1364 9.42674 10.2106 9.26041L12.2083 4.77874Z" stroke="currentColor" stroke-width="1.5" stroke-linecap="round" stroke-linejoin="round"/>
</svg>
