<svg width="42" height="34" viewBox="0 0 42 34" fill="none" xmlns="http://www.w3.org/2000/svg">
<path d="M12.0501 18.4014C13.1421 19.0514 14 19.9857 14.624 21.2043C15.3259 22.3417 15.6769 23.6416 15.6769 25.1039C15.6769 27.6225 14.8579 29.7348 13.2201 31.4409C11.6602 33.147 9.7493 34 7.48746 34C5.38162 34 3.58774 33.2688 2.10585 31.8064C0.70195 30.3441 0 28.4755 0 26.2007C0 24.9821 0.194986 23.8447 0.584958 22.7885C0.97493 21.6511 1.67688 20.1482 2.69081 18.2796L12.5181 0H19.8886L12.0501 18.4014ZM34.1616 18.4014C35.2535 19.0514 36.1114 19.9857 36.7354 21.2043C37.4373 22.3417 37.7883 23.6416 37.7883 25.1039C37.7883 27.6225 36.9694 29.7348 35.3315 31.4409C33.7716 33.147 31.8607 34 29.5989 34C27.493 34 25.6992 33.2688 24.2173 31.8064C22.8134 30.3441 22.1114 28.4755 22.1114 26.2007C22.1114 24.9821 22.3064 23.8447 22.6964 22.7885C23.0864 21.6511 23.7883 20.1482 24.8022 18.2796L34.6295 0H42L34.1616 18.4014Z" fill="currentColor"/>
</svg>
