<svg width="14" height="14" viewBox="0 0 14 14" fill="none" xmlns="http://www.w3.org/2000/svg">
<path d="M6.57366 2.57313C6.7087 2.27016 6.77625 2.11867 6.87029 2.07202C6.95195 2.03149 7.04785 2.03149 7.12952 2.07202C7.22355 2.11867 7.2911 2.27016 7.42615 2.57313L8.50181 4.98634C8.54177 5.0759 8.56172 5.12069 8.59264 5.15498C8.61994 5.18533 8.65336 5.2096 8.69064 5.22621C8.73281 5.24499 8.78158 5.25014 8.87911 5.26043L11.5066 5.53775C11.8365 5.57257 12.0014 5.58997 12.0748 5.66498C12.1386 5.73014 12.1682 5.82137 12.1549 5.91158C12.1397 6.01541 12.0165 6.12642 11.7701 6.34849L9.80731 8.11727C9.73451 8.1829 9.69805 8.21574 9.67501 8.2557C9.6546 8.29111 9.64182 8.33037 9.63756 8.37097C9.63272 8.41688 9.64287 8.46483 9.66323 8.56078L10.2114 11.1454C10.2803 11.4699 10.3147 11.6321 10.266 11.7251C10.2238 11.8059 10.1462 11.8623 10.0563 11.8775C9.9528 11.895 9.80912 11.8122 9.52177 11.6464L7.23306 10.3264C7.14813 10.2774 7.10566 10.2529 7.06051 10.2433C7.02055 10.2348 6.97925 10.2348 6.9393 10.2433C6.89415 10.2529 6.85168 10.2774 6.76675 10.3264L4.47805 11.6464C4.19071 11.8122 4.04704 11.895 3.94355 11.8775C3.85365 11.8623 3.77605 11.8059 3.73379 11.7251C3.68515 11.6321 3.71956 11.4699 3.78839 11.1454L4.33658 8.56078C4.35693 8.46483 4.3671 8.41688 4.36227 8.37097C4.35799 8.33037 4.34524 8.29111 4.32482 8.2557C4.30175 8.21574 4.26532 8.1829 4.19248 8.11727L2.22979 6.34849C1.98338 6.12642 1.86018 6.01541 1.84486 5.91158C1.83156 5.82137 1.8612 5.73014 1.92498 5.66498C1.99841 5.58997 2.16335 5.57257 2.49322 5.53775L5.12072 5.26043C5.21825 5.25014 5.267 5.24499 5.30916 5.22621C5.34647 5.2096 5.37987 5.18533 5.40721 5.15498C5.43809 5.12069 5.45805 5.0759 5.49798 4.98634L6.57366 2.57313Z" stroke="currentColor" stroke-width="1.5" stroke-linecap="round" stroke-linejoin="round"/>
</svg>
