<svg width="16" height="16" viewBox="0 0 16 16" fill="none" xmlns="http://www.w3.org/2000/svg">
<path d="M15.9734 6.06925C15.9139 5.8915 15.7599 5.762 15.5747 5.7335L10.6562 4.982L8.4524 0.2875C8.3699 0.112 8.1934 0 7.99965 0C7.8059 0 7.62965 0.112 7.5469 0.2875L5.34315 4.982L0.424654 5.73375C0.239404 5.762 0.085654 5.89175 0.025904 6.0695C-0.033596 6.247 0.011154 6.443 0.142154 6.57725L3.71565 10.2415L2.87115 15.4175C2.84015 15.6065 2.9199 15.7967 3.07665 15.9067C3.16265 15.9675 3.2634 15.9982 3.3644 15.9982C3.4474 15.9982 3.5309 15.9772 3.6064 15.9357L7.9994 13.506L12.3924 15.9357C12.4679 15.9772 12.5514 15.9982 12.6344 15.9982C12.7354 15.9982 12.8364 15.9675 12.9222 15.9067C13.0789 15.7967 13.1587 15.6065 13.1277 15.4175L12.2832 10.2415L15.8567 6.57725C15.9879 6.44275 16.0329 6.24675 15.9734 6.06925Z" fill="currentColor"/>
</svg>
