<svg width="22" height="22" viewBox="0 0 22 22" fill="none" xmlns="http://www.w3.org/2000/svg">
<path d="M3.06428 9.92897C8.70941 7.44553 16.0147 4.4177 17.023 3.99862C19.6682 2.90176 20.4798 3.11197 20.0751 5.54106C19.7845 7.28697 18.9459 13.0673 18.2776 16.6651C17.8809 18.7987 16.9911 19.0515 15.592 18.1285C14.9191 17.6843 11.523 15.4384 10.7859 14.9111C10.1131 14.4305 9.18507 13.8524 10.3489 12.7138C10.763 12.3082 13.4778 9.71607 15.5929 7.69841C15.87 7.4334 15.5219 6.99816 15.2021 7.21061C12.3512 9.10116 8.39858 11.7252 7.89552 12.067C7.13553 12.5831 6.40563 12.8198 5.09541 12.4434C4.10545 12.1591 3.13839 11.82 2.76199 11.6906C1.31253 11.1929 1.65659 10.5484 3.06428 9.92897Z" fill="currentColor" />
</svg>
