<svg width="22" height="22" viewBox="0 0 22 22" fill="none" xmlns="http://www.w3.org/2000/svg">
<path d="M21.5015 5.302C21.254 6.08025 20.9203 6.75767 20.5023 7.37275L20.5198 7.34525C20.1091 8.02969 19.6187 8.82047 19.0485 9.71758C18.5596 10.4259 18.3008 10.7925 18.2721 10.8176C18.1456 10.9762 18.0576 11.1705 18.0273 11.3841L18.0264 11.3905C18.0512 11.5848 18.141 11.7544 18.2721 11.8809L18.6388 12.2897C20.6004 14.3058 21.7038 15.6955 21.9488 16.4587C21.9809 16.5431 21.9993 16.6402 21.9993 16.742C21.9993 16.9198 21.9424 17.0839 21.8462 17.2187L21.848 17.2159C21.6867 17.3818 21.4612 17.4845 21.2118 17.4845C21.1843 17.4845 21.1559 17.4836 21.1293 17.4808H21.133H18.7213C18.7203 17.4808 18.7185 17.4808 18.7167 17.4808C18.4078 17.4808 18.1236 17.3727 17.9008 17.193L17.9036 17.1948C17.5791 16.9281 17.2903 16.6393 17.0318 16.3258L17.0236 16.3148C16.6013 15.8376 16.2267 15.4357 15.8998 15.1094C14.8108 14.0742 14.0072 13.5566 13.4889 13.5566C13.4697 13.5547 13.4477 13.5538 13.4248 13.5538C13.2735 13.5538 13.1323 13.6006 13.0159 13.6803L13.0187 13.6785C12.9233 13.7977 12.8656 13.9517 12.8656 14.1176C12.8656 14.1506 12.8674 14.1817 12.872 14.2138V14.2102C12.8473 14.498 12.8326 14.8326 12.8326 15.1708C12.8326 15.2799 12.8344 15.3881 12.8372 15.4963V15.4807V16.5431C12.8463 16.5862 12.8518 16.6357 12.8518 16.6861C12.8518 16.9079 12.751 17.1059 12.5933 17.237L12.5924 17.2379C12.2377 17.4002 11.8233 17.4955 11.3861 17.4955C11.2926 17.4955 11.2009 17.4909 11.1102 17.4827L11.1221 17.4836C9.67926 17.4561 8.34093 17.0335 7.20335 16.3212L7.23543 16.3396C5.85035 15.4981 4.70268 14.4027 3.82818 13.1083L3.80343 13.0698C2.97293 11.968 2.19835 10.7232 1.53835 9.4105L1.47418 9.26933C1.08826 8.53417 0.688596 7.63033 0.34393 6.70083L0.28893 6.53125C0.14868 6.11325 0.0469297 5.62742 0.00476302 5.12417L0.00292969 5.10125C0.00292969 4.63803 0.275485 4.40642 0.820596 4.40642H3.23143C3.25343 4.40458 3.2791 4.40367 3.30568 4.40367C3.53301 4.40367 3.74293 4.48158 3.90885 4.61267L3.90701 4.61083C4.09035 4.81158 4.22601 5.05817 4.29293 5.33317L4.29568 5.34417C4.73935 6.59725 5.2096 7.64958 5.75043 8.65792L5.68901 8.53233C6.13085 9.4215 6.61943 10.1869 7.17676 10.8937L7.15568 10.8652C7.64457 11.4654 8.0259 11.7654 8.29968 11.7654C8.30793 11.7663 8.31801 11.7663 8.32901 11.7663C8.46468 11.7663 8.58293 11.693 8.6471 11.583L8.64801 11.5812C8.71585 11.407 8.75526 11.2044 8.75526 10.9936C8.75526 10.9487 8.75343 10.9037 8.74976 10.8597V10.8652V7.3095C8.73051 6.89058 8.62785 6.49917 8.45643 6.14808L8.46376 6.1655C8.3501 5.9235 8.21351 5.7145 8.05126 5.52842L8.05401 5.53208C7.90368 5.38175 7.80101 5.18467 7.76893 4.96467L7.76801 4.95917C7.76801 4.80333 7.83951 4.66308 7.95135 4.57142L7.95226 4.5705C8.06318 4.46875 8.21168 4.40733 8.37393 4.40733H8.38126H12.1818C12.2019 4.40458 12.2248 4.40367 12.2487 4.40367C12.4274 4.40367 12.5878 4.48433 12.6942 4.61083L12.6951 4.61175C12.7895 4.78408 12.8454 4.99033 12.8454 5.2085C12.8454 5.24333 12.8436 5.27725 12.8408 5.31117V5.30658V10.0485C12.839 10.0705 12.8381 10.0962 12.8381 10.1218C12.8381 10.2905 12.8848 10.4491 12.9655 10.5838L12.9637 10.5802C13.0306 10.6792 13.1424 10.7433 13.2689 10.7433C13.4303 10.7323 13.5778 10.6792 13.7016 10.5948L13.6988 10.5967C13.9482 10.4252 14.1627 10.23 14.3488 10.0091L14.3524 10.0045C14.9088 9.37567 15.4222 8.68083 15.8695 7.942L15.9053 7.87783C16.2206 7.35533 16.5616 6.71183 16.8705 6.05092L16.9273 5.91617L17.3362 5.0985C17.4783 4.68967 17.8596 4.40183 18.3078 4.40183C18.3253 4.40183 18.3427 4.40183 18.3601 4.40275H18.3573H20.7691C21.4205 4.40275 21.665 4.7025 21.5024 5.302H21.5015Z" fill="currentColor" />
</svg>
