<svg width="22" height="22" viewBox="0 0 22 22" fill="none" xmlns="http://www.w3.org/2000/svg">
<path d="M18.479 6.27C15.839 2.2 10.449 0.99 6.26903 3.52C2.19902 6.05 0.879025 11.55 3.51903 15.62L3.73903 15.95L2.85903 19.25L6.15903 18.37L6.48903 18.59C7.91903 19.36 9.45903 19.8 10.999 19.8C12.649 19.8 14.299 19.36 15.729 18.48C19.799 15.84 21.009 10.45 18.479 6.27ZM16.169 14.74C15.729 15.4 15.179 15.84 14.409 15.95C13.969 15.95 13.419 16.17 11.219 15.29C9.34903 14.41 7.80903 12.98 6.70903 11.33C6.04903 10.56 5.71903 9.57 5.60903 8.58C5.60903 7.7 5.93903 6.93 6.48903 6.38C6.70903 6.16 6.92903 6.05 7.14903 6.05H7.69903C7.91903 6.05 8.13903 6.05 8.24903 6.49C8.46903 7.04 9.01903 8.36 9.01903 8.47C9.12902 8.58 9.12902 8.8 9.01903 8.91C9.12902 9.13 9.01903 9.35 8.90903 9.46C8.79903 9.57 8.68903 9.79 8.57903 9.9C8.35903 10.01 8.24903 10.23 8.35903 10.45C8.79903 11.11 9.34903 11.77 9.89903 12.32C10.559 12.87 11.219 13.31 11.989 13.64C12.209 13.75 12.429 13.75 12.539 13.53C12.649 13.31 13.199 12.76 13.419 12.54C13.639 12.32 13.749 12.32 13.969 12.43L15.729 13.31C15.949 13.42 16.169 13.53 16.279 13.64C16.389 13.97 16.389 14.41 16.169 14.74Z" fill="currentColor" />
</svg>
