<svg width="60" height="60" viewBox="0 0 60 60" fill="none" xmlns="http://www.w3.org/2000/svg">
<path d="M11 14.5H13C15.8 14.5 18 12.3 18 9.5V6.5C18 3.7 15.8 1.5 13 1.5H11C8.2 1.5 6 3.7 6 6.5V9.5C6 12.3 8.2 14.5 11 14.5ZM8 6.5C8 4.8 9.3 3.5 11 3.5H13C14.7 3.5 16 4.8 16 6.5V9.5C16 11.2 14.7 12.5 13 12.5H11C9.3 12.5 8 11.2 8 9.5V6.5Z" fill="#D33E2E"/>
<path d="M22 29.5V36.5H24V22.5C24 18.6 20.9 15.5 17 15.5H7C3.1 15.5 0 18.6 0 22.5V36.5H2V29.5H5V57.5C5 58.1 5.4 58.5 6 58.5H12H18C18.6 58.5 19 58.1 19 57.5V29.5H22ZM17 23.5V56.5H13V38.5H15V36.5H9V38.5H11V56.5H7V23.5H5V27.5H2V22.5C2 19.7 4.2 17.5 7 17.5H11V27.5H13V17.5H17C19.8 17.5 22 19.7 22 22.5V27.5H19V23.5H17Z" fill="#D33E2E"/>
<path d="M59 1.5H21C20.4 1.5 20 1.9 20 2.5V11.5H22V3.5H58V39L40 53.2L21.6 38.7L20.4 40.3L39.4 55.3C39.6 55.4 39.8 55.5 40 55.5C40.2 55.5 40.4 55.4 40.6 55.3L59.6 40.3C59.9 40.1 60 39.8 60 39.5V2.5C60 1.9 59.6 1.5 59 1.5Z" fill="#D33E2E"/>
<path d="M27 5.5H25V7.5H27V5.5Z" fill="#D33E2E"/>
<path d="M31 5.5H29V7.5H31V5.5Z" fill="#D33E2E"/>
<path d="M35 5.5H33V7.5H35V5.5Z" fill="#D33E2E"/>
<path d="M39 5.5H37V7.5H39V5.5Z" fill="#D33E2E"/>
<path d="M43 5.5H41V7.5H43V5.5Z" fill="#D33E2E"/>
<path d="M47 5.5H45V7.5H47V5.5Z" fill="#D33E2E"/>
<path d="M51 5.5H49V7.5H51V5.5Z" fill="#D33E2E"/>
<path d="M55 5.5H53V7.5H55V5.5Z" fill="#D33E2E"/>
<path d="M27 9.5H25V11.5H27V9.5Z" fill="#D33E2E"/>
<path d="M31 9.5H29V11.5H31V9.5Z" fill="#D33E2E"/>
<path d="M35 9.5H33V11.5H35V9.5Z" fill="#D33E2E"/>
<path d="M39 9.5H37V11.5H39V9.5Z" fill="#D33E2E"/>
<path d="M43 9.5H41V11.5H43V9.5Z" fill="#D33E2E"/>
<path d="M47 9.5H45V11.5H47V9.5Z" fill="#D33E2E"/>
<path d="M51 9.5H49V11.5H51V9.5Z" fill="#D33E2E"/>
<path d="M55 9.5H53V11.5H55V9.5Z" fill="#D33E2E"/>
<path d="M40 42.5C46.1 42.5 51 37.6 51 31.5C51 25.4 46.1 20.5 40 20.5C33.9 20.5 29 25.4 29 31.5C29 37.6 33.9 42.5 40 42.5ZM40 22.5C45 22.5 49 26.5 49 31.5C49 36.5 45 40.5 40 40.5C35 40.5 31 36.5 31 31.5C31 26.5 35 22.5 40 22.5Z" fill="#D33E2E"/>
<path d="M37.9998 36.5C38.2998 36.5 38.4998 36.4 38.6998 36.2L45.6998 29.2L44.2998 27.8L37.9998 34.1L35.6998 31.8L34.2998 33.2L37.2998 36.2C37.4998 36.4 37.6998 36.5 37.9998 36.5Z" fill="#D33E2E"/>
<path d="M44 15.5H36V17.5H44V15.5Z" fill="#D33E2E"/>
</svg>
