<svg width="60" height="60" viewBox="0 0 60 60" fill="none" xmlns="http://www.w3.org/2000/svg">
<g clip-path="url(#clip0_35_2158)">
<path d="M24.9473 58.1053H4.73684C3.16969 58.1053 1.89469 56.8303 1.89469 55.2632C1.89469 53.696 3.16957 52.421 4.73684 52.421H11.0967C11.6736 52.421 12.2155 52.1959 12.6226 51.7874C13.0378 51.3707 13.2654 50.8143 13.2633 50.2238V50.2105C13.2633 48.6435 14.5382 47.3684 16.1054 47.3684H19.8949C20.4182 47.3684 20.8423 46.9444 20.8423 46.421C20.8423 45.8977 20.418 45.4737 19.8949 45.4737H16.1054C13.4934 45.4737 11.3686 47.5985 11.3686 50.2105V50.2271C11.3689 50.3438 11.3136 50.4168 11.2806 50.4501C11.2301 50.5007 11.1683 50.5264 11.0968 50.5264H4.73684C2.12484 50.5263 0 52.6512 0 55.2632C0 57.8752 2.12484 60 4.73684 60H24.9473C25.4706 60 25.8947 59.576 25.8947 59.0527C25.8947 58.5293 25.4706 58.1053 24.9473 58.1053Z" fill="#D33E2E"/>
<path d="M56.5262 13.8947H52.2074C51.8521 13.1486 51.0904 12.6315 50.2103 12.6315H43.8945C43.0144 12.6315 42.2528 13.1486 41.8974 13.8947H37.5787C37.0555 13.8947 36.6313 14.3188 36.6313 14.842C36.6313 15.3653 37.0556 15.7894 37.5787 15.7894H41.684V16.0477C41.684 17.8773 43.0307 19.3883 44.817 19.5622C45.0372 19.5837 45.2567 19.5844 45.4735 19.5645V23.6235C45.4735 25.5372 46.9441 27.0886 48.8215 27.1554C49.7719 27.1873 50.6749 26.8441 51.3594 26.1837C52.0439 25.5231 52.421 24.6353 52.421 23.6841V23.3682H55.4928L53.825 42.5495C53.7796 43.0706 54.1655 43.5301 54.6867 43.5754C54.7146 43.5778 54.7423 43.5789 54.7699 43.5789C55.256 43.5789 55.6698 43.2068 55.7125 42.7134L57.4045 23.2556C58.8959 22.8659 59.9998 21.5068 59.9998 19.8947V17.3684C59.9998 15.4531 58.4416 13.8947 56.5262 13.8947ZM50.526 14.8422V23.6844C50.526 24.1168 50.3546 24.5203 50.0433 24.8208C49.7323 25.1209 49.3229 25.2748 48.8886 25.2624C48.0502 25.2325 47.3681 24.4974 47.3681 23.6238V18.291C47.3681 17.9522 47.1874 17.6394 46.8939 17.4702C46.7474 17.3858 46.5841 17.3436 46.4207 17.3436C46.2568 17.3436 46.0928 17.3862 45.946 17.4713C45.6583 17.6379 45.3312 17.7091 45.0004 17.6768C44.2032 17.5991 43.5787 16.8837 43.5787 16.048V14.8423C43.5787 14.6681 43.7204 14.5265 43.8945 14.5265H50.2103C50.3844 14.5265 50.5262 14.668 50.5262 14.8423L50.526 14.8422ZM58.1051 19.8947C58.1051 20.7629 57.4008 21.4697 56.5334 21.4737C56.5273 21.4737 56.5215 21.4737 56.5153 21.4737H52.421V15.7895H56.5263C57.397 15.7895 58.1053 16.4978 58.1053 17.3685V19.8947H58.1051Z" fill="#D33E2E"/>
<path d="M42.6313 23.3685C43.1546 23.3685 43.5787 22.9445 43.5787 22.4212C43.5787 21.8978 43.1545 21.4738 42.6313 21.4738H37.5787C37.0555 21.4738 36.6313 21.8978 36.6313 22.4212C36.6313 22.9445 37.0556 23.3685 37.5787 23.3685H42.6313Z" fill="#D33E2E"/>
<path d="M58.4923 48.4316C56.5726 45.1536 53.0129 42.9473 48.9475 42.9473H41.3686C40.4979 42.9473 39.7896 42.2391 39.7896 41.3684V40.1052C39.7896 39.7661 39.7399 39.43 39.6436 39.1078C40.498 38.4743 41.0527 37.4586 41.0527 36.3157C41.0527 34.4004 39.4945 32.842 37.5791 32.842H36.0002V32.5262C36.0002 31.646 35.4833 30.8844 34.737 30.529V3.47367C34.737 1.55836 33.1788 0 31.2634 0C29.3479 0 27.7897 1.55836 27.7897 3.47367V13.8947H16.1055C14.1901 13.8947 12.6318 15.453 12.6318 17.3684V19.8947C12.6318 21.5067 13.7357 22.8657 15.2271 23.256L16.919 42.7137C16.9644 43.2352 17.4233 43.623 17.945 43.5754C18.4662 43.5301 18.852 43.0707 18.8067 42.5495L17.1389 23.3685H27.7897V30.5292C27.0434 30.8846 26.5265 31.6462 26.5265 32.5264V32.8423H24.9475C23.0321 32.8423 21.4739 34.4006 21.4739 36.3159C21.4739 37.4589 22.0286 38.4745 22.883 39.108C22.7867 39.4301 22.737 39.7662 22.737 40.1054V48.9476C22.737 55.042 27.6952 60.0002 33.7897 60.0002H57.7897C59.0086 60.0002 60.0002 59.0085 60.0002 57.7897V54C60.0002 52.0055 59.469 50.1326 58.541 48.5154C58.5262 48.4866 58.5099 48.4587 58.4923 48.4316ZM29.6844 3.47367C29.6844 2.60297 30.3927 1.89469 31.2634 1.89469C32.1341 1.89469 32.8423 2.60297 32.8423 3.47367V30.3158H29.6845V3.47367H29.6844ZM16.1164 21.4737C16.1103 21.4738 16.1041 21.4738 16.0982 21.4737C15.2309 21.4698 14.5265 20.763 14.5265 19.8947V17.3684C14.5265 16.4977 15.2348 15.7894 16.1055 15.7894H27.7897V21.4736H16.1164V21.4737ZM58.1055 57.7895C58.1055 57.9636 57.9638 58.1053 57.7897 58.1053H43.8949C38.8452 58.1053 34.737 53.9972 34.737 48.9475V42.6316C34.737 42.1083 34.3128 41.6843 33.7897 41.6843C33.2664 41.6843 32.8423 42.1083 32.8423 42.6316V48.9475C32.8423 52.6996 34.7217 56.021 37.5884 58.0199C33.13 57.4068 29.6845 53.5718 29.6845 48.9475V42.6316C29.6845 42.1083 29.2603 41.6843 28.7371 41.6843C28.2139 41.6843 27.7898 42.1083 27.7898 42.6316V48.9475C27.7898 52.6996 29.6691 56.021 32.5359 58.0201C28.0775 57.407 24.632 53.572 24.632 48.9477V40.1055C24.632 39.9952 24.6436 39.8855 24.6661 39.7784C24.7589 39.786 24.853 39.7897 24.9478 39.7897H32.5268C33.05 39.7897 33.4741 39.3657 33.4741 38.8424C33.4741 38.319 33.0499 37.895 32.5268 37.895H24.9478C24.0771 37.895 23.3688 37.1868 23.3688 36.3161C23.3688 35.4454 24.0771 34.7371 24.9478 34.7371H27.4741C27.9973 34.7371 28.4214 34.3131 28.4214 33.7897V32.5266C28.4214 32.3524 28.5631 32.2107 28.7373 32.2107H33.7899C33.9639 32.2107 34.1057 32.3523 34.1057 32.5266V33.7897C34.1057 34.3131 34.53 34.7371 35.0531 34.7371H37.5794C38.4501 34.7371 39.1584 35.4454 39.1584 36.3161C39.1584 37.1868 38.4501 37.895 37.5794 37.895H36.3162C35.793 37.895 35.3689 38.319 35.3689 38.8424C35.3689 39.3657 35.7931 39.7897 36.3162 39.7897H37.5794C37.6741 39.7897 37.7681 39.786 37.8611 39.7784C37.8837 39.8855 37.8952 39.9952 37.8952 40.1055V41.3687C37.8952 43.284 39.4535 44.8424 41.3689 44.8424H48.9479C51.7045 44.8424 54.1807 46.0669 55.861 48.0002H43.8949C42.3414 48.0002 40.8073 47.6045 39.4583 46.8559C39.0008 46.6022 38.424 46.767 38.1703 47.2246C37.9163 47.682 38.0814 48.2586 38.5389 48.5125C40.1686 49.4168 42.0206 49.8947 43.8949 49.8947H57.1329C57.62 50.8622 57.9407 51.9277 58.0569 53.0525H43.895C42.3417 53.0525 40.8077 52.6569 39.4587 51.9083C39.0011 51.6543 38.4246 51.8197 38.1707 52.2771C37.9168 52.7346 38.0819 53.3113 38.5394 53.565C40.1688 54.4692 42.0207 54.947 43.8949 54.947H58.1054V57.7895H58.1055Z" fill="#D33E2E"/>
<path d="M53.1717 1.17157L56.0001 2.08L58.8285 1.17157L57.9201 4L58.8285 6.82843L56.0001 5.92L53.1717 6.82843L54.0801 4L53.1717 1.17157Z" fill="#D33E2E"/>
<path d="M41.2235 1.1022L42.7199 2.75291L44.8977 3.22353L43.247 4.71998L42.7764 6.89776L41.2799 5.24706L39.1021 4.77644L40.7528 3.27998L41.2235 1.1022Z" fill="#D33E2E"/>
<path d="M48.8896 7.54297L50.0996 9.89941L52.457 11.1104L54.1885 12L52.457 12.8896L50.0996 14.0996L48.8896 16.457L48 18.1885L47.1104 16.457L45.8994 14.0996L43.543 12.8896L41.8115 12L43.543 11.1104L45.8994 9.89941L47.1104 7.54297L48 5.81152L48.8896 7.54297Z" fill="#D33E2E" stroke="white" stroke-width="2"/>
</g>
<defs>
<clipPath id="clip0_35_2158">
<rect width="60" height="60" fill="white"/>
</clipPath>
</defs>
</svg>
