<svg width="60" height="60" viewBox="0 0 60 60" fill="none" xmlns="http://www.w3.org/2000/svg">
<path fill-rule="evenodd" clip-rule="evenodd" d="M12.0497 21.9225C11.0747 21.6113 8.94188 21.1472 7.21406 22.3013C5.87625 23.1947 4.66969 25.1016 4.66594 29.0625H3.75C3.2325 29.0625 2.8125 29.4825 2.8125 30V45.9375C2.8125 46.455 3.2325 46.875 3.75 46.875H5.625C6.37125 46.875 7.08656 46.5788 7.61344 46.051C8.14125 45.5241 8.4375 44.8088 8.4375 44.0625V40.7813H12.6563C13.5413 40.7813 14.3325 40.3716 14.8472 39.7313C14.8959 39.6985 14.9419 39.66 14.985 39.6169L25.3472 29.2547L42.0038 33.7182C42.5034 33.8522 43.0172 33.555 43.1513 33.0553L43.5497 31.5703L46.8094 32.4432C48.3103 32.8453 49.8525 31.9557 50.2538 30.4547L51.3009 26.5491L55.1709 22.9435C55.6716 22.4766 55.8806 21.7744 55.7147 21.1107C55.5497 20.446 55.0369 19.9228 54.375 19.7457L14.0672 8.91847C13.5872 8.78909 13.0753 8.85659 12.6441 9.10503C12.2128 9.35347 11.8988 9.76315 11.7703 10.2432L9.45 18.9C9.31688 19.4007 9.61313 19.9144 10.1128 20.0485L12.4219 20.6672L12.0497 21.9225ZM5.61938 30.9375H4.6875V45H5.625C5.87344 45 6.1125 44.9016 6.28781 44.7253C6.46406 44.55 6.5625 44.311 6.5625 44.0625V31.875C6.5625 31.6266 6.46406 31.3875 6.28781 31.2122C6.1125 31.0369 5.87438 30.9375 5.62688 30.9375C5.62406 30.9375 5.62125 30.9375 5.61938 30.9375ZM8.4375 37.0313V38.9063H10.0041C9.9 38.6128 9.84375 38.2978 9.84375 37.9688C9.84375 37.6397 9.9 37.3247 10.0041 37.0313H8.4375ZM12.6563 37.0313C13.1738 37.0313 13.5938 37.4513 13.5938 37.9688C13.5938 38.4863 13.1738 38.9063 12.6563 38.9063C12.1388 38.9063 11.7188 38.4863 11.7188 37.9688C11.7188 37.4513 12.1388 37.0313 12.6563 37.0313ZM15.1941 36.7566L23.2556 28.695L21.165 28.1344L13.8684 35.431C14.4478 35.7075 14.9175 36.1772 15.1941 36.7566ZM11.5209 23.7066C10.9209 23.4825 9.4425 23.0682 8.25469 23.8613C7.21313 24.5569 6.50531 26.1141 6.54 29.2153C6.94031 29.3532 7.30875 29.581 7.61344 29.8866C8.14125 30.4135 8.4375 31.1288 8.4375 31.875V35.1563H11.4909L19.0734 27.5738L11.9447 25.6641C11.7009 25.5985 11.4928 25.4372 11.3691 25.2169C11.2463 24.9957 11.2172 24.735 11.2884 24.4922L11.5209 23.7066ZM14.2331 21.1528L13.3594 24.1022L41.5828 31.6641L43.3397 25.1082L40.6209 24.3797L38.2519 27.0516C38.0166 27.3169 37.6509 27.4275 37.3078 27.3357L14.2331 21.1528ZM49.3163 26.7094L48.4434 29.9691C48.3094 30.4697 47.7947 30.7669 47.295 30.6328L44.0344 29.7591L45.1509 25.5928L49.3163 26.7094ZM50.2059 25.0069L53.8931 21.5719C53.895 21.5691 53.8959 21.5663 53.8959 21.5625C53.895 21.5597 53.8922 21.5569 53.8894 21.556L13.5816 10.7288L11.5041 18.48L12.6 18.7744C12.6103 18.7763 12.6206 18.7791 12.6309 18.7819L37.2338 25.3744L39.6028 22.7016C39.8381 22.4363 40.2038 22.3266 40.5469 22.4185L50.2059 25.0069ZM26.3016 17.01C26.9616 17.1863 27.3534 17.866 27.1772 18.525C27 19.185 26.3213 19.5769 25.6613 19.4007C25.0013 19.2235 24.6094 18.5447 24.7866 17.8847C24.9628 17.2247 25.6416 16.8328 26.3016 17.01ZM21.5203 15.7285C22.1803 15.9057 22.5722 16.5844 22.395 17.2444C22.2188 17.9035 21.5391 18.2963 20.88 18.1191C20.22 17.9428 19.8281 17.2632 20.0044 16.6032C20.1816 15.9441 20.8603 15.5513 21.5203 15.7285ZM16.7391 14.4469C17.3991 14.6241 17.7909 15.3028 17.6138 15.9628C17.4375 16.6228 16.7578 17.0147 16.0988 16.8385C15.4388 16.6613 15.0469 15.9825 15.2231 15.3225C15.4003 14.6625 16.0791 14.2707 16.7391 14.4469Z" fill="#D33E2E"/>
</svg>
