<svg width="60" height="60" viewBox="0 0 60 60" fill="none" xmlns="http://www.w3.org/2000/svg">
<g clip-path="url(#clip0_35_2129)">
<path d="M31.9988 9.02124H28.0005V11.0204H31.9988V9.02124Z" fill="#D33E2E"/>
<path d="M34.9978 13.0196H25.002V15.0188H34.9978V13.0196Z" fill="#D33E2E"/>
<path d="M13.0078 27.0137H11.0078V29.0137H13.0078V27.0137Z" fill="#D33E2E"/>
<path d="M48.9927 27.0137H46.9927V29.0137H48.9927V27.0137Z" fill="#D33E2E"/>
<path d="M48.9927 31.0121H46.9927V33.0121H48.9927V31.0121Z" fill="#D33E2E"/>
<path d="M48.9927 35.0104H46.9927V37.0104H48.9927V35.0104Z" fill="#D33E2E"/>
<path d="M48.9927 39.0087H46.9927V41.0087H48.9927V39.0087Z" fill="#D33E2E"/>
<path d="M48.9927 43.0071H46.9927V45.0071H48.9927V43.0071Z" fill="#D33E2E"/>
<path d="M13.0078 31.0121H11.0078V33.0121H13.0078V31.0121Z" fill="#D33E2E"/>
<path d="M13.0078 35.0104H11.0078V37.0104H13.0078V35.0104Z" fill="#D33E2E"/>
<path d="M13.0078 39.0087H11.0078V41.0087H13.0078V39.0087Z" fill="#D33E2E"/>
<path d="M13.0078 43.0071H11.0078V45.0071H13.0078V43.0071Z" fill="#D33E2E"/>
<path d="M58.9876 33.0112H52.9901V25.0146H55.9889C56.5886 25.0146 56.9885 24.6147 56.9885 24.015V20.3165C56.9885 20.0167 56.8885 19.7168 56.5886 19.5169L30.5995 0.224906C30.1996 -0.0749688 29.7998 -0.0749688 29.4 0.224906L4.1105 19.0171H4.01054V19.117L3.41079 19.5169C3.11092 19.7168 3.01096 20.0167 3.01096 20.3165V24.015C3.01096 24.6147 3.41079 25.0146 4.01054 25.0146H7.00929V33.0112H1.01179C0.41204 33.0112 0.012207 33.4111 0.012207 34.0108V53.0029H2.01137V40.0083H7.00929V53.0029H9.00846V49.0046H15.006V52.0033C15.006 52.4032 15.2059 52.703 15.6057 52.903L29.5999 59.9C29.6998 60 29.7998 60 29.9997 60C30.1996 60 30.2996 60 30.3995 59.9L44.3937 52.903C44.7935 52.703 44.9935 52.4032 44.9935 52.0033V49.0046H50.991V53.0029H52.9901V40.0083H57.988V53.0029H59.9872V34.0108C59.9872 33.4111 59.5874 33.0112 58.9876 33.0112ZM5.01012 21.0162H44.9935V19.0171H7.40912L29.9997 2.22407L54.9893 20.8163V23.0154H51.9905H8.00887H5.01012V21.0162ZM2.01137 38.0092V35.0104H7.00929V38.0092H2.01137ZM42.9943 51.4036L29.9997 57.9009L17.0051 51.4036V29.0129H42.9943V51.4036ZM44.9935 47.0054V28.0133C44.9935 27.4136 44.5936 27.0137 43.9939 27.0137H16.0055C15.4058 27.0137 15.006 27.4136 15.006 28.0133V47.0054H9.00846V25.0146H50.991V47.0054H44.9935ZM52.9901 38.0092V35.0104H57.988V38.0092H52.9901Z" fill="#D33E2E"/>
<path d="M29.9996 52.0033C34.3978 52.0033 37.9963 48.4048 37.9963 44.0067C37.9963 39.6085 34.3978 36.01 29.9996 36.01C25.6014 36.01 22.0029 39.6085 22.0029 44.0067C22.0029 48.4048 25.6014 52.0033 29.9996 52.0033ZM29.9996 38.0092C33.2982 38.0092 35.9971 40.7081 35.9971 44.0067C35.9971 47.3053 33.2982 50.0042 29.9996 50.0042C26.701 50.0042 24.0021 47.3053 24.0021 44.0067C24.0021 40.7081 26.702 38.0092 29.9996 38.0092Z" fill="#D33E2E"/>
<path d="M29.0001 47.0054C29.3 47.0054 29.4999 46.9055 29.6999 46.7055L33.6982 42.7072L32.2988 41.3078L29.0001 44.6064L27.7007 43.307L26.3013 44.7064L28.3004 46.7055C28.5004 46.9055 28.7013 47.0054 29.0001 47.0054Z" fill="#D33E2E"/>
<path d="M21.0044 31.0121H19.0044V33.0121H21.0044V31.0121Z" fill="#D33E2E"/>
<path d="M25.0024 31.0121H23.0024V33.0121H25.0024V31.0121Z" fill="#D33E2E"/>
<path d="M29.001 31.0121H27.001V33.0121H29.001V31.0121Z" fill="#D33E2E"/>
<path d="M32.9995 31.0121H30.9995V33.0121H32.9995V31.0121Z" fill="#D33E2E"/>
<path d="M36.9976 31.0121H34.9976V33.0121H36.9976V31.0121Z" fill="#D33E2E"/>
<path d="M40.9961 31.0121H38.9961V33.0121H40.9961V31.0121Z" fill="#D33E2E"/>
</g>
<defs>
<clipPath id="clip0_35_2129">
<rect width="60" height="60" fill="white"/>
</clipPath>
</defs>
</svg>
