<svg width="18" height="18" viewBox="0 0 18 18" fill="none" xmlns="http://www.w3.org/2000/svg">
<path d="M5.57285 1.48317C5.57285 1.16455 5.30207 0.90625 4.96805 0.90625C4.63403 0.90625 4.36326 1.16455 4.36326 1.48317V2.69799C3.20259 2.78664 2.44063 3.00423 1.88083 3.53823C1.32103 4.07223 1.09294 4.79907 1 5.90625H17C16.9071 4.79907 16.679 4.07223 16.1192 3.53823C15.5594 3.00423 14.7974 2.78664 13.6368 2.69799V1.48317C13.6368 1.16455 13.366 0.90625 13.032 0.90625C12.698 0.90625 12.4272 1.16455 12.4272 1.48317V2.64694C11.8907 2.63702 11.2894 2.63702 10.6128 2.63702H7.38723C6.71064 2.63702 6.10931 2.63702 5.57285 2.64694V1.48317Z" fill="#E6311D"/>
<path fill-rule="evenodd" clip-rule="evenodd" d="M1 8.74298C1 8.05809 1 7.44935 1.01032 6.90625H16.9897C17 7.44935 17 8.05809 17 8.74298V10.3756C17 13.4542 17 14.9935 16.0627 15.9498C15.1255 16.9062 13.617 16.9062 10.6 16.9062H7.4C4.38301 16.9062 2.87452 16.9062 1.93726 15.9498C1 14.9935 1 13.4542 1 10.3756V8.74298ZM13 10.3756C13.4418 10.3756 13.8 10.0102 13.8 9.55931C13.8 9.10845 13.4418 8.74298 13 8.74298C12.5582 8.74298 12.2 9.10845 12.2 9.55931C12.2 10.0102 12.5582 10.3756 13 10.3756ZM13 13.6409C13.4418 13.6409 13.8 13.2755 13.8 12.8246C13.8 12.3738 13.4418 12.0083 13 12.0083C12.5582 12.0083 12.2 12.3738 12.2 12.8246C12.2 13.2755 12.5582 13.6409 13 13.6409ZM9.8 9.55931C9.8 10.0102 9.44184 10.3756 9 10.3756C8.55816 10.3756 8.2 10.0102 8.2 9.55931C8.2 9.10845 8.55816 8.74298 9 8.74298C9.44184 8.74298 9.8 9.10845 9.8 9.55931ZM9.8 12.8246C9.8 13.2755 9.44184 13.6409 9 13.6409C8.55816 13.6409 8.2 13.2755 8.2 12.8246C8.2 12.3738 8.55816 12.0083 9 12.0083C9.44184 12.0083 9.8 12.3738 9.8 12.8246ZM5 10.3756C5.44182 10.3756 5.8 10.0102 5.8 9.55931C5.8 9.10845 5.44182 8.74298 5 8.74298C4.55818 8.74298 4.2 9.10845 4.2 9.55931C4.2 10.0102 4.55818 10.3756 5 10.3756ZM5 13.6409C5.44182 13.6409 5.8 13.2755 5.8 12.8246C5.8 12.3738 5.44182 12.0083 5 12.0083C4.55818 12.0083 4.2 12.3738 4.2 12.8246C4.2 13.2755 4.55818 13.6409 5 13.6409Z" fill="#E6311D"/>
</svg>
