<svg width="50" height="50" viewBox="0 0 50 50" fill="none" xmlns="http://www.w3.org/2000/svg">
<g clip-path="url(#clip0_89_6880)">
<path d="M36.9539 0H20.341H19.0543L18.1447 0.90957L5.56787 13.4865L4.6582 14.3961V15.6828V41.6118C4.6582 46.2369 8.4207 50.0001 13.0465 50.0001H36.9539C41.5789 50.0001 45.3414 46.2369 45.3414 41.6118V8.38818C45.3414 3.7625 41.5789 0 36.9539 0ZM42.2355 41.6117C42.2355 44.5294 39.8709 46.8941 36.9539 46.8941H13.0465C10.1288 46.8941 7.76416 44.5294 7.76416 41.6117V15.6827H15.9396C18.3697 15.6827 20.341 13.7121 20.341 11.2813V3.10586H36.9539C39.8709 3.10586 42.2355 5.47051 42.2355 8.38818V41.6117Z" fill="#D33E2E"/>
<path d="M35.8216 9.09863H27.0938V17.8265H35.8216V9.09863Z" fill="#D33E2E"/>
<path d="M35.8227 22.7139H14.1777V25.1576H35.8227V22.7139Z" fill="#D33E2E"/>
<path d="M35.8227 29.6963H14.1777V32.14H35.8227V29.6963Z" fill="#D33E2E"/>
<path d="M35.8227 36.6787H14.1777V39.1225H35.8227V36.6787Z" fill="#D33E2E"/>
</g>
<defs>
<clipPath id="clip0_89_6880">
<rect width="50" height="50" fill="white"/>
</clipPath>
</defs>
</svg>
