<svg width="50" height="50" viewBox="0 0 50 50" fill="none" xmlns="http://www.w3.org/2000/svg">
<path d="M30.1049 11.0504H36.5086L36.5092 18.5214L39.7557 13.4806V9.25512C39.7557 8.99702 39.653 8.74952 39.4705 8.56619L31.1891 0.285119C31.0066 0.102738 30.759 0 30.5004 0H4.89492C3.28373 0 1.97266 1.31048 1.97266 2.92179V47.0782C1.97266 48.6894 3.28361 50 4.89492 50H36.8334C38.4444 50 39.7554 48.6894 39.7554 47.0782V34.5417L36.5097 39.5085L36.5102 46.753H5.21956V3.2469H28.8988V9.84417C28.8988 10.5107 29.4387 11.0504 30.1049 11.0504Z" fill="#D33E2E"/>
<path d="M43.3803 23.2293L42.0385 22.3526C41.8195 22.2096 41.5263 22.271 41.383 22.49L34.1583 33.5455L32.769 32.6377L39.9938 21.5821C40.137 21.363 40.0755 21.0698 39.8565 20.9267L38.5147 20.0499C38.2957 19.9068 38.0022 19.9682 37.8592 20.1873L27.0415 36.7412C26.9955 36.8115 26.9692 36.8929 26.9649 36.9768L26.6822 42.7218C26.674 42.8895 26.7553 43.0496 26.8961 43.1412C27.037 43.2332 27.2161 43.2436 27.3663 43.1687L32.5142 40.6029C32.5897 40.5656 32.6535 40.5085 32.6997 40.438L43.5172 23.8842C43.6608 23.6658 43.5991 23.3725 43.3803 23.2293Z" fill="#D33E2E"/>
<path d="M47.8129 16.4461L42.9476 13.2666C42.7287 13.1236 42.4352 13.1851 42.2921 13.404L39.0108 18.4253C38.8678 18.6443 38.9291 18.9379 39.1481 19.081L44.0135 22.2603C44.2323 22.4034 44.526 22.342 44.669 22.1229L47.9502 17.1017C48.0935 16.8827 48.032 16.5892 47.8129 16.4461Z" fill="#D33E2E"/>
<path d="M9.94829 10.4122H19.234C19.8915 10.4122 20.4245 9.87911 20.4245 9.22173C20.4245 8.56435 19.8915 8.03125 19.234 8.03125H9.94829C9.29079 8.03125 8.75781 8.56435 8.75781 9.22173C8.75781 9.87911 9.29103 10.4122 9.94829 10.4122Z" fill="#D33E2E"/>
<path d="M27.5673 15.1739C27.5673 14.5165 27.0341 13.9834 26.3769 13.9834H9.94829C9.29079 13.9834 8.75781 14.5165 8.75781 15.1739C8.75781 15.8313 9.29079 16.3644 9.94829 16.3644H26.3769C27.0344 16.3644 27.5673 15.8313 27.5673 15.1739Z" fill="#D33E2E"/>
<path d="M9.94829 22.3165H19.234C19.8915 22.3165 20.4245 21.7834 20.4245 21.126C20.4245 20.4686 19.8915 19.9355 19.234 19.9355H9.94829C9.29079 19.9355 8.75781 20.4686 8.75781 21.126C8.75781 21.7834 9.29103 22.3165 9.94829 22.3165Z" fill="#D33E2E"/>
<path d="M9.94829 28.2696H19.234C19.8915 28.2696 20.4245 27.7365 20.4245 27.0791C20.4245 26.4219 19.8915 25.8887 19.234 25.8887H9.94829C9.29079 25.8887 8.75781 26.4219 8.75781 27.0791C8.75781 27.7365 9.29103 28.2696 9.94829 28.2696Z" fill="#D33E2E"/>
<path d="M10.4524 43.6541C10.2206 43.9536 10.6387 44.3782 10.8733 44.0747C11.613 43.1192 12.2238 42.0901 12.7339 41.0039C13.0523 41.2038 13.4702 41.1638 13.8131 41.0283C14.3073 40.8334 14.7262 40.4573 15.1251 40.117C15.361 39.9158 15.6355 39.5835 15.9619 39.5517C16.2112 39.5278 16.5479 39.7285 16.797 39.7713C17.4481 39.8822 18.2086 39.6938 18.8371 39.5384C19.4337 39.3912 20.1323 39.1582 20.4833 38.6181C20.6932 38.2952 20.1776 37.9971 19.9694 38.3179C19.6883 38.7503 19.002 38.8851 18.5382 38.9996C17.9938 39.1342 17.3621 39.267 16.8011 39.1713C16.3782 39.0994 16.0362 38.8436 15.6014 39.0373C15.019 39.2969 14.5742 39.8422 14.0599 40.2104C13.8298 40.3752 13.5668 40.5335 13.2789 40.5558C13.1605 40.565 13.0639 40.5215 12.9837 40.4491C13.047 40.3022 13.1099 40.1546 13.1698 40.0057C13.7502 38.5647 14.0127 37.1014 14.2821 35.5835C14.419 34.8122 14.6468 33.5969 13.5413 33.5227C12.5645 33.4575 11.7204 34.8664 11.4082 35.6089C11.129 36.2729 11.098 37.0444 11.1193 37.7534C11.1325 38.1953 11.2915 38.6541 11.4088 39.111C10.4714 39.2614 9.64524 40.2082 9.79 41.1467C9.9325 42.0703 11.0874 41.5934 11.5187 41.2516C11.9552 40.9058 12.0965 40.4738 12.1012 40.0078C12.1882 40.1513 12.261 40.3233 12.3362 40.4842C11.8332 41.6125 11.2026 42.6848 10.4524 43.6541ZM11.4957 40.285C11.4076 40.6776 10.9108 41.0652 10.5196 41.1014C10.2119 41.13 10.3996 40.5803 10.4605 40.4575C10.6514 40.0715 11.1245 39.8196 11.5223 39.711C11.5408 39.9047 11.5379 40.0966 11.4957 40.285ZM11.9929 39.1325C11.8915 38.6591 11.751 38.1838 11.7145 37.7535C11.644 36.9232 11.7915 36.0531 12.2033 35.3269C12.4606 34.8731 12.985 34.1776 13.5413 34.1181C14.0381 34.0652 13.7351 35.2734 13.6921 35.5161C13.5592 36.2654 13.4643 37.0091 13.2789 37.7498C13.1068 38.4377 12.8887 39.1189 12.6279 39.785C12.4892 39.4398 12.3086 39.2189 11.9929 39.1325Z" fill="#D33E2E"/>
</svg>
