<svg width="18" height="18" viewBox="0 0 18 18" fill="none" xmlns="http://www.w3.org/2000/svg">
<path d="M9 0C5.27231 0 2.25 3.02231 2.25 6.75C2.25 8.21784 2.73122 9.56475 3.53109 10.6678C3.54544 10.6943 3.54769 10.7238 3.564 10.7491L8.064 17.4991C8.27269 17.8121 8.62425 18 9 18C9.37575 18 9.72731 17.8121 9.936 17.4991L14.436 10.7491C14.4526 10.7238 14.4546 10.6943 14.4689 10.6678C15.2688 9.56475 15.75 8.21784 15.75 6.75C15.75 3.02231 12.7277 0 9 0ZM9 9C7.75744 9 6.75 7.99256 6.75 6.75C6.75 5.50744 7.75744 4.5 9 4.5C10.2426 4.5 11.25 5.50744 11.25 6.75C11.25 7.99256 10.2426 9 9 9Z" fill="#E6311D"/>
</svg>
