<svg width="70" height="70" viewBox="0 0 70 70" fill="none" xmlns="http://www.w3.org/2000/svg">
<path fill-rule="evenodd" clip-rule="evenodd" d="M25.8983 10.9668C30.2875 10.9668 33.843 14.5068 33.843 18.877C33.843 23.2471 30.2875 26.7871 25.8983 26.7871C21.5091 26.7871 17.9536 23.2471 17.9536 18.877C17.9536 14.5068 21.5091 10.9668 25.8983 10.9668ZM18.4636 33.0566C17.929 33.0566 17.4926 32.6221 17.4926 32.0801C17.4926 31.5381 17.9241 31.1035 18.4636 31.1035H33.2398C33.7743 31.1035 34.2108 31.5381 34.2108 32.0801C34.2108 32.6221 33.7792 33.0566 33.2398 33.0566H18.4636ZM37.011 33.0566C36.4765 33.0566 36.04 32.6221 36.04 32.0801C36.04 31.5381 36.4716 31.1035 37.011 31.1035H52.9495C53.484 31.1035 53.9205 31.5381 53.9205 32.0801C53.9205 32.6221 53.4889 33.0566 52.9495 33.0566H37.011ZM10.7935 64.5752C10.4551 64.4189 10.2148 64.082 10.2148 63.6816V5.97656C10.2148 5.43945 10.6513 5 11.1957 5H20.7097H59.8054C60.3449 5 60.7863 5.43457 60.7863 5.97656V58.5791C60.7863 58.6328 60.7814 58.6816 60.7765 58.7305C60.6391 60.6494 60.0114 62.1436 58.8835 63.2129C57.7555 64.2773 56.1715 64.873 54.1166 64.9902C54.0725 64.9951 54.0333 65 53.9891 65H11.6027C11.2692 65 10.9701 64.8291 10.7935 64.5752ZM58.8295 58.5547V6.94824H20.7097H12.1716V63.0518H53.9842H54.0039C55.5781 62.9639 56.7551 62.5439 57.5348 61.8066C58.3048 61.0791 58.7314 59.9902 58.8295 58.5547ZM18.4636 48.9795C17.929 48.9795 17.4926 48.5449 17.4926 48.0029C17.4926 47.4658 17.9241 47.0264 18.4636 47.0264H53.0377C53.5723 47.0264 54.0088 47.4609 54.0088 48.0029C54.0088 48.54 53.5772 48.9795 53.0377 48.9795H18.4636ZM18.6205 41.0205C18.086 41.0205 17.6495 40.5859 17.6495 40.0439C17.6495 39.502 18.0811 39.0674 18.6205 39.0674H52.9495C53.484 39.0674 53.9205 39.502 53.9205 40.0439C53.9205 40.5859 53.4889 41.0205 52.9495 41.0205H18.6205ZM38.6147 25.0977C38.0801 25.0977 37.6437 24.6631 37.6437 24.1211C37.6437 23.584 38.0752 23.1445 38.6147 23.1445H52.9495C53.484 23.1445 53.9205 23.5791 53.9205 24.1211C53.9205 24.6582 53.4889 25.0977 52.9495 25.0977H38.6147ZM44.7743 56.9385C44.2397 56.9385 43.8033 56.5039 43.8033 55.9619C43.8033 55.4248 44.2348 54.9854 44.7743 54.9854H52.9544C53.4889 54.9854 53.9254 55.4199 53.9254 55.9619C53.9254 56.499 53.4938 56.9385 52.9544 56.9385H44.7743ZM44.7743 17.1387C44.2397 17.1387 43.8033 16.7041 43.8033 16.1621C43.8033 15.625 44.2348 15.1855 44.7743 15.1855H52.9544C53.4889 15.1855 53.9254 15.6201 53.9254 16.1621C53.9254 16.6992 53.4938 17.1387 52.9544 17.1387H44.7743ZM22.3624 19.6777C22.2643 19.5898 22.2055 19.4629 22.2005 19.3311C22.1956 19.2041 22.2349 19.0771 22.3281 18.9697C22.3281 18.9697 22.3281 18.9648 22.333 18.9648C22.4212 18.8672 22.5487 18.8086 22.6812 18.8037C22.8087 18.7988 22.9411 18.8379 23.0441 18.9355L24.7213 20.4492L28.7378 16.2598C28.8309 16.1621 28.9584 16.1084 29.0909 16.1035C29.2233 16.0986 29.3459 16.1426 29.4489 16.2451C29.5469 16.3379 29.6009 16.4648 29.6058 16.5967C29.6107 16.7285 29.5666 16.8506 29.4636 16.958L25.1038 21.499L25.094 21.5088C25.0057 21.5967 24.8782 21.6504 24.7556 21.6553C24.6281 21.6602 24.5006 21.6162 24.3976 21.5234L22.3624 19.6875V19.6777Z" fill="#E6311D"/>
</svg>
