<svg width="70" height="70" viewBox="0 0 70 70" fill="none" xmlns="http://www.w3.org/2000/svg">
<path d="M39.8368 21.2064C40.2223 21.2041 40.606 21.2594 40.9761 21.3705C41.231 21.4471 41.4774 21.5512 41.711 21.6812V20.9895C41.7002 20.4619 41.7932 19.9375 41.9844 19.4479C42.1819 18.9594 42.4703 18.5154 42.8332 18.1407C43.1968 17.7695 43.6287 17.4766 44.1035 17.2791C44.5686 17.0763 45.0682 16.9707 45.5733 16.9684C45.9601 16.9717 46.3441 17.0349 46.7126 17.156C46.9825 17.244 47.2422 17.3619 47.4873 17.5077V17.0153C47.5098 16.4837 47.6337 15.9619 47.8519 15.4795C48.0452 14.993 48.3276 14.5493 48.6836 14.1724C49.0448 13.7994 49.4748 13.5044 49.9483 13.3048C50.4197 13.1039 50.9249 13.0003 51.4351 13C52.4688 12.9996 53.4604 13.4213 54.1923 14.1724C54.5544 14.5477 54.8426 14.9916 55.0411 15.4795C55.2385 15.9659 55.3392 16.4881 55.3373 17.0153V17.5194C55.5781 17.3818 55.832 17.2698 56.0949 17.1853C56.9611 16.9045 57.8961 16.9502 58.7325 17.3142C59.4464 17.6178 60.0569 18.1323 60.4868 18.7927C60.9167 19.4531 61.1467 20.2298 61.1478 21.0247V38.8676C61.1706 39.0239 61.1877 39.1821 61.1991 39.3424C61.2076 39.5064 61.2076 39.6707 61.1991 39.8347V40.4737C61.6092 40.0751 61.9909 39.6823 62.2473 39.4186L62.4808 39.1841C63.1385 38.4702 63.956 37.9329 64.862 37.619C65.664 37.3387 66.532 37.3284 67.34 37.5897C67.6542 37.689 67.9534 37.833 68.2287 38.0176C68.5062 38.197 68.7574 38.4161 68.975 38.6683C69.1998 38.9207 69.3913 39.2026 69.5446 39.5065C69.6972 39.8069 69.812 40.1259 69.8864 40.4561C70.0944 41.3976 70.0148 42.3823 69.6586 43.2755C69.2555 44.2687 68.6334 45.1517 67.8413 45.8547L67.8015 45.8957C67.3742 46.3353 66.8046 46.9684 66.1324 47.707C63.3239 50.8078 58.7894 55.8019 55.8785 57.0036C53.5201 57.9707 49.9084 58.2345 46.5303 57.7597C43.5111 57.3377 40.6628 56.3236 39.0393 54.6823L40.4919 53.1993C41.8135 54.5182 44.2744 55.3388 46.9063 55.6847C49.9255 56.0774 53.1726 55.8488 55.1151 55.0458C57.6957 53.9907 62.4751 48.68 65.0272 45.8605C65.5969 45.2216 66.0583 44.7175 66.3602 44.401L66.4571 44.3013H66.4855C67.0043 43.8462 67.4203 43.2801 67.7046 42.6425C67.9427 42.1216 68.0088 41.535 67.8926 40.9719C67.8539 40.8119 67.7985 40.6566 67.7274 40.5088C67.6554 40.3659 67.5675 40.2322 67.4654 40.1102C67.3675 40.0005 67.2565 39.904 67.135 39.823C67.0116 39.738 66.8774 39.6709 66.7362 39.6237C66.297 39.4944 65.8287 39.517 65.4032 39.6882C64.8654 39.9131 64.38 40.2527 63.979 40.6847C63.7398 40.9367 63.0847 41.605 62.4353 42.2322C62.1105 42.5487 61.7801 42.8594 61.4725 43.1114C61.2543 43.3035 61.0219 43.4779 60.7775 43.6331C60.6959 43.6912 60.6054 43.7348 60.5098 43.7621C60.4157 43.7924 60.3178 43.8082 60.2193 43.809C60.1849 43.8091 60.1513 43.7989 60.1224 43.7796L59.4673 43.4514C59.4381 43.4368 59.4131 43.4145 59.3951 43.3866C59.3771 43.3588 59.3666 43.3265 59.3648 43.2931L59.1654 39.8523C59.1654 36.4643 59.1654 33.4573 59.1654 30.4737C59.1654 27.2791 59.1654 24.0727 59.1654 21.0598C59.1674 20.8106 59.1209 20.5635 59.0287 20.333C58.9323 20.1037 58.7951 19.8949 58.6242 19.7175C58.4613 19.5434 58.2681 19.4022 58.0546 19.3013C57.8298 19.2092 57.5901 19.1615 57.3482 19.1606C56.8598 19.166 56.3923 19.3655 56.0437 19.7175C55.6886 20.0697 55.4837 20.5524 55.474 21.0598V36.0364C55.474 36.0861 55.4548 36.1338 55.4206 36.169C55.3864 36.2042 55.34 36.224 55.2917 36.224H53.4631C53.4147 36.224 53.3684 36.2042 53.3342 36.169C53.3 36.1338 53.2808 36.0861 53.2808 36.0364V17.0211C53.281 16.7715 53.2325 16.5244 53.1384 16.2943C53.0459 16.0729 52.9102 15.8733 52.7396 15.7081C52.5676 15.529 52.3622 15.3874 52.1358 15.2919C51.914 15.1965 51.6755 15.1486 51.4351 15.1513C51.1929 15.1493 50.9527 15.1971 50.7287 15.2919C50.516 15.3942 50.323 15.5352 50.1591 15.7081C49.9898 15.8758 49.8526 16.0746 49.7546 16.2943C49.6624 16.5248 49.6159 16.7719 49.6179 17.0211V36.0364C49.6179 36.0861 49.5987 36.1338 49.5645 36.169C49.5303 36.2042 49.4839 36.224 49.4356 36.224H48.9912C48.6933 35.5135 48.3106 34.8441 47.8519 34.231C47.7152 34.0376 47.5671 33.85 47.4133 33.6448V20.9895C47.4143 20.7409 47.3699 20.4943 47.2823 20.2626C47.1859 20.0333 47.0487 19.8246 46.8778 19.6472C46.5309 19.2925 46.0623 19.0925 45.5733 19.0903C45.3308 19.0914 45.0908 19.1412 44.8669 19.2369C44.5295 19.3815 44.2413 19.6257 44.0385 19.9386C43.8358 20.2516 43.7276 20.6192 43.7276 20.9954V30.9602C43.0659 30.6851 42.376 30.4884 41.6711 30.374V25.2275C41.6713 24.9797 41.6228 24.7345 41.5287 24.5065C41.4359 24.2749 41.3005 24.0639 41.1299 23.8852C40.9567 23.709 40.7516 23.5695 40.5261 23.4748C40.3045 23.378 40.0662 23.3281 39.8254 23.3283C39.5828 23.3281 39.3426 23.378 39.119 23.4748C38.9038 23.57 38.7099 23.7097 38.5494 23.8852C38.3752 24.0621 38.2377 24.2735 38.1449 24.5065C38.0527 24.7349 38.0062 24.9801 38.0082 25.2275V30.544C37.2886 30.7196 36.5964 30.9978 35.9517 31.3705V25.2275C35.9536 24.4328 36.1839 23.6564 36.6137 22.9962C37.0435 22.3359 37.6536 21.8213 38.3671 21.517C38.8325 21.3155 39.3318 21.2099 39.8368 21.2064ZM29.0531 21.3764C29.4229 21.2633 29.8067 21.206 30.1924 21.2064C30.7047 21.205 31.212 21.3086 31.6849 21.5112C32.3989 21.8148 33.0093 22.3292 33.4392 22.9896C33.8691 23.6501 34.0992 24.4267 34.1003 25.2216V31.6108C33.4617 31.1951 32.7668 30.8791 32.0381 30.673V25.2216C32.0401 24.9743 31.9936 24.7291 31.9014 24.5006C31.8086 24.2676 31.671 24.0563 31.4969 23.8793C31.3364 23.7038 31.1425 23.5641 30.9273 23.469C30.5922 23.327 30.2239 23.2896 29.8684 23.3615C29.5128 23.4334 29.1857 23.6115 28.9278 23.8734C28.5727 24.2256 28.3678 24.7084 28.3581 25.2157V30.3564C27.6588 30.4268 26.9692 30.5762 26.3016 30.8019V20.9895C26.3014 20.614 26.193 20.2471 25.9902 19.935C25.7874 19.6229 25.4992 19.3797 25.1621 19.236C24.825 19.0924 24.4541 19.0548 24.0962 19.1279C23.7383 19.2011 23.4095 19.3818 23.1514 19.6472C22.9805 19.8246 22.8433 20.0333 22.7469 20.2626C22.6574 20.4939 22.611 20.7405 22.6102 20.9895V33.2462C21.848 34.1076 21.2663 35.1212 20.9012 36.224H20.6449C20.5965 36.224 20.5502 36.2042 20.516 36.169C20.4818 36.1338 20.4626 36.0861 20.4626 36.0364V17.0211C20.4646 16.7719 20.4181 16.5248 20.3259 16.2943C20.2278 16.0746 20.0907 15.8758 19.9214 15.7081C19.7575 15.5352 19.5645 15.3942 19.3518 15.2919C19.1278 15.1971 18.8876 15.1493 18.6454 15.1513C18.4049 15.1486 18.1665 15.1965 17.9447 15.2919C17.7182 15.3874 17.5128 15.529 17.3409 15.7081C17.1754 15.8778 17.0404 16.0763 16.9421 16.2943C16.8479 16.5244 16.7995 16.7715 16.7997 17.0211V36.0422C16.7997 36.092 16.7805 36.1397 16.7463 36.1749C16.7121 36.2101 16.6657 36.2298 16.6174 36.2298H14.8116C14.7632 36.2298 14.7168 36.2101 14.6827 36.1749C14.6485 36.1397 14.6293 36.092 14.6293 36.0422V21.0364C14.6294 20.7867 14.581 20.5396 14.4869 20.3095C14.3961 20.0886 14.2623 19.8891 14.0938 19.7234C13.9314 19.55 13.738 19.4107 13.5241 19.3131C13.3023 19.2168 13.0641 19.167 12.8234 19.1665C12.5815 19.1673 12.3418 19.215 12.1171 19.3072C11.9036 19.4081 11.7103 19.5492 11.5474 19.7234C11.3765 19.9008 11.2393 20.1095 11.1429 20.3388C11.0507 20.5693 11.0043 20.8165 11.0062 21.0657C11.0062 24.0786 11.0062 27.2849 11.0062 30.4795C11.0062 33.4748 11.0062 36.4819 11.0062 39.8582L10.8068 43.299C10.8039 43.3321 10.793 43.3639 10.7751 43.3915C10.7572 43.4192 10.7329 43.4418 10.7043 43.4573L10.0492 43.7855C10.0175 43.7948 9.984 43.7948 9.95235 43.7855C9.85379 43.7847 9.75588 43.7689 9.66182 43.7386C9.5671 43.7089 9.47696 43.6654 9.39408 43.6097C9.09609 43.4677 8.81188 43.297 8.54529 43.0997C8.23767 42.8476 7.90726 42.5135 7.58256 42.2263C6.93314 41.5932 6.27803 40.925 6.03877 40.673C5.63944 40.239 5.15361 39.8991 4.61462 39.6765C4.18835 39.5007 3.71736 39.476 3.27592 39.6061C3.13425 39.6522 2.9999 39.7193 2.87715 39.8054C2.75266 39.8869 2.63958 39.9855 2.54105 40.0985C2.43894 40.2204 2.35099 40.3542 2.27901 40.4971C2.20787 40.6449 2.15248 40.8001 2.11381 40.9602C1.99765 41.5232 2.06367 42.1099 2.3018 42.6308C2.58611 43.2683 3.00213 43.8344 3.52087 44.2896L3.61771 44.3893C3.91963 44.6999 4.38106 45.2099 4.95072 45.8429C7.49711 48.6683 12.2823 53.9731 14.8685 55.034C16.8339 55.8371 20.0581 56.0657 23.0773 55.673C25.6009 55.3388 27.965 54.5768 29.3436 53.3283L29.8848 53.85L30.8304 54.7878C29.1841 56.3471 26.4156 57.3201 23.4761 57.7187C20.098 58.1935 16.4864 57.9297 14.1223 56.9625C11.1999 55.7902 6.6654 50.7668 3.86836 47.6659C3.19616 46.9977 2.6265 46.3471 2.19926 45.9074L2.15938 45.8664C1.36733 45.1634 0.745176 44.2804 0.34216 43.2873C-0.01408 42.394 -0.0936576 41.4093 0.114296 40.4678C0.18963 40.1361 0.304428 39.8152 0.456092 39.5124C0.610836 39.2111 0.802266 38.9314 1.02575 38.68C1.24329 38.4278 1.49455 38.2088 1.77201 38.0294C2.04963 37.8534 2.34838 37.7155 2.66068 37.619C3.46295 37.3555 4.32504 37.3555 5.12732 37.619C6.02396 37.933 6.83322 38.466 7.48571 39.1724L7.71928 39.4068C7.97562 39.6706 8.3573 40.0633 8.76745 40.4619V39.8347C8.75893 39.6707 8.75893 39.5064 8.76745 39.3424C8.76745 39.1861 8.78454 39.0278 8.81872 38.8676V21.0305C8.82059 20.2358 9.05094 19.4595 9.48074 18.7992C9.91055 18.139 10.5206 17.6243 11.2341 17.3201C12.0685 16.956 13.0017 16.9103 13.8659 17.1911C14.1311 17.2746 14.3869 17.3866 14.6293 17.5252V17.0211C14.6273 16.494 14.728 15.9718 14.9255 15.4854C15.1334 14.9924 15.4334 14.5463 15.8085 14.1724C16.1693 13.8007 16.5978 13.5059 17.0694 13.3047C17.541 13.1035 18.0465 13 18.5571 13C19.0676 13 19.5732 13.1035 20.0448 13.3047C20.5164 13.5059 20.9449 13.8007 21.3057 14.1724C21.6679 14.5477 21.9561 14.9916 22.1545 15.4795C22.3492 15.9668 22.4498 16.4884 22.4507 17.0153V17.5077C22.6958 17.3619 22.9556 17.244 23.2255 17.156C23.603 17.032 23.9969 16.9687 24.3933 16.9684C24.9041 16.9684 25.4097 17.074 25.8801 17.2791C26.3573 17.4782 26.7917 17.7722 27.1583 18.1444C27.5248 18.5166 27.8164 18.9595 28.0163 19.4479C28.2138 19.9322 28.3145 20.4525 28.3125 20.9778V21.6753C28.5484 21.549 28.7967 21.4488 29.0531 21.3764Z" fill="#E6311D"/>
<g clip-path="url(#clip0_35_2338)">
<path d="M27.8145 40.4412C27.8133 42.1559 28.4392 43.8119 29.5743 45.0972C30.7094 46.3825 32.2753 47.2083 33.977 47.4191V53.9998C33.981 54.2292 34.0749 54.4478 34.2385 54.6087C34.4022 54.7695 34.6224 54.8596 34.8518 54.8596C35.0813 54.8596 35.3015 54.7695 35.4652 54.6087C35.6288 54.4478 35.7227 54.2292 35.7267 53.9998L35.7267 47.4191C37.5044 47.1985 39.1309 46.3081 40.2747 44.9295C41.4184 43.5508 41.9932 41.7878 41.8817 40C41.7703 38.2122 40.9811 36.5342 39.675 35.3083C38.3689 34.0823 36.6444 33.4008 34.8531 33.4027C33.9287 33.4024 33.0133 33.5843 32.1593 33.938C31.3052 34.2916 30.5292 34.81 29.8756 35.4637C29.2219 36.1173 28.7035 36.8933 28.3498 37.7474C27.9962 38.6014 27.8143 39.5168 27.8145 40.4412ZM34.8518 35.1536C36.0751 35.1536 37.2606 35.5778 38.2062 36.3538C39.1518 37.1299 39.7991 38.2098 40.0378 39.4095C40.2765 40.6093 40.0918 41.8547 39.5152 42.9336C38.9386 44.0125 38.0057 44.858 36.8756 45.3262C35.7455 45.7945 34.488 45.8563 33.3173 45.5013C32.1467 45.1463 31.1353 44.3964 30.4556 43.3794C29.7759 42.3623 29.4698 41.1411 29.5896 39.9237C29.7093 38.7063 30.2474 37.568 31.1123 36.7029C31.6021 36.2097 32.185 35.8186 32.8272 35.5525C33.4693 35.2863 34.158 35.1503 34.8531 35.1524L34.8518 35.1536ZM31.9519 37.5388C32.116 37.3747 32.3386 37.2825 32.5706 37.2825C32.8027 37.2825 33.0253 37.3747 33.1893 37.5388C33.3534 37.7029 33.4456 37.9254 33.4456 38.1575C33.4456 38.3896 33.3534 38.6121 33.1893 38.7762C32.7487 39.2178 32.5013 39.8162 32.5013 40.44C32.5013 41.0638 32.7487 41.6621 33.1893 42.1037C33.3534 42.2678 33.4456 42.4903 33.4456 42.7224C33.4456 42.9545 33.3534 43.177 33.1893 43.3411C33.0253 43.5052 32.8027 43.5974 32.5706 43.5974C32.3386 43.5974 32.116 43.5052 31.9519 43.3411C31.1848 42.5704 30.7542 41.5273 30.7542 40.44C30.7542 39.3526 31.1848 38.3095 31.9519 37.5388Z" fill="#E6311D"/>
</g>
<defs>
<clipPath id="clip0_35_2338">
<rect width="21" height="21" fill="white" transform="translate(25 33)"/>
</clipPath>
</defs>
</svg>
