<svg width="70" height="70" viewBox="0 0 70 70" fill="none" xmlns="http://www.w3.org/2000/svg">
<path d="M47.4913 28.3422L43.9914 24.8423C43.5352 24.3861 42.7978 24.3861 42.3418 24.8423L30.3334 36.8506L26.4917 33.0089C26.0355 32.5527 25.2982 32.5527 24.8421 33.0089L21.3422 36.5088C20.8859 36.9649 20.8859 37.7023 21.3422 38.1584L29.5086 46.3249C29.7361 46.5536 30.0348 46.6667 30.3334 46.6667C30.6322 46.6667 30.9307 46.5524 31.1582 46.3249L47.4913 29.9918C47.9475 29.5358 47.9475 28.7984 47.4913 28.3422ZM30.3334 43.8505L23.8166 37.3336L25.6669 35.4833L29.5086 39.325C29.9648 39.7813 30.7022 39.7813 31.1582 39.325L43.1666 27.3167L45.0169 29.167L30.3334 43.8505Z" fill="#E6311D"/>
<path d="M69.7286 41.2536L64.5183 35.0003L69.7286 28.7471C70.0191 28.3994 70.0809 27.9153 69.8896 27.5058C69.6972 27.0964 69.2854 26.8339 68.8327 26.8339H53.5111L52.4879 19.6695C52.4063 19.0944 51.9139 18.6674 51.3329 18.6674H42.422C41.0478 17.5217 35.7464 13.1048 35.7464 13.1048C35.3136 12.7432 34.6859 12.7432 34.2531 13.1048L27.5775 18.6674H18.6666C18.0856 18.6674 17.5945 19.0944 17.5117 19.6684L16.4885 26.834H1.16726C0.714593 26.834 0.302804 27.0965 0.110308 27.506C-0.0821881 27.9166 -0.0191619 28.4008 0.27136 28.7472L5.48161 35.0005L0.27136 41.2537C-0.0191619 41.6014 -0.0809576 42.0855 0.110308 42.495C0.302804 42.9057 0.714593 43.1669 1.16726 43.1669H16.4888C16.8002 45.3428 17.513 50.3325 17.513 50.3325C17.5947 50.9076 18.087 51.3335 18.6668 51.3335H27.5777L34.2532 56.8961C34.4702 57.077 34.735 57.1668 34.9998 57.1668C35.2647 57.1668 35.5307 57.077 35.7464 56.8961L42.4208 51.3335C44.2338 51.3335 51.3351 51.3382 51.3328 51.3335C51.9138 51.3335 52.4049 50.9066 52.4877 50.3325C52.4877 50.3325 53.2006 45.3428 53.512 43.1669H68.8324C69.2851 43.1669 69.6969 42.9044 69.8894 42.495C70.0821 42.0841 70.0191 41.6 69.7286 41.2536ZM3.65809 40.8336L7.89656 35.7471C8.25708 35.3142 8.25708 34.6855 7.89656 34.2537L3.65809 29.1671H15.0095L10.771 34.2536C10.4105 34.6864 10.4105 35.3152 10.771 35.7469L15.0095 40.8335H3.65809V40.8336ZM51.6048 41.2523C51.5477 41.3211 51.4975 41.397 51.4579 41.4775C51.3762 41.6409 51.3727 41.6479 50.3227 49C41.7257 49 41.7175 49.0047 41.4784 49.1238C41.3979 49.1647 41.3221 49.2136 41.2532 49.2707L35 54.481L28.7467 49.2707C28.538 49.0957 28.273 49 28.0001 49H19.6785C18.6285 41.6479 18.6249 41.6409 18.5433 41.4775C18.5025 41.397 18.4535 41.3213 18.3964 41.2523L13.1861 35.0003L18.3964 28.7471C18.5353 28.5803 18.6251 28.3796 18.6553 28.1649L19.6785 21.0006H28.0001C28.2731 21.0006 28.5367 20.9049 28.7467 20.7299L35 15.5196C41.3559 20.8162 41.3606 20.8185 41.4784 20.8781C41.6406 20.9586 41.8191 21.0006 41.9998 21.0006H50.3215L51.3447 28.1662C51.375 28.3808 51.4648 28.5815 51.6036 28.7483L56.8139 35.0003L51.6048 41.2523ZM54.9903 40.8336L59.2288 35.7471C59.5893 35.3142 59.5893 34.6855 59.2288 34.2537L54.9903 29.1672H66.3417L62.1033 34.2537C61.7427 34.6866 61.7427 35.3153 62.1033 35.7471L66.3417 40.8336H54.9903Z" fill="#E6311D"/>
</svg>
