<svg width="70" height="70" viewBox="0 0 70 70" fill="none" xmlns="http://www.w3.org/2000/svg">
<path d="M68.7915 20.1014L52.3985 3.68231C51.6152 2.89688 50.571 2.46375 49.4599 2.46375C48.5833 2.46375 47.7314 2.74182 47.0256 3.25248L46.5711 3.51169L25.4782 6.41282C24.9951 6.43073 24.5271 6.50731 24.0799 6.6341L23.3397 5.93821C23.3093 5.9097 23.2782 5.88166 23.2466 5.85456C22.4939 5.20698 21.5327 4.85044 20.5397 4.85044C19.4288 4.85044 18.3846 5.28357 17.6001 6.07018L1.20929 22.4872C-0.25624 23.956 -0.408237 26.3036 0.854628 27.9484C0.898223 28.0048 0.943704 28.0599 0.991071 28.1129L8.02437 35.9646C8.25224 36.9143 8.56472 37.893 8.9552 38.8959C7.24931 40.9506 7.35676 44.0131 9.28158 45.9386C9.28488 45.9419 9.28818 45.945 9.29148 45.9483L9.31433 45.9709C10.2803 46.9333 11.5561 47.4692 12.9156 47.4933C12.8904 47.7037 12.8729 47.9155 12.8729 48.1307C12.8729 49.5265 13.4154 50.8386 14.4007 51.8271L14.4216 51.8484C14.4249 51.8517 14.428 51.8549 14.4313 51.8582C15.4203 52.8473 16.7353 53.3924 18.1341 53.3924C18.2962 53.3924 18.4565 53.3834 18.616 53.3688C18.6316 53.3865 18.6483 53.4041 18.6641 53.422C18.6613 53.493 18.6537 53.5632 18.6537 53.6344C18.6537 55.0304 19.1964 56.343 20.1819 57.3313L20.2036 57.3534C20.2067 57.3565 20.2095 57.3593 20.2126 57.3624C21.2014 58.3512 22.5163 58.8958 23.9152 58.8958C23.9187 58.8958 23.922 58.8953 23.9255 58.8953L24.4246 59.3944C24.4826 60.7044 25.014 61.9284 25.9472 62.8616C25.9531 62.8673 25.9592 62.8734 25.9651 62.8793L25.9832 62.8972C26.9145 63.8233 28.1343 64.3507 29.4386 64.4084L30.8184 65.7884C31.9455 66.9155 33.4476 67.5362 35.0476 67.5362C36.889 67.5362 38.6003 66.7084 39.7428 65.2648C40.364 64.4803 40.7549 63.5796 40.9215 62.6467L41.788 63.5134C42.9326 64.6577 44.5136 65.3145 46.1254 65.3145C47.4564 65.3145 48.7582 64.8644 49.791 64.0467C50.9384 63.1387 51.7078 61.8448 51.9661 60.4209C53.0727 61.3676 54.5031 61.903 55.9585 61.903C57.2893 61.903 58.5913 61.4526 59.6241 60.6351C60.9624 59.5759 61.7867 57.9916 61.8854 56.2888C61.9773 54.7064 61.4389 53.1562 60.4001 51.9796C61.3609 51.8102 62.2717 51.4065 63.0357 50.8021C64.3742 49.7428 65.1982 48.1585 65.297 46.4557C65.396 44.7498 64.7625 43.0811 63.559 41.8776L61.3361 39.6547C61.4172 39.5741 61.4947 39.4898 61.5661 39.3988C65.7287 34.0947 67.9702 30.1487 68.7967 26.6575C68.8615 26.5435 68.9187 26.4247 68.9673 26.3022L69.4263 25.1456C70.3746 23.5394 70.1364 21.4494 68.7915 20.1014ZM13.0096 44.6701C12.3934 44.6701 11.7774 44.4349 11.3068 43.9648L11.2813 43.9396C10.3413 42.9993 10.3413 41.4744 11.2813 40.5344L13.1651 38.6506C13.6353 38.1802 14.2513 37.9451 14.8677 37.9451C15.4842 37.9451 16.1004 38.1802 16.571 38.6506L16.5958 38.6758C17.5365 39.6161 17.5365 41.141 16.5958 42.0812L14.7124 43.9648C14.2421 44.4347 13.6258 44.6701 13.0096 44.6701ZM19.8372 49.8587C19.3668 50.3291 18.7506 50.5643 18.1341 50.5643C17.5179 50.5643 16.9016 50.3291 16.4311 49.8587L16.4061 49.8335C15.4656 48.893 15.4656 47.3686 16.4061 46.4281L20.8627 41.9714C21.3333 41.5011 21.9496 41.2659 22.566 41.2659C23.1825 41.2659 23.7987 41.5011 24.2691 41.9714L24.2943 41.9964C25.2346 42.9369 25.2346 44.4618 24.2943 45.4018L19.8372 49.8587ZM25.6177 55.3626C25.1479 55.8328 24.5316 56.0677 23.9152 56.0677C23.2987 56.0677 22.6825 55.8328 22.2123 55.3626L22.1869 55.3372C21.2464 54.3969 21.2464 52.872 22.1869 51.9315L25.071 49.0469C25.5414 48.5768 26.1574 48.3418 26.7739 48.3418C27.3901 48.3418 28.0063 48.5768 28.4769 49.0469L28.5024 49.0724C29.4424 50.0126 29.4424 51.5378 28.5024 52.478L25.6177 55.3626ZM29.6747 61.5919C29.0585 61.5919 28.4425 61.3567 27.9722 60.8866L27.9467 60.8616C27.006 59.9211 27.006 58.396 27.9467 57.4557L29.2586 56.1438C29.7289 55.6737 30.3452 55.4385 30.9616 55.4385C31.5779 55.4385 32.1943 55.6737 32.6647 56.1438L32.6899 56.1693C33.6299 57.1098 33.6299 58.6345 32.6899 59.5747L31.3778 60.8866C30.9072 61.3567 30.291 61.5919 29.6747 61.5919ZM37.5258 63.5099C36.8933 64.309 35.9707 64.7084 35.0479 64.7084C34.2396 64.7084 33.4313 64.4018 32.8181 63.7889L32.5745 63.5452C32.8601 63.3543 33.1289 63.1345 33.3771 62.8861L34.6887 61.5747C35.6125 60.6507 36.1137 59.4642 36.2014 58.2532L37.21 59.2615C38.3529 60.404 38.5287 62.2428 37.5258 63.5099ZM61.5595 43.8769C62.8728 45.19 62.78 47.3978 61.2808 48.5846C60.7192 49.029 60.0459 49.2418 59.3703 49.2418C58.521 49.2418 57.6687 48.9053 57.0324 48.2688L45.599 36.8354C45.3021 36.5385 44.9132 36.39 44.5242 36.39C44.1354 36.39 43.7461 36.5385 43.4494 36.8354C42.8482 37.4363 42.8482 38.4107 43.4494 39.0114L58.1478 53.71C59.4608 55.0231 59.368 57.2309 57.869 58.4177C57.3074 58.8619 56.6342 59.0749 55.9585 59.0749C55.1092 59.0749 54.2569 58.7381 53.6206 58.1019L38.9911 43.4723C38.6904 43.1716 38.2961 43.021 37.9016 43.021C37.5074 43.021 37.1131 43.1716 36.8122 43.4723C36.2193 44.0652 36.2193 45.0264 36.8122 45.6191L48.3147 57.1216C49.6277 58.4346 49.5349 60.6424 48.0359 61.829C47.4743 62.2734 46.8011 62.4862 46.1254 62.4862C45.2761 62.4862 44.424 62.1497 43.7875 61.5132L31.9012 49.6266C31.6919 48.6901 31.2289 47.7996 30.5019 47.0724L30.4762 47.0467C29.6557 46.2266 28.6101 45.7178 27.4803 45.5663C27.7049 44.9774 27.8272 44.3482 27.8272 43.699C27.8272 42.3006 27.2826 40.9855 26.2938 39.9967C26.291 39.9938 26.2882 39.991 26.2854 39.9882L26.2632 39.9663C25.2749 38.9803 23.9618 38.4376 22.5658 38.4376C21.6409 38.4376 20.7548 38.6803 19.9734 39.1278C19.7498 38.2128 19.2869 37.371 18.6057 36.6864L18.5887 36.6692C18.5826 36.6631 18.5764 36.6567 18.5703 36.6506C17.5813 35.6616 16.2663 35.1168 14.8675 35.1168C13.4684 35.1168 12.1535 35.6618 11.1647 36.6513L11.1564 36.6596C10.9738 36.0912 10.8187 35.528 10.6979 34.9721C10.6552 34.7777 10.5734 34.5948 10.4521 34.4369L3.09757 26.226C2.69319 25.6996 2.74127 24.9549 3.20998 24.485L19.6025 8.06686C19.86 7.80859 20.1991 7.67827 20.5399 7.67827C20.8465 7.67827 21.1535 7.78408 21.4026 7.99829L21.5325 8.12012C20.4348 9.20012 19.7521 10.7005 19.7521 12.3581C19.7521 15.632 22.4096 18.2963 25.6807 18.3079L36.1232 18.4403L61.5595 43.8769ZM66.902 23.8394L66.3386 25.2589C66.2172 25.4168 66.1354 25.5994 66.0928 25.7941C65.2963 29.4493 62.4887 33.6425 59.3416 37.6526C55.3378 33.6489 37.3252 15.6273 37.3252 15.6273L25.7019 15.4798C23.9849 15.4798 22.5799 14.0748 22.5799 12.3579C22.5799 10.6409 23.9849 9.23618 25.7019 9.23618L47.4958 6.23867C47.4981 6.23843 47.5002 6.23726 47.5019 6.23584L48.5967 5.61136C48.8458 5.39715 49.1529 5.29134 49.4595 5.29134C49.7997 5.29134 50.1393 5.4219 50.3969 5.67994L66.7894 22.0981C67.2583 22.5682 67.3064 23.3129 66.902 23.8394Z" fill="#E6311D"/>
</svg>
