<svg width="241" height="44" viewBox="0 0 241 44" fill="none" xmlns="http://www.w3.org/2000/svg">
<g clip-path="url(#clip0_35_1491)">
<path d="M58.2668 34.7385C59.1264 34.7385 59.8307 35.0517 60.3899 35.6678C60.9389 36.2838 61.2185 37.0669 61.2185 38.0066C61.2185 38.9464 60.9389 39.7295 60.3899 40.3455C59.841 40.9616 59.1264 41.2748 58.2668 41.2748C57.6868 41.2748 57.169 41.1286 56.703 40.8363C56.2473 40.5439 55.8951 40.1471 55.6466 39.6459V44.0104H55.0459V34.8638H55.6466V36.3778C55.8951 35.8766 56.2473 35.4798 56.703 35.1875C57.1587 34.8951 57.6765 34.7489 58.2668 34.7489V34.7385ZM58.1736 40.6901C58.8882 40.6901 59.4786 40.4395 59.9342 39.9279C60.3899 39.4162 60.6178 38.7793 60.6178 38.0066C60.6178 37.234 60.3899 36.5762 59.9342 36.075C59.4786 35.5738 58.8986 35.3232 58.1736 35.3232C57.4486 35.3232 56.848 35.5738 56.3612 36.0854C55.8744 36.5971 55.6362 37.234 55.6362 38.0066C55.6362 38.7793 55.8744 39.4267 56.3612 39.9279C56.848 40.4395 57.4486 40.6901 58.1736 40.6901Z" fill="#D33E2E"/>
<path d="M65.6305 34.7385C66.5833 34.7385 67.3393 35.0622 67.8986 35.6991C68.4578 36.336 68.7271 37.1713 68.7168 38.205H63.0931C63.1241 38.9777 63.3831 39.5833 63.8595 40.0323C64.3359 40.4812 64.9469 40.7005 65.6822 40.7005C66.1897 40.7005 66.6351 40.5961 67.0286 40.3768C67.4222 40.168 67.7225 39.8548 67.9193 39.4475H68.5407C68.2921 40.0427 67.9089 40.4917 67.3911 40.8049C66.8733 41.1182 66.3037 41.2748 65.6512 41.2748C64.7191 41.2748 63.963 40.972 63.3624 40.3664C62.7617 39.7608 62.4717 38.9881 62.4717 38.0275C62.4717 37.0669 62.772 36.2734 63.3624 35.6573C63.9527 35.0413 64.7087 34.728 65.6201 34.728L65.6305 34.7385ZM65.6305 35.3128C64.9469 35.3128 64.3773 35.532 63.9216 35.9601C63.4556 36.3882 63.1863 36.9521 63.1034 37.6308H68.085C68.0125 36.9416 67.7536 36.3882 67.3082 35.9601C66.8629 35.532 66.3037 35.3128 65.6408 35.3128H65.6305Z" fill="#D33E2E"/>
<path d="M77.5925 34.8638H78.1932V41.1495H70.1875V34.8638H70.7882V40.5752H73.8848V34.8638H74.4855V40.5752H77.5925V34.8638Z" fill="#D33E2E"/>
<path d="M82.9059 34.7385C83.8587 34.7385 84.6147 35.0622 85.174 35.6991C85.7332 36.336 86.0025 37.1713 85.9921 38.205H80.3685C80.3995 38.9777 80.6585 39.5833 81.1349 40.0323C81.6113 40.4812 82.2223 40.7005 82.9576 40.7005C83.4651 40.7005 83.9105 40.5961 84.304 40.3768C84.6976 40.168 84.9979 39.8548 85.1947 39.4475H85.8161C85.5675 40.0427 85.1843 40.4917 84.6665 40.8049C84.1487 41.1182 83.579 41.2748 82.9266 41.2748C81.9945 41.2748 81.2384 40.972 80.6377 40.3664C80.0371 39.7608 79.7471 38.9881 79.7471 38.0275C79.7471 37.0669 80.0474 36.2734 80.6377 35.6573C81.2281 35.0413 81.9841 34.728 82.8955 34.728L82.9059 34.7385ZM82.9059 35.3128C82.2223 35.3128 81.6527 35.532 81.197 35.9601C80.731 36.3882 80.4617 36.9521 80.3788 37.6308H85.3604C85.2879 36.9416 85.029 36.3882 84.5836 35.9601C84.1383 35.532 83.579 35.3128 82.9162 35.3128H82.9059Z" fill="#D33E2E"/>
<path d="M92.4231 34.8638H93.0238V41.1495H92.4231V38.2155H88.0733V41.1495H87.4727V34.8638H88.0733V37.6412H92.4231V34.8638Z" fill="#D33E2E"/>
<path d="M99.5586 34.8638H100.356V41.1495H99.7553V37.7352L99.7864 35.5425L95.6852 41.1599H94.8877V34.8742H95.4884V38.2886L95.4573 40.4813L99.5586 34.8638Z" fill="#D33E2E"/>
<path d="M104.033 34.8638H106.985V41.1495H106.384V38.654H104.386L102.356 41.1495H101.6L103.702 38.6436C103.101 38.5809 102.656 38.4034 102.345 38.0902C102.035 37.7874 101.879 37.3697 101.879 36.8581C101.879 36.2212 102.055 35.7304 102.407 35.3859C102.76 35.0413 103.308 34.8638 104.044 34.8638H104.033ZM104.116 38.1424H106.384V35.4172H104.065C103.474 35.4172 103.06 35.5425 102.832 35.8035C102.594 36.0541 102.48 36.4091 102.48 36.8581C102.48 37.7143 103.029 38.1424 104.127 38.1424H104.116Z" fill="#D33E2E"/>
<path d="M117.766 34.8638V41.1495H117.166V35.4381H112.847V41.1495H112.246V34.8638H117.766Z" fill="#D33E2E"/>
<path d="M120.251 35.6678C120.873 35.0413 121.629 34.728 122.519 34.728C123.41 34.728 124.166 35.0413 124.787 35.6573C125.409 36.2734 125.72 37.0565 125.72 37.9962C125.72 38.9359 125.409 39.6981 124.798 40.3246C124.187 40.9511 123.42 41.2644 122.53 41.2644C121.639 41.2644 120.873 40.9511 120.262 40.3246C119.651 39.6981 119.34 38.9255 119.34 37.9962C119.34 37.0669 119.651 36.2943 120.272 35.6678H120.251ZM124.352 36.075C123.855 35.5634 123.244 35.3128 122.519 35.3128C121.794 35.3128 121.183 35.5634 120.686 36.075C120.189 36.5866 119.941 37.2235 119.941 37.9962C119.941 38.7689 120.189 39.4058 120.686 39.9174C121.183 40.429 121.794 40.6796 122.519 40.6796C123.244 40.6796 123.855 40.429 124.352 39.9174C124.85 39.4058 125.098 38.7689 125.098 37.9962C125.098 37.2235 124.85 36.5762 124.352 36.075Z" fill="#D33E2E"/>
<path d="M132.628 40.5752H133.757V42.8723H133.156V41.1495H126.673V42.8723H126.072V40.5752H127.118C127.522 40.3142 127.823 39.5206 128.04 38.1946L128.568 34.8533H132.628V40.5648V40.5752ZM127.843 40.5752H132.027V35.4276H129.076L128.62 38.205C128.444 39.3745 128.185 40.1576 127.833 40.5752H127.843Z" fill="#D33E2E"/>
<path d="M143.554 41.1495H142.726L139.008 37.9962V41.1495H138.407V34.8638H139.008V37.7352L142.395 34.8638H143.213L139.691 37.8396L143.554 41.1495Z" fill="#D33E2E"/>
<path d="M146.33 34.8638H150.39V41.1495H149.789V35.4381H146.837L146.319 38.7167C146.164 39.6564 145.957 40.3142 145.688 40.7005C145.418 41.0868 145.046 41.2748 144.579 41.2748C144.476 41.2748 144.341 41.2748 144.196 41.2539V40.6901C144.196 40.6901 144.269 40.6901 144.331 40.6901C144.403 40.6901 144.445 40.6901 144.476 40.6901C144.828 40.6901 145.087 40.5543 145.273 40.2724C145.46 39.9905 145.605 39.458 145.729 38.6853L146.34 34.8533L146.33 34.8638Z" fill="#D33E2E"/>
<path d="M157.546 34.7385C158.437 34.7385 159.193 35.0517 159.814 35.6782C160.436 36.3047 160.746 37.0774 160.746 38.0066C160.746 38.9359 160.436 39.7086 159.825 40.3351C159.203 40.9616 158.447 41.2748 157.557 41.2748C156.707 41.2748 155.982 40.9929 155.382 40.429C154.781 39.8652 154.45 39.1552 154.377 38.2886H152.855V41.1495H152.254V34.8638H152.855V37.7247H154.377C154.45 36.8685 154.781 36.1481 155.382 35.5842C155.982 35.0204 156.707 34.7385 157.546 34.7385ZM157.546 40.6901C158.281 40.6901 158.893 40.4395 159.39 39.9279C159.887 39.4162 160.135 38.7793 160.135 38.0066C160.135 37.234 159.887 36.5971 159.379 36.0854C158.872 35.5738 158.261 35.3232 157.536 35.3232C156.811 35.3232 156.21 35.5738 155.703 36.0854C155.195 36.5971 154.947 37.234 154.947 38.0066C154.947 38.7793 155.195 39.4162 155.692 39.9279C156.189 40.4395 156.801 40.6901 157.525 40.6901H157.546Z" fill="#D33E2E"/>
<path d="M166.443 34.8638H167.043V41.1495H166.443V38.7375C165.873 39.009 165.2 39.1448 164.403 39.1448C162.818 39.1448 162.021 38.3616 162.021 36.785V34.8533H162.621V36.6806C162.621 37.3384 162.766 37.8291 163.067 38.1319C163.367 38.4347 163.843 38.5914 164.485 38.5914C164.838 38.5914 165.19 38.5496 165.573 38.4661C165.956 38.3825 166.236 38.2781 166.443 38.1528V34.8533V34.8638Z" fill="#D33E2E"/>
<path d="M61.788 9.87755C62.6683 9.43902 63.704 9.21975 64.9261 9.21975C65.9618 9.21975 66.8939 9.38681 67.7017 9.70005C68.5095 10.0133 69.162 10.4518 69.6695 11.0365C70.1666 11.6004 70.4876 12.3208 70.6741 13.1666H76.0595C75.8731 11.4438 75.2931 9.9402 74.3092 8.63503C73.3254 7.32986 72.0308 6.33792 70.4255 5.62791C68.8409 4.90745 66.9974 4.56289 64.9365 4.56289C62.658 4.56289 60.6799 4.98054 58.9917 5.8263C57.2932 6.69293 55.9779 7.88325 55.0458 9.40769C54.093 10.9321 53.627 12.7072 53.627 14.7432C53.627 16.7793 54.1034 18.5543 55.0458 20.0788C55.9779 21.6241 57.2932 22.8144 58.9917 23.6602C60.6902 24.5059 62.658 24.9445 64.9365 24.9445C66.9974 24.9445 68.8409 24.579 70.4255 23.8586C72.0308 23.159 73.3254 22.1566 74.3092 20.8514C75.2931 19.5672 75.8835 18.0636 76.0595 16.3408H70.6741C70.4876 17.1865 70.1666 17.9174 69.6695 18.5021C69.162 19.0869 68.4992 19.5254 67.7017 19.8178C66.8939 20.1101 65.9721 20.2563 64.9261 20.2563C63.704 20.2563 62.6683 20.037 61.788 19.5985C60.8973 19.1599 60.2138 18.5126 59.7581 17.6877C59.2817 16.8628 59.0435 15.8918 59.0435 14.7328C59.0435 13.5738 59.2817 12.6028 59.7581 11.7779C60.2138 10.953 60.887 10.3057 61.788 9.86711V9.87755Z" fill="#D33E2E"/>
<path d="M76.6396 9.7627H84.0447V24.5164H89.4302V9.7627H96.8559V4.95966H76.6396V9.7627Z" fill="#D33E2E"/>
<path d="M136.999 5.8263C135.28 4.98054 133.26 4.56289 130.94 4.56289C128.62 4.56289 126.611 4.98054 124.881 5.8263C123.152 6.69293 121.795 7.88325 120.853 9.40769C119.889 10.9321 119.413 12.7072 119.413 14.7432C119.413 16.7793 119.889 18.5543 120.853 20.0788C121.805 21.6241 123.152 22.8144 124.881 23.6602C126.611 24.5059 128.641 24.9445 130.94 24.9445C133.239 24.9445 135.28 24.5059 136.999 23.6602C138.728 22.8144 140.085 21.6241 141.048 20.0788C142.011 18.5543 142.508 16.7793 142.508 14.7432C142.508 12.7072 142.011 10.9321 141.048 9.40769C140.085 7.88325 138.728 6.69293 136.999 5.8263ZM136.326 17.6042C135.828 18.4082 135.124 19.0346 134.213 19.4523C133.301 19.8908 132.204 20.1101 130.95 20.1101C129.697 20.1101 128.631 19.8908 127.698 19.4523C126.787 19.0346 126.072 18.4082 125.586 17.6042C125.078 16.8106 124.84 15.8605 124.84 14.7432C124.84 13.626 125.078 12.6758 125.586 11.8823C126.083 11.0783 126.787 10.4727 127.698 10.0342C128.631 9.59564 129.708 9.39725 130.95 9.39725C132.193 9.39725 133.301 9.59564 134.213 10.0342C135.124 10.4727 135.839 11.0783 136.326 11.8823C136.823 12.6758 137.051 13.6469 137.051 14.7432C137.051 15.8396 136.812 16.8106 136.326 17.6042Z" fill="#D33E2E"/>
<path d="M158.613 0.250595H151.86V4.04082H158.613V0.250595Z" fill="#D33E2E"/>
<path d="M150.555 19.1391V18.6379V9.38681V4.95966H145.283V9.38681V18.6379V24.5164H152.088L161.823 10.0655V24.5164H167.125V4.95966H160.104L150.555 19.1391Z" fill="#D33E2E"/>
<path d="M185.882 5.80542C184.691 5.25202 183.293 4.95966 181.667 4.95966H170.751V24.5059H176.116V18.4395H181.667C183.293 18.4395 184.691 18.168 185.882 17.5937C187.073 17.0403 187.964 16.2572 188.606 15.2444C189.227 14.2212 189.538 13.0413 189.538 11.7048C189.538 10.3683 189.227 9.17798 188.606 8.14429C187.964 7.13147 187.073 6.34837 185.882 5.79497V5.80542ZM183.365 13.4694C182.868 13.887 182.195 14.1063 181.336 14.1063H176.116V9.2824H181.336C182.195 9.2824 182.868 9.50167 183.365 9.91932C183.842 10.337 184.08 10.9426 184.08 11.6944C184.08 12.4461 183.842 13.0309 183.365 13.459V13.4694Z" fill="#D33E2E"/>
<path d="M196.788 16.6958H208.636V12.7907H196.788V9.34505H209.361V4.95966H191.423V24.5164H209.495V20.131H196.788V16.6958Z" fill="#D33E2E"/>
<path d="M232.715 4.95966L226.822 19.233L220.898 4.95966H212.592V24.5164H217.698V9.78358L224.088 24.5164H229.525L235.894 9.71049V24.5164H241V4.95966H232.715Z" fill="#D33E2E"/>
<path d="M114.286 5.80542C113.095 5.25202 111.697 4.95966 110.071 4.95966H99.1553V24.5059H104.52V18.4395H110.071C111.697 18.4395 113.095 18.168 114.286 17.5937C115.477 17.0403 116.389 16.2572 117.01 15.2444C117.632 14.2212 117.942 13.0413 117.942 11.7048C117.942 10.3683 117.632 9.17798 117.01 8.14429C116.389 7.13147 115.477 6.34837 114.286 5.79497V5.80542ZM111.77 13.4694C111.273 13.887 110.599 14.1063 109.74 14.1063H104.52V9.2824H109.74C110.599 9.2824 111.273 9.50167 111.77 9.91932C112.246 10.337 112.484 10.9426 112.484 11.6944C112.484 12.4461 112.246 13.0309 111.77 13.459V13.4694Z" fill="#D33E2E"/>
<path d="M30.2519 18.1471L39.635 8.70812L34.8709 3.89464L25.4774 13.3545V0H18.7352V13.3545L9.32101 3.89464L4.5673 8.70812L13.9608 18.1471H0V24.934H8.7514H10.9367H13.4844V22.3759L22.1115 13.7095L30.7179 22.355V24.934H33.276H35.4406H44.192V18.1471H30.2519Z" fill="#D33E2E"/>
</g>
<defs>
<clipPath id="clip0_35_1491">
<rect width="241" height="44" fill="white"/>
</clipPath>
</defs>
</svg>
