<svg width="0" height="0" class="hidden">
  <symbol xmlns="http://www.w3.org/2000/svg" viewBox="0 0 36 36" id="ic_service1">
    <path d="M34.3732 13.2695L20.5789 1.03457C19.1395 -0.344878 16.8605 -0.344878 15.4211 1.03457L10.803 5.2328V3.61348H11.4027C11.7625 3.61348 12.0024 3.3736 12.0024 3.01375V0.61477C12.0024 0.25492 11.7625 0.015043 11.4027 0.015043H4.20575C3.8459 0.015043 3.60602 0.25492 3.60602 0.61477V3.01375C3.60602 3.3736 3.8459 3.61348 4.20575 3.61348H4.80548V10.5106L1.62685 13.2695C1.20705 13.6893 1.08707 14.2891 1.267 14.7688C1.44692 15.2486 1.9867 15.6085 2.52647 15.6085H4.80555V32.4015H4.20575C3.8459 32.4015 3.60602 32.6414 3.60602 33.0012V35.4002C3.60602 35.7601 3.8459 35.9999 4.20575 35.9999H31.7942C32.1541 35.9999 32.394 35.7601 32.394 35.3402V32.9412C32.394 32.5814 32.1541 32.3415 31.7942 32.3415H31.1945V15.5486H33.4736C34.0733 15.5486 34.5532 15.2487 34.7331 14.7089C34.913 14.2291 34.793 13.6293 34.3732 13.2695ZM33.5935 14.349C33.5335 14.409 33.4735 14.409 33.4735 14.409H30.5947C30.2349 14.409 29.995 14.6489 29.995 15.0087V33.0012C29.995 33.3611 30.2349 33.601 30.5947 33.601H31.1945V34.8005H4.80548V33.601H5.4052C5.76505 33.601 6.00493 33.3611 6.00493 33.0013V15.0088C6.00493 14.6489 5.76505 14.4091 5.4052 14.4091H2.5264C2.46645 14.4091 2.46645 14.4091 2.40643 14.3491C2.40643 14.2892 2.40643 14.2291 2.46638 14.1692L5.82501 11.2904C5.94498 11.1704 6.00493 10.9905 6.00493 10.8106V3.01375C6.00493 2.6539 5.76505 2.41402 5.4052 2.41402H4.80548V1.2145H10.803V2.41402H10.2032C9.84338 2.41402 9.60351 2.6539 9.60351 3.01375V6.61225C9.60351 6.85213 9.72348 7.09208 9.96336 7.272C10.2032 7.33195 10.4432 7.33195 10.6231 7.15203L16.2607 1.99415C17.2203 1.03457 18.7197 1.03457 19.7393 1.99415L33.5335 14.2291C33.5935 14.2291 33.6535 14.2891 33.5935 14.349Z" fill="currentColor"></path>
    <path d="M22.7978 11.4103C19.7991 11.4103 17.4001 13.8093 17.4001 16.808C17.4001 17.1623 17.4347 17.5077 17.4986 17.8422L8.58375 26.524C8.40383 26.644 8.34388 26.8838 8.40383 27.0638L9.00356 30.0625C9.06351 30.3624 9.30345 30.5424 9.60328 30.5424H12.6021C12.9619 30.5424 13.2018 30.3025 13.2618 30.0625V28.2633H15.6608C16.0206 28.2633 16.2605 28.0234 16.2605 27.6636V25.8642H18.0598C18.4196 25.8642 18.6595 25.6244 18.6595 25.2645V23.4653H20.4587C20.6387 23.4653 20.8186 23.3453 20.9386 23.2254C20.9386 23.2254 21.4367 22.6367 21.8821 22.1282C22.1796 22.1783 22.4852 22.2058 22.7978 22.2058C25.7966 22.2058 28.1956 19.8068 28.1956 16.808C28.1956 13.8093 25.7966 11.4103 22.7978 11.4103ZM20.099 22.1458H17.9998C17.64 22.1458 17.4001 22.3856 17.4001 22.7455V24.5447H15.6008C15.241 24.5447 15.0011 24.7846 15.0011 25.1445V26.9437H12.6021C12.2423 26.9437 12.0024 27.1836 12.0024 27.5434V29.3427H10.0832L9.66338 27.1836L17.88 19.087C18.004 19.3486 18.151 19.597 18.3163 19.8319C18.3178 19.8342 18.3195 19.8365 18.3211 19.8389C18.3387 19.8637 18.356 19.8888 18.374 19.9134C18.9092 20.6776 19.6374 21.2945 20.4911 21.6948C20.3267 21.865 20.2125 22.0323 20.099 22.1458ZM22.7978 21.0063C22.4295 21.0063 22.0731 20.9599 21.734 20.8731C20.2566 20.4434 19.1358 19.3126 18.7795 17.8875C18.7626 17.8366 18.7353 17.7861 18.7018 17.7379C18.6356 17.4391 18.5996 17.1282 18.5996 16.808C18.5996 14.4689 20.4588 12.6097 22.7978 12.6097C25.1369 12.6097 26.9961 14.4689 26.9961 16.808C26.9961 19.1471 25.1369 21.0063 22.7978 21.0063Z" fill="currentColor"></path>
    <path d="M23.398 13.8092C22.0786 13.8092 20.999 14.8888 20.999 16.2082C20.999 17.5277 22.0786 18.6072 23.398 18.6072C24.7174 18.6072 25.797 17.5277 25.797 16.2082C25.797 14.8888 24.7174 13.8092 23.398 13.8092ZM23.398 17.4078C22.7383 17.4078 22.1985 16.868 22.1985 16.2082C22.1985 15.5485 22.7383 15.0087 23.398 15.0087C24.0578 15.0087 24.5975 15.5485 24.5975 16.2082C24.5975 16.868 24.0577 17.4078 23.398 17.4078Z" fill="currentColor"></path>
  </symbol>
  <symbol fill="none" xmlns="http://www.w3.org/2000/svg" viewBox="0 0 36 36" id="ic_service2">
    <path d="M27.4219 22.4027C28.5925 23.5733 28.5918 25.4779 27.4209 26.6488C26.2502 27.8194 24.3464 27.82 23.1758 26.6498L21.9736 25.4476L22.4766 24.5746L23.8633 25.9613C24.6541 26.7521 25.9421 26.7525 26.7334 25.9613C27.5249 25.1698 27.5243 23.8821 26.7334 23.0912L24.5781 20.9359L25.082 20.0629L27.4219 22.4027ZM15.416 14.5746C15.61 14.4168 15.8906 14.431 16.0674 14.6078L18.6543 17.1947L18.1514 18.0668L15.6904 15.6068L6.11621 23.4261C5.9226 23.5838 5.64078 23.5708 5.46387 23.3939L1.68945 19.6185C1.49958 19.4287 1.49938 19.1211 1.68945 18.931C1.87923 18.7413 2.18699 18.7413 2.37695 18.931L5.84082 22.3949L15.416 14.5746Z" fill="currentColor"></path>
    <path d="M21.2525 5.04554L17.3047 0.659668C17.1251 0.460085 16.8171 0.443994 16.6176 0.62364L0.864532 14.803C0.664949 14.9827 0.648857 15.2906 0.82841 15.4901L4.77616 19.876C4.95599 20.0758 5.26376 20.0916 5.46324 19.9121L21.2163 5.73272C21.4165 5.55251 21.4322 5.24523 21.2525 5.04554ZM20.2037 5.33499L5.17378 18.8635L1.87708 15.2009L16.907 1.67243L20.2037 5.33499Z" fill="currentColor"></path>
    <path d="M19.5194 14.6101L20.6803 17.7762C20.771 18.0236 20.7393 18.3007 20.5956 18.5174L17.6273 22.993C17.214 23.0604 16.8299 23.2843 16.5789 23.6481L12.0521 30.2108C11.7058 30.7086 11.5819 31.3134 11.703 31.9138C11.8241 32.5142 12.175 33.0332 12.6907 33.3753C13.2065 33.7173 13.8211 33.8385 14.4213 33.7165C15.0216 33.5945 15.5305 33.245 15.8531 32.7344L20.139 26.0091C20.3766 25.6363 20.4333 25.1954 20.3346 24.7884L23.3029 20.3127C23.4466 20.0961 23.6896 19.959 23.9527 19.9464L27.3211 19.7841C28.055 19.7487 28.6928 19.2865 28.9447 18.61L34.6694 3.54393C34.9707 2.73464 34.6687 1.82959 33.9349 1.34294C33.2011 0.856288 32.2499 0.930204 31.6186 1.52539L19.9724 12.6548C19.4442 13.1528 19.2664 13.9203 19.5194 14.6101ZM19.0677 25.3253L18.5203 26.1843L17.0473 25.2074L17.6256 24.369C17.7133 24.2419 17.8751 24.1942 18.0187 24.2399L19.0337 24.913C19.1316 25.0275 19.1506 25.1952 19.0677 25.3253ZM14.1456 32.4887C13.8797 32.5428 13.6074 32.489 13.379 32.3375C13.1505 32.186 12.9952 31.956 12.9414 31.6901C12.8878 31.4241 12.9427 31.1562 13.0975 30.9337L16.3402 26.2326L17.8509 27.2346L14.7804 32.0527C14.6371 32.2798 14.4116 32.4347 14.1456 32.4887ZM20.8544 13.568L32.5006 2.43874C32.7032 2.2477 33.0099 2.22387 33.2465 2.38079C33.4831 2.53772 33.5805 2.82951 33.4848 3.08668L27.7601 18.1527C27.6784 18.372 27.4727 18.5211 27.2361 18.5326L23.8677 18.6948C23.2099 18.7265 22.6028 19.0687 22.2436 19.6104L19.5171 23.7214L18.9282 23.3308L21.6547 19.2198C22.0139 18.6782 22.093 17.9857 21.8663 17.3675L20.7054 14.2013C20.6239 13.9788 20.6812 13.7314 20.8544 13.568Z" fill="currentColor"></path>
    <path d="M21.8152 15.3629L25.0389 17.5009C25.3025 17.6757 25.7229 17.5056 25.9779 17.121C26.233 16.7365 26.2261 16.283 25.9626 16.1082L22.7388 13.9702C22.4753 13.7954 22.0549 13.9655 21.7998 14.3501C21.5448 14.7346 21.5517 15.1882 21.8152 15.3629Z" fill="currentColor"></path>
  </symbol>
  <symbol fill="none" xmlns="http://www.w3.org/2000/svg" viewBox="0 0 36 36" id="ic_service3">
    <path d="M3 3V30H7.5V28.5H4.5V19.5H9V13.5H16.5V12H9V4.5H31.5V12H22.5V13.5H31.5V21H25.5V22.5H31.5V31.5H16.5V21H15V28.5H12V30H15V33H33V3H3ZM7.5 9H4.5V7.5H7.5V9ZM4.5 18V16.5H7.5V18H4.5ZM7.5 15H4.5V13.5H7.5V15ZM4.5 12V10.5H7.5V12H4.5ZM7.5 6H4.5V4.5H7.5V6Z" fill="currentColor"></path>
  </symbol>
  <symbol fill="none" xmlns="http://www.w3.org/2000/svg" viewBox="0 0 36 36" id="ic_service4">
    <path d="M22.5391 16.5H25.5391C25.9531 16.5 26.2891 16.164 26.2891 15.75V12.75C26.2891 12.336 25.9531 12 25.5391 12H22.5391C22.1251 12 21.7891 12.336 21.7891 12.75V15.75C21.7891 16.164 22.1251 16.5 22.5391 16.5ZM24.7891 13.5V15H23.2891V13.5H24.7891Z" fill="currentColor"></path>
    <path d="M10.5391 28.5H13.5391C13.9531 28.5 14.2891 28.1639 14.2891 27.7499V24.75C14.2891 24.336 13.9531 24 13.5391 24H10.5391C10.1251 24 9.78906 24.336 9.78906 24.75V27.75C9.78906 28.164 10.1251 28.5 10.5391 28.5ZM11.2891 25.5H12.7891V27H11.2891V25.5Z" fill="currentColor"></path>
    <path d="M10.5391 10.5H13.5391C13.9531 10.5 14.2891 10.1639 14.2891 9.74995V6.74999C14.2891 6.33599 13.9531 5.99997 13.5391 5.99997H10.5391C10.1251 5.99997 9.78906 6.33599 9.78906 6.74999V9.75002C9.78906 10.164 10.1251 10.5 10.5391 10.5ZM11.2891 7.50002H12.7891V8.99999H11.2891V7.50002Z" fill="currentColor"></path>
    <path d="M31.4611 34.5H29.2891V3.74998C29.2891 3.33598 28.9531 2.99995 28.5391 2.99995H26.2891V0.749953C26.2891 0.336023 25.9531 0 25.5391 0H10.5391C10.1251 0 9.78911 0.336023 9.78911 0.750023V3.00002H7.53911C7.12511 3.00002 6.78909 3.33605 6.78909 3.75005V34.5H4.53909C4.12509 34.5 3.78906 34.836 3.78906 35.25C3.78906 35.664 4.12509 36.0001 4.53909 36.0001H13.5391C13.9531 36.0001 14.2891 35.664 14.2891 35.25V31.5H21.7891V35.25C21.7891 35.664 22.1252 36 22.5392 36H31.4612C31.8752 36 32.2112 35.664 32.2112 35.25C32.2111 34.836 31.8751 34.5 31.4611 34.5ZM11.2892 1.49998H24.7892V2.99995H11.2892V1.49998ZM27.7891 34.5H23.2891V30.75C23.2891 30.336 22.9531 30 22.5391 30H13.5391C13.1251 30 12.7891 30.336 12.7891 30.75V34.5H8.28906V4.5H27.789V34.5H27.7891Z" fill="currentColor"></path>
    <path d="M16.5391 28.5H19.5391C19.9531 28.5 20.2891 28.1639 20.2891 27.7499V24.75C20.2891 24.336 19.9531 24 19.5391 24H16.5391C16.1251 24 15.7891 24.336 15.7891 24.75V27.75C15.7891 28.164 16.1251 28.5 16.5391 28.5ZM17.2891 25.5H18.7891V27H17.2891V25.5Z" fill="currentColor"></path>
    <path d="M22.5391 10.5H25.5391C25.9531 10.5 26.2891 10.1639 26.2891 9.74995V6.74999C26.2891 6.33599 25.9531 5.99997 25.5391 5.99997H22.5391C22.1251 5.99997 21.7891 6.33599 21.7891 6.74999V9.75002C21.7891 10.164 22.1251 10.5 22.5391 10.5ZM24.7891 7.50002V8.99999H23.2891V7.50002H24.7891Z" fill="currentColor"></path>
    <path d="M10.5391 16.5H13.5391C13.9531 16.5 14.2891 16.164 14.2891 15.75V12.75C14.2891 12.336 13.9531 12 13.5391 12H10.5391C10.1251 12 9.78906 12.336 9.78906 12.75V15.75C9.78906 16.164 10.1251 16.5 10.5391 16.5ZM11.2891 13.5H12.7891V15H11.2891V13.5Z" fill="currentColor"></path>
    <path d="M16.5391 22.5H19.5391C19.9531 22.5 20.2891 22.164 20.2891 21.75V18.7499C20.2891 18.3359 19.9531 17.9999 19.5391 17.9999H16.5391C16.1251 17.9999 15.7891 18.3359 15.7891 18.7499V21.75C15.7891 22.164 16.1251 22.5 16.5391 22.5ZM17.2891 19.5H18.7891V20.9999H17.2891V19.5Z" fill="currentColor"></path>
    <path d="M16.5391 10.5H19.5391C19.9531 10.5 20.2891 10.1639 20.2891 9.74995V6.74999C20.2891 6.33599 19.9531 5.99997 19.5391 5.99997H16.5391C16.1251 5.99997 15.7891 6.33599 15.7891 6.74999V9.75002C15.7891 10.164 16.1251 10.5 16.5391 10.5ZM17.2891 7.50002H18.7891V8.99999H17.2891V7.50002Z" fill="currentColor"></path>
    <path d="M16.5391 16.5H19.5391C19.9531 16.5 20.2891 16.164 20.2891 15.75V12.75C20.2891 12.336 19.9531 12 19.5391 12H16.5391C16.1251 12 15.7891 12.336 15.7891 12.75V15.75C15.7891 16.164 16.1251 16.5 16.5391 16.5ZM17.2891 13.5H18.7891V15H17.2891V13.5Z" fill="currentColor"></path>
    <path d="M22.5391 28.5H25.5391C25.9531 28.5 26.2891 28.1639 26.2891 27.7499V24.75C26.2891 24.336 25.9531 24 25.5391 24H22.5391C22.1251 24 21.7891 24.336 21.7891 24.75V27.75C21.7891 28.164 22.1251 28.5 22.5391 28.5ZM24.7891 25.5V27H23.2891V25.5H24.7891Z" fill="currentColor"></path>
    <path d="M10.5391 22.5H13.5391C13.9531 22.5 14.2891 22.164 14.2891 21.75V18.7499C14.2891 18.3359 13.9531 17.9999 13.5391 17.9999H10.5391C10.1251 17.9999 9.78906 18.3359 9.78906 18.7499V21.75C9.78906 22.164 10.1251 22.5 10.5391 22.5ZM11.2891 19.5H12.7891V20.9999H11.2891V19.5Z" fill="currentColor"></path>
    <path d="M22.5391 22.5H25.5391C25.9531 22.5 26.2891 22.164 26.2891 21.75V18.7499C26.2891 18.3359 25.9531 17.9999 25.5391 17.9999H22.5391C22.1251 17.9999 21.7891 18.3359 21.7891 18.7499V21.75C21.7891 22.164 22.1251 22.5 22.5391 22.5ZM24.7891 19.5V20.9999H23.2891V19.5H24.7891Z" fill="currentColor"></path>
  </symbol>
  <symbol fill="none" xmlns="http://www.w3.org/2000/svg" viewBox="0 0 36 36" id="ic_service5">
    <path d="M4.59354 5.47742L5.55743 9.09257C5.60485 9.27128 5.74592 9.41104 5.92537 9.45656C6.10525 9.50106 6.29505 9.44679 6.42285 9.31286C7.16922 8.52433 9.46873 6.47896 11.1201 6.47896C11.4985 6.47896 11.8143 6.58677 12.0826 6.80823L12.7054 10.6575C12.7458 10.905 12.9596 11.0869 13.2099 11.0869C13.2104 11.0869 13.2109 11.0869 13.2114 11.0869L16.5978 11.0752V14.2724H14.4891C14.2069 14.2724 13.9779 14.5016 13.9779 14.7836V35.4888C13.9779 35.771 14.2071 36 14.4891 36H22.7336C23.0163 36 23.2449 35.771 23.2449 35.4888V14.7836C23.2449 14.5014 23.0163 14.2724 22.7336 14.2724H20.6237V11.0605L24.0177 11.0488C24.1595 11.0484 24.2953 10.9885 24.3912 10.8842C24.4876 10.7799 24.5361 10.6405 24.5256 10.4988L24.4282 9.22416H25.6299V10.5764C25.6299 10.8587 25.859 11.0876 26.1411 11.0876H30.912C31.1948 11.0876 31.4232 10.8587 31.4232 10.5764V0.511197C31.4232 0.229047 31.1948 0 30.912 0H26.1411C25.859 0 25.6299 0.229193 25.6299 0.511197V3.21468H23.9703L23.8691 1.88898C23.8536 1.68605 23.7194 1.51185 23.5269 1.44489C23.4272 1.40988 21.0382 0.595084 17.5459 0.595084C14.2695 0.595084 9.39374 1.34919 4.77415 4.94215C4.61148 5.0685 4.54044 5.27916 4.59354 5.47742ZM22.2218 34.977H14.9998V15.2942H17.1087H20.112H22.2218V34.977ZM17.6199 14.2718V11.0867H19.6008V14.2718H17.6199ZM26.6522 1.02254H30.4007V10.0648H26.6522V1.02254ZM25.6298 4.23722V8.20133H24.3502L24.0482 4.23722H25.6298ZM17.5458 1.61762C20.1474 1.61762 22.1344 2.10344 22.8758 2.31425L23.4639 10.0276L13.6439 10.0627L13.0626 6.46904C13.0454 6.36268 12.9952 6.26508 12.9196 6.18936C12.4334 5.70282 11.8275 5.45627 11.119 5.45627C9.34925 5.45627 7.3297 7.06791 6.32043 7.98847L5.66918 5.54439C9.98007 2.30564 14.4929 1.61762 17.5458 1.61762Z" fill="currentColor"></path>
  </symbol>
  <symbol fill="none" xmlns="http://www.w3.org/2000/svg" viewBox="0 0 36 36" id="ic_service6">
    <path d="M33 1.8H30C29.64 1.8 29.4 2.03998 29.4 2.39998H25.7449L25.8 1.8C25.8 0.779977 25.0201 0 24 0H12.0001C11.0401 0 10.2001 0.779977 10.2001 1.85998L10.25 2.39998H6.60007C6.60007 2.03998 6.3601 1.8 6.0001 1.8H3.00007C1.6801 1.8 0.600098 2.88 0.600098 4.19998C0.600098 5.51995 1.6801 6.59995 3.00007 6.59995H6.0001C6.3601 6.59995 6.60007 6.35998 6.60007 5.99998H10.5826L11.2201 12.9C11.3643 14.1019 12.2024 15.1106 13.3323 15.4643L14.1601 20.1C14.3153 20.8761 14.8726 21.4281 15.6001 21.5656V25.2C15.6001 25.8049 15.8273 26.359 16.2001 26.7822V33.6C16.2001 33.72 16.26 33.84 16.3201 33.96L17.5201 35.76C17.6401 35.88 17.8201 36 18.0001 36C18.24 36 18.42 35.88 18.4801 35.76L19.6801 33.96C19.7401 33.84 19.8001 33.72 19.8001 33.6V26.7822C20.1729 26.359 20.4001 25.8049 20.4001 25.2V21.5527C21.098 21.3967 21.6292 20.8545 21.7801 20.1L22.6014 15.5006C23.7934 15.1848 24.6804 14.1463 24.7801 12.9L25.4142 5.99998H29.4002C29.4002 6.35998 29.6401 6.59995 30.0001 6.59995H33.0002C34.3201 6.59995 35.4001 5.51995 35.4001 4.19998C35.4001 2.88 34.3201 1.8 33 1.8ZM3.00007 5.4C2.34005 5.4 1.80005 4.86 1.80005 4.19998C1.80005 3.53995 2.34005 2.99995 3.00007 2.99995H5.40005V5.4H3.00007ZM6.60007 4.80002V3.6H10.3608L10.4717 4.80002H6.60007ZM19.2001 25.2C19.2001 25.5241 19.0694 25.8188 18.8586 26.0353C18.8314 26.0537 18.8051 26.075 18.78 26.1C18.6827 26.1973 18.4669 26.3341 18.1967 26.3823C18.1917 26.3831 18.1867 26.3839 18.1817 26.3846C18.1552 26.389 18.1281 26.3924 18.1006 26.3949C18.0673 26.3977 18.0339 26.4 18 26.4C17.9672 26.4 17.935 26.3977 17.9029 26.3951C17.5962 26.3666 17.3833 26.2089 17.22 26.1001C17.1925 26.0726 17.1635 26.0483 17.1335 26.0266C16.9276 25.8109 16.8 25.5199 16.8 25.2001V21.6001H19.2L19.2001 25.2ZM18.6 33.42L18.0001 34.32L17.4001 33.42V27.54C17.7601 27.66 18.2401 27.66 18.6001 27.54V33.42H18.6ZM20.6401 19.92C20.5801 20.22 20.3401 20.4 20.0401 20.4H19.8001H16.2001H16.0201C15.72 20.4 15.4801 20.22 15.4201 19.92L14.6401 15.6H21.4201L20.6401 19.92ZM23.64 12.78C23.536 13.5607 22.9803 14.2055 22.2083 14.3629C22.1472 14.3479 22.0837 14.34 22.02 14.34H21.9601C21.9001 14.34 21.84 14.34 21.7801 14.34H14.1601C14.1001 14.34 14.0401 14.34 13.9801 14.34H13.9201C13.8736 14.34 13.8272 14.3442 13.7818 14.3522C13.0322 14.1845 12.4706 13.5887 12.4201 12.78L11.7436 5.49823C11.7542 5.44648 11.7601 5.39332 11.7601 5.34002L11.5201 2.94005C11.5146 2.91234 11.507 2.88534 11.4985 2.85877L11.4 1.8C11.4 1.44 11.64 1.20002 12 1.20002H24C24.36 1.20002 24.6 1.50005 24.6 1.74002L23.64 12.78ZM25.5601 4.80002L25.6027 3.9484L25.6347 3.6H29.4V4.80002H25.5601ZM33 5.4H30.6001V3.00002H33C33.6601 3.00002 34.2001 3.54002 34.2001 4.20005C34.2001 4.86007 33.6601 5.4 33 5.4Z" fill="currentColor"></path>
    <path d="M18.5998 12H17.3998C17.0398 12 16.7998 12.24 16.7998 12.6C16.7998 12.96 17.0398 13.2 17.3998 13.2H18.5998C18.9598 13.2 19.1998 12.96 19.1998 12.6C19.1998 12.24 18.9598 12 18.5998 12Z" fill="currentColor"></path>
    <path d="M19.8001 9.59998H16.2001C15.8401 9.59998 15.6001 9.83995 15.6001 10.2C15.6001 10.56 15.8401 10.7999 16.2001 10.7999H19.8001C20.1601 10.7999 20.4001 10.56 20.4001 10.2C20.4001 9.84002 20.1601 9.59998 19.8001 9.59998Z" fill="currentColor"></path>
    <path d="M20.9999 7.2H14.9999C14.6399 7.2 14.3999 7.43997 14.3999 7.79997C14.3999 8.15997 14.6399 8.39995 14.9999 8.39995H20.9999C21.3599 8.39995 21.5998 8.15997 21.5998 7.79997C21.5998 7.43997 21.3599 7.2 20.9999 7.2Z" fill="currentColor"></path>
  </symbol>
  <symbol fill="none" xmlns="http://www.w3.org/2000/svg" viewBox="0 0 36 36" id="ic_service7">
    <path d="M31.1427 10.4311L35.845 9.27557L34.6895 13.9779L31.1427 10.4311ZM31.6821 12.7321L30.2235 11.2736L9.12235 32.3747L10.5827 33.8351L31.6821 12.7321ZM32.3884 13.4366L11.2863 34.5396L12.7458 36L33.8479 14.897L32.3884 13.4366ZM30.8261 7.26404L7.41932 30.6726L0.155273 23.4086L23.5638 0L30.8261 7.26404ZM7.41932 29.0607L8.55407 27.9277L7.44006 26.8128L8.24648 26.0073L9.36049 27.1222L10.6693 25.8134L9.55532 24.6985L10.3608 23.893L11.4757 25.0061L12.7819 23.699L11.6697 22.5841L12.4752 21.7786L13.5883 22.8917L14.8971 21.5829L13.7822 20.4698L14.5877 19.6624L15.7027 20.7773L17.0115 19.4685L15.8966 18.3536L16.7021 17.5481L17.817 18.663L19.1259 17.3541L18.0109 16.241L18.8156 15.4355L19.9323 16.5477L21.2393 15.2416L20.1244 14.1249L20.9317 13.3185L22.0448 14.4334L23.3537 13.1263L22.2406 12.0105L23.0461 11.2041L24.161 12.319L25.468 11.0102L24.3549 9.89617L25.1622 9.09065L26.2753 10.2056L27.5824 8.89672L26.4711 7.78361L27.2766 6.9781L28.3897 8.0903L29.2232 7.25863L23.5693 1.60651L1.76991 23.4059L7.41932 29.0607Z" fill="currentColor"></path>
  </symbol>
</svg>