<svg width="0" height="0" class="hidden">
  <symbol fill="none" xmlns="http://www.w3.org/2000/svg" viewBox="0 0 28 28" id="ic_arr_double">
    <path d="M18.8244 21.3418C19.28 21.7974 20.0187 21.7974 20.4743 21.3418L26.1763 15.6343C27.0867 14.7229 27.0864 13.2461 26.1756 12.3352L20.4701 6.62979C20.0145 6.17418 19.2758 6.17418 18.8202 6.62979C18.3646 7.08541 18.3646 7.8241 18.8202 8.27971L23.7034 13.1629C24.1591 13.6186 24.1591 14.3572 23.7034 14.8128L18.8244 19.6919C18.3688 20.1475 18.3688 20.8863 18.8244 21.3418Z" fill="currentColor"></path>
    <path d="M9.20056 6.62979C8.74495 6.17418 8.00626 6.17418 7.55065 6.62979L1.84862 12.3374C0.938164 13.2488 0.938525 14.7256 1.84944 15.6364L7.55486 21.3418C8.01046 21.7974 8.74916 21.7974 9.20477 21.3418C9.66039 20.8863 9.66039 20.1475 9.20477 19.6919L4.32151 14.8086C3.8659 14.353 3.8659 13.6143 4.32152 13.1587L9.20056 8.27971C9.65618 7.8241 9.65618 7.08541 9.20056 6.62979Z" fill="currentColor"></path>
  </symbol>
  <symbol fill="none" xmlns="http://www.w3.org/2000/svg" viewBox="0 0 16 16" id="ic_arr_hor">
    <path d="M6.20643 12.778C6.47825 13.074 6.91892 13.074 7.1908 12.778L10.5927 9.07072C11.1359 8.47873 11.1357 7.5195 10.5923 6.92789L7.1883 3.22194C6.91642 2.92602 6.47574 2.92602 6.20386 3.22194C5.93205 3.51786 5.93205 3.9977 6.20386 4.29362L9.11736 7.46555C9.38918 7.76147 9.38918 8.24123 9.11736 8.53723L6.20643 11.7064C5.93455 12.0023 5.93455 12.4821 6.20643 12.778Z" fill="currentColor"></path>
  </symbol>
  <symbol fill="none" xmlns="http://www.w3.org/2000/svg" viewBox="0 0 16 16" id="ic_arr_ver">
    <path d="M3.22196 6.20643C2.92601 6.47825 2.92601 6.91892 3.22196 7.1908L6.92928 10.5927C7.52128 11.1359 8.4805 11.1357 9.07211 10.5923L12.7781 7.1883C13.074 6.91642 13.074 6.47574 12.7781 6.20386C12.4821 5.93205 12.0023 5.93205 11.7064 6.20386L8.53446 9.11736C8.23853 9.38918 7.75877 9.38918 7.46277 9.11736L4.29365 6.20643C3.99771 5.93455 3.51789 5.93455 3.22196 6.20643Z" fill="currentColor"></path>
  </symbol>
  <symbol fill="none" xmlns="http://www.w3.org/2000/svg" viewBox="0 0 14 14" id="ic_arrow_diagonal">
    <path d="M4.08594 4.08268L9.91927 9.91602M9.91927 9.91602H4.66927M9.91927 9.91602V4.66602" stroke="currentColor" stroke-width="1.5" stroke-linecap="round" stroke-linejoin="round"></path>
  </symbol>
  <symbol fill="none" xmlns="http://www.w3.org/2000/svg" viewBox="0 0 18 18" id="ic_calendar">
    <path d="M5.57285 1.48317C5.57285 1.16455 5.30207 0.90625 4.96805 0.90625C4.63403 0.90625 4.36326 1.16455 4.36326 1.48317V2.69799C3.20259 2.78664 2.44063 3.00423 1.88083 3.53823C1.32103 4.07223 1.09294 4.79907 1 5.90625H17C16.9071 4.79907 16.679 4.07223 16.1192 3.53823C15.5594 3.00423 14.7974 2.78664 13.6368 2.69799V1.48317C13.6368 1.16455 13.366 0.90625 13.032 0.90625C12.698 0.90625 12.4272 1.16455 12.4272 1.48317V2.64694C11.8907 2.63702 11.2894 2.63702 10.6128 2.63702H7.38723C6.71064 2.63702 6.10931 2.63702 5.57285 2.64694V1.48317Z" fill="currentColor"></path>
    <path fill-rule="evenodd" clip-rule="evenodd" d="M1 8.74298C1 8.05809 1 7.44935 1.01032 6.90625H16.9897C17 7.44935 17 8.05809 17 8.74298V10.3756C17 13.4542 17 14.9935 16.0627 15.9498C15.1255 16.9062 13.617 16.9062 10.6 16.9062H7.4C4.38301 16.9062 2.87452 16.9062 1.93726 15.9498C1 14.9935 1 13.4542 1 10.3756V8.74298ZM13 10.3756C13.4418 10.3756 13.8 10.0102 13.8 9.55931C13.8 9.10845 13.4418 8.74298 13 8.74298C12.5582 8.74298 12.2 9.10845 12.2 9.55931C12.2 10.0102 12.5582 10.3756 13 10.3756ZM13 13.6409C13.4418 13.6409 13.8 13.2755 13.8 12.8246C13.8 12.3738 13.4418 12.0083 13 12.0083C12.5582 12.0083 12.2 12.3738 12.2 12.8246C12.2 13.2755 12.5582 13.6409 13 13.6409ZM9.8 9.55931C9.8 10.0102 9.44184 10.3756 9 10.3756C8.55816 10.3756 8.2 10.0102 8.2 9.55931C8.2 9.10845 8.55816 8.74298 9 8.74298C9.44184 8.74298 9.8 9.10845 9.8 9.55931ZM9.8 12.8246C9.8 13.2755 9.44184 13.6409 9 13.6409C8.55816 13.6409 8.2 13.2755 8.2 12.8246C8.2 12.3738 8.55816 12.0083 9 12.0083C9.44184 12.0083 9.8 12.3738 9.8 12.8246ZM5 10.3756C5.44182 10.3756 5.8 10.0102 5.8 9.55931C5.8 9.10845 5.44182 8.74298 5 8.74298C4.55818 8.74298 4.2 9.10845 4.2 9.55931C4.2 10.0102 4.55818 10.3756 5 10.3756ZM5 13.6409C5.44182 13.6409 5.8 13.2755 5.8 12.8246C5.8 12.3738 5.44182 12.0083 5 12.0083C4.55818 12.0083 4.2 12.3738 4.2 12.8246C4.2 13.2755 4.55818 13.6409 5 13.6409Z" fill="currentColor"></path>
  </symbol>
  <symbol fill="none" xmlns="http://www.w3.org/2000/svg" viewBox="0 0 22 22" id="ic_check">
    <path d="M6.41797 11.0007L9.06782 13.6505C9.12318 13.7057 9.21289 13.7058 9.26825 13.6505L15.5846 7.33398" stroke="currentColor" stroke-width="2" stroke-linecap="round" stroke-linejoin="round"></path>
  </symbol>
  <symbol fill="none" xmlns="http://www.w3.org/2000/svg" viewBox="0 0 22 22" id="ic_check_circle">
    <path fill-rule="evenodd" clip-rule="evenodd" d="M20.1673 11.0002C20.1673 16.0627 16.0632 20.1668 11.0007 20.1668C5.93804 20.1668 1.83398 16.0627 1.83398 11.0002C1.83398 5.93755 5.93804 1.8335 11.0007 1.8335C16.0632 1.8335 20.1673 5.93755 20.1673 11.0002ZM14.6951 8.22236C14.9636 8.49084 14.9636 8.92615 14.6951 9.1946L10.1118 13.7779C9.84327 14.0464 9.40803 14.0464 9.13952 13.7779L7.30618 11.9446C7.0377 11.6761 7.0377 11.2409 7.30618 10.9724C7.57466 10.7039 8.00997 10.7039 8.27845 10.9724L9.62565 12.3195L11.6742 10.271L13.7229 8.22236C13.9914 7.95388 14.4266 7.95388 14.6951 8.22236Z" fill="currentColor"></path>
  </symbol>
  <symbol fill="none" xmlns="http://www.w3.org/2000/svg" viewBox="0 0 17 17" id="ic_close">
    <path d="M8.49981 7.49877L12.0059 3.99268L13.0076 4.99441L9.50153 8.50049L13.0076 12.0065L12.0059 13.0083L8.49981 9.50222L4.99374 13.0083L3.992 12.0065L7.49808 8.50049L3.992 4.99441L4.99374 3.99268L8.49981 7.49877Z" fill="currentColor"></path>
  </symbol>
  <symbol fill="none" xmlns="http://www.w3.org/2000/svg" viewBox="0 0 22 22" id="ic_close_circle">
    <path fill-rule="evenodd" clip-rule="evenodd" d="M20.1673 11.0002C20.1673 16.0627 16.0632 20.1668 11.0007 20.1668C5.93804 20.1668 1.83398 16.0627 1.83398 11.0002C1.83398 5.93755 5.93804 1.8335 11.0007 1.8335C16.0632 1.8335 20.1673 5.93755 20.1673 11.0002ZM8.22281 8.22234C8.49129 7.95386 8.92659 7.95386 9.19509 8.22234L11.0007 10.0279L12.8061 8.22236C13.0746 7.95388 13.5099 7.95388 13.7784 8.22236C14.0469 8.49084 14.0469 8.92615 13.7784 9.1946L11.9729 11.0002L13.7784 12.8056C14.0469 13.0741 14.0469 13.5094 13.7784 13.7779C13.5099 14.0464 13.0746 14.0464 12.8061 13.7779L11.0007 11.9725L9.19509 13.7779C8.92662 14.0464 8.49131 14.0464 8.22283 13.7779C7.95435 13.5094 7.95435 13.0741 8.22283 12.8057L10.0283 11.0002L8.22281 9.1946C7.95432 8.92613 7.95432 8.49082 8.22281 8.22234Z" fill="currentColor"></path>
  </symbol>
  <symbol fill="none" xmlns="http://www.w3.org/2000/svg" viewBox="0 0 18 18" id="ic_currency">
    <path fill-rule="evenodd" clip-rule="evenodd" d="M9 17C4.5815 17 1 13.4185 1 9C1 4.5815 4.5815 1 9 1C13.4185 1 17 4.5815 17 9C17 13.4185 13.4185 17 9 17ZM6.25 8.619V9.523H7.132V10.827H6.25V11.6795H7.132V13.5H8.126V11.6795H10.126V10.827H8.126V9.523H9.3805C9.76268 9.5262 10.1433 9.47399 10.5105 9.368C10.8585 9.2645 11.1605 9.108 11.4175 8.8965C11.6745 8.686 11.8775 8.4215 12.0265 8.1025C12.1755 7.784 12.25 7.4095 12.25 6.979C12.25 6.549 12.18 6.179 12.039 5.869C11.898 5.559 11.7035 5.3025 11.455 5.1005C11.2065 4.8985 10.9085 4.7475 10.5605 4.6485C10.1842 4.54577 9.79552 4.4958 9.4055 4.5H7.132V8.619H6.25ZM9.405 8.619H8.126V5.404H9.4055C9.9765 5.404 10.426 5.529 10.753 5.7785C11.08 6.028 11.244 6.4285 11.244 6.979C11.244 7.53 11.08 7.941 10.753 8.2125C10.426 8.4835 9.9765 8.619 9.4055 8.619H9.405Z" fill="currentColor"></path>
  </symbol>
  <symbol fill="none" xmlns="http://www.w3.org/2000/svg" viewBox="0 0 24 24" id="ic_grid">
    <path d="M17 18C17 18.5523 17.4477 19 18 19C18.5523 19 19 18.5523 19 18C19 17.4477 18.5523 17 18 17C17.4477 17 17 17.4477 17 18Z" stroke="currentColor" stroke-width="2" stroke-linecap="round" stroke-linejoin="round"></path>
    <path d="M11 18C11 18.5523 11.4477 19 12 19C12.5523 19 13 18.5523 13 18C13 17.4477 12.5523 17 12 17C11.4477 17 11 17.4477 11 18Z" stroke="currentColor" stroke-width="2" stroke-linecap="round" stroke-linejoin="round"></path>
    <path d="M5 18C5 18.5523 5.44772 19 6 19C6.55228 19 7 18.5523 7 18C7 17.4477 6.55228 17 6 17C5.44772 17 5 17.4477 5 18Z" stroke="currentColor" stroke-width="2" stroke-linecap="round" stroke-linejoin="round"></path>
    <path d="M17 12C17 12.5523 17.4477 13 18 13C18.5523 13 19 12.5523 19 12C19 11.4477 18.5523 11 18 11C17.4477 11 17 11.4477 17 12Z" stroke="currentColor" stroke-width="2" stroke-linecap="round" stroke-linejoin="round"></path>
    <path d="M11 12C11 12.5523 11.4477 13 12 13C12.5523 13 13 12.5523 13 12C13 11.4477 12.5523 11 12 11C11.4477 11 11 11.4477 11 12Z" stroke="currentColor" stroke-width="2" stroke-linecap="round" stroke-linejoin="round"></path>
    <path d="M5 12C5 12.5523 5.44772 13 6 13C6.55228 13 7 12.5523 7 12C7 11.4477 6.55228 11 6 11C5.44772 11 5 11.4477 5 12Z" stroke="currentColor" stroke-width="2" stroke-linecap="round" stroke-linejoin="round"></path>
    <path d="M17 6C17 6.55228 17.4477 7 18 7C18.5523 7 19 6.55228 19 6C19 5.44772 18.5523 5 18 5C17.4477 5 17 5.44772 17 6Z" stroke="currentColor" stroke-width="2" stroke-linecap="round" stroke-linejoin="round"></path>
    <path d="M11 6C11 6.55228 11.4477 7 12 7C12.5523 7 13 6.55228 13 6C13 5.44772 12.5523 5 12 5C11.4477 5 11 5.44772 11 6Z" stroke="currentColor" stroke-width="2" stroke-linecap="round" stroke-linejoin="round"></path>
    <path d="M5 6C5 6.55228 5.44772 7 6 7C6.55228 7 7 6.55228 7 6C7 5.44772 6.55228 5 6 5C5.44772 5 5 5.44772 5 6Z" stroke="currentColor" stroke-width="2" stroke-linecap="round" stroke-linejoin="round"></path>
  </symbol>
  <symbol fill="none" xmlns="http://www.w3.org/2000/svg" viewBox="0 0 18 18" id="ic_location">
    <path d="M9 0C5.27231 0 2.25 3.02231 2.25 6.75C2.25 8.21784 2.73122 9.56475 3.53109 10.6678C3.54544 10.6943 3.54769 10.7238 3.564 10.7491L8.064 17.4991C8.27269 17.8121 8.62425 18 9 18C9.37575 18 9.72731 17.8121 9.936 17.4991L14.436 10.7491C14.4526 10.7238 14.4546 10.6943 14.4689 10.6678C15.2688 9.56475 15.75 8.21784 15.75 6.75C15.75 3.02231 12.7277 0 9 0ZM9 9C7.75744 9 6.75 7.99256 6.75 6.75C6.75 5.50744 7.75744 4.5 9 4.5C10.2426 4.5 11.25 5.50744 11.25 6.75C11.25 7.99256 10.2426 9 9 9Z" fill="currentColor"></path>
  </symbol>
  <symbol fill="none" xmlns="http://www.w3.org/2000/svg" viewBox="0 0 45 25" id="ic_logo">
    <path d="M30.2519 18.1471L39.635 8.70812L34.8709 3.89464L25.4774 13.3545V0H18.7352V13.3545L9.32101 3.89464L4.5673 8.70812L13.9608 18.1471H0V24.934H8.7514H10.9367H13.4844V22.3759L22.1115 13.7095L30.7179 22.355V24.934H33.276H35.4406H44.192V18.1471H30.2519Z" fill="currentColor"></path>
  </symbol>
  <symbol fill="none" xmlns="http://www.w3.org/2000/svg" viewBox="0 0 22 22" id="ic_max">
    <path fill-rule="evenodd" clip-rule="evenodd" d="M11.2149 20.9429C9.25212 20.9429 8.34 20.6552 6.75452 19.504C5.75166 20.799 2.57593 21.8111 2.43744 20.0796C2.43744 18.7798 2.1509 17.6815 1.82617 16.4824C1.43935 15.0051 1 13.36 1 10.9763C1 5.28308 5.65137 1 11.1623 1C16.6781 1 20.9999 5.49411 20.9999 11.029C21.0185 16.4783 16.6406 20.9139 11.2149 20.9429ZM11.2961 5.92098C8.6122 5.78189 6.52052 7.64764 6.05729 10.5734C5.67525 12.9955 6.35337 15.9452 6.93121 16.0987C7.20819 16.1658 7.90542 15.5999 8.34 15.1634C9.05859 15.662 9.89538 15.9614 10.766 16.0315C13.5469 16.1659 15.9231 14.0396 16.1098 11.2496C16.2185 8.45382 14.0774 6.08577 11.2961 5.92578L11.2961 5.92098Z" fill="currentColor"></path>
  </symbol>
  <symbol fill="none" xmlns="http://www.w3.org/2000/svg" viewBox="0 0 24 24" id="ic_measurement">
    <path d="M4.54306 5.12624L5.05756 5.64074L2.95156 7.74674L4.59256 9.38774L6.70831 7.27199L7.18906 7.75274L5.07331 9.86924L6.69331 11.4885L11.5053 6.67649L5.64631 0.85199L0.851562 5.64674L2.43706 7.23299L4.54306 5.12624ZM17.3238 12.4942L12.5118 17.307L14.1311 18.9262L16.2476 16.8105L16.7283 17.2912L14.6126 19.407L16.2536 21.048L18.3588 18.942L18.8733 19.4565L16.7681 21.5625L18.3528 23.148L23.1483 18.3525L17.3238 12.4942ZM22.3661 6.33824C22.9518 5.75174 22.9563 4.80449 22.3751 4.22249L19.7411 1.58924C19.1598 1.00799 18.2118 1.01099 17.6261 1.59824L15.9986 3.22574L20.7386 7.96574L22.3661 6.33824ZM2.54806 19.4565L4.51531 21.4237L8.47831 20.016L3.95581 15.4935L2.54806 19.4565ZM15.4871 3.70724L4.32331 14.8717L9.10006 19.6485L20.2646 8.48399L15.4871 3.70724ZM6.49231 14.862L15.4781 5.87624L16.0016 6.39974L7.01506 15.3862L6.49231 14.862ZM7.53931 15.9097L16.5243 6.92399L17.0478 7.44749L8.06206 16.4325L7.53931 15.9097ZM8.58631 16.956L17.5721 7.97024L18.0948 8.49374L9.10981 17.4795L8.58631 16.956ZM1.46506 22.5075L3.76456 21.6697L2.30281 20.208L1.46506 22.5075Z" fill="currentColor"></path>
  </symbol>
  <symbol fill="none" xmlns="http://www.w3.org/2000/svg" viewBox="0 0 24 17" id="ic_menu">
    <path d="M3 5C3 4.44772 3.44772 4 4 4H20C20.5523 4 21 4.44772 21 5C21 5.55228 20.5523 6 20 6H4C3.44772 6 3 5.55228 3 5ZM9 12C9 11.4477 9.44772 11 10 11H20C20.5523 11 21 11.4477 21 12C21 12.5523 20.5523 13 20 13H10C9.44771 13 9 12.5523 9 12Z" fill="currentColor"></path>
  </symbol>
  <symbol fill="none" xmlns="http://www.w3.org/2000/svg" viewBox="0 0 22 22" id="ic_message">
    <path fill-rule="evenodd" clip-rule="evenodd" d="M11 17.875C10.197 17.875 9.4215 17.7815 8.67625 17.6227L5.4395 19.5683L5.48282 16.379C3.00163 14.8871 1.375 12.4204 1.375 9.625C1.375 5.06894 5.68425 1.375 11 1.375C16.3158 1.375 20.625 5.06894 20.625 9.625C20.625 14.1818 16.3158 17.875 11 17.875ZM11 0C4.92525 0 0 4.30994 0 9.625C0 12.6631 1.61219 15.3684 4.125 17.1318V22L8.94369 19.0761C9.61056 19.1861 10.2967 19.25 11 19.25C17.0748 19.25 22 14.9408 22 9.625C22 4.30994 17.0748 0 11 0ZM15.8125 7.5625H6.1875C5.808 7.5625 5.5 7.8705 5.5 8.25C5.5 8.63019 5.808 8.9375 6.1875 8.9375H15.8125C16.192 8.9375 16.5 8.63019 16.5 8.25C16.5 7.8705 16.192 7.5625 15.8125 7.5625ZM14.4375 11.6875H7.5625C7.183 11.6875 6.875 11.9948 6.875 12.375C6.875 12.7552 7.183 13.0625 7.5625 13.0625H14.4375C14.817 13.0625 15.125 12.7552 15.125 12.375C15.125 11.9948 14.817 11.6875 14.4375 11.6875Z" fill="currentColor"></path>
  </symbol>
  <symbol fill="none" xmlns="http://www.w3.org/2000/svg" viewBox="0 0 20 20" id="ic_odnokl">
    <path d="M10.0001 10.1233C12.7901 10.1233 15.0513 7.8616 15.0513 5.07117C15.0512 2.28074 12.79 0.0195312 10.0001 0.0195312C7.20915 0.0195312 4.947 2.28074 4.947 5.07117C4.94696 7.8616 7.20915 10.1233 10.0001 10.1233ZM10.0001 2.58578C11.3724 2.58578 12.4849 3.69836 12.4849 5.07113C12.4849 6.44395 11.3724 7.55648 10.0001 7.55648C8.62634 7.55648 7.51423 6.44395 7.51423 5.07113C7.51423 3.69836 8.6263 2.58578 10.0001 2.58578ZM15.8226 10.7398C15.5381 10.1667 14.7481 9.69008 13.6979 10.5171C12.2783 11.635 10.0001 11.635 10.0001 11.635C10.0001 11.635 7.72032 11.635 6.30075 10.5171C5.25103 9.69008 4.46157 10.1667 4.1765 10.7398C3.67845 11.7383 4.24032 12.2213 5.50837 13.0351C6.59122 13.7305 8.0795 13.9903 9.04005 14.0873L8.2379 14.8894C7.10829 16.0185 6.01814 17.1096 5.2613 17.8665C4.80857 18.3187 4.80857 19.0522 5.2613 19.5044L5.39724 19.6414C5.84997 20.0936 6.58294 20.0936 7.03564 19.6414L10.0122 16.6643C11.1428 17.7939 12.233 18.8845 12.9898 19.6414C13.4425 20.0936 14.1755 20.0936 14.6282 19.6414L14.7641 19.5044C15.2168 19.0517 15.2168 18.3187 14.7641 17.866L11.7875 14.8895L10.9834 14.0848C11.9449 13.9854 13.4167 13.7247 14.4907 13.0352C15.7588 12.2212 16.3197 11.7383 15.8226 10.7398Z" fill="currentColor"></path>
  </symbol>
  <symbol fill="none" xmlns="http://www.w3.org/2000/svg" viewBox="0 0 22 22" id="ic_phone">
    <path d="M17.4156 16.0413V5.95801C17.4732 4.92553 17.1201 3.91219 16.433 3.1393C15.746 2.36642 14.7811 1.89679 13.7489 1.83301H8.24893C7.21682 1.89679 6.25188 2.36642 5.56487 3.1393C4.87786 3.91219 4.52459 4.92553 4.58227 5.95801V16.0413C4.52459 17.0738 4.87786 18.0871 5.56487 18.8599C6.25188 19.6328 7.21682 20.1025 8.24893 20.1663H13.7489C14.7811 20.1025 15.746 19.6328 16.433 18.8599C17.1201 18.0871 17.4732 17.0738 17.4156 16.0413Z" stroke="currentColor" stroke-width="2" stroke-linecap="round" stroke-linejoin="round"></path>
    <path d="M12.8327 4.58301H9.16602" stroke="currentColor" stroke-width="2" stroke-linecap="round" stroke-linejoin="round"></path>
  </symbol>
  <symbol fill="none" xmlns="http://www.w3.org/2000/svg" viewBox="0 0 26 26" id="ic_popular">
    <path d="M12.2083 4.77874C12.4591 4.21607 12.5845 3.93474 12.7591 3.84811C12.9108 3.77284 13.0889 3.77284 13.2406 3.84811C13.4152 3.93474 13.5407 4.21607 13.7915 4.77874L15.7891 9.26041C15.8633 9.42674 15.9004 9.50991 15.9578 9.5736C16.0085 9.62996 16.0706 9.67503 16.1398 9.70589C16.2181 9.74077 16.3087 9.75033 16.4898 9.76944L21.3695 10.2845C21.9821 10.3491 22.2884 10.3814 22.4248 10.5207C22.5432 10.6417 22.5982 10.8112 22.5735 10.9787C22.5451 11.1715 22.3163 11.3777 21.8587 11.7901L18.2136 15.075C18.0784 15.1969 18.0107 15.2579 17.9679 15.3321C17.93 15.3978 17.9063 15.4707 17.8984 15.5461C17.8894 15.6314 17.9082 15.7205 17.946 15.8987L18.9642 20.6986C19.092 21.3012 19.1559 21.6025 19.0656 21.7752C18.987 21.9254 18.8429 22.03 18.676 22.0583C18.4838 22.0908 18.217 21.9369 17.6833 21.6292L13.4329 19.1776C13.2751 19.0866 13.1963 19.0412 13.1124 19.0233C13.0382 19.0076 12.9615 19.0076 12.8873 19.0233C12.8035 19.0412 12.7246 19.0866 12.5669 19.1776L8.31642 21.6292C7.78279 21.9369 7.51598 22.0908 7.32378 22.0583C7.15683 22.03 7.0127 21.9254 6.93423 21.7752C6.84389 21.6025 6.90779 21.3012 7.03562 20.6986L8.05369 15.8987C8.09148 15.7205 8.11037 15.6314 8.1014 15.5461C8.09346 15.4707 8.06977 15.3978 8.03185 15.3321C7.989 15.2579 7.92136 15.1969 7.78609 15.075L4.14108 11.7901C3.68347 11.3777 3.45466 11.1715 3.42621 10.9787C3.40151 10.8112 3.45655 10.6417 3.57501 10.5207C3.71138 10.3814 4.01769 10.3491 4.63031 10.2845L9.50996 9.76944C9.69107 9.75033 9.78162 9.74077 9.85992 9.70589C9.9292 9.67503 9.99123 9.62996 10.042 9.5736C10.0994 9.50991 10.1364 9.42674 10.2106 9.26041L12.2083 4.77874Z" stroke="currentColor" stroke-width="1.5" stroke-linecap="round" stroke-linejoin="round"></path>
  </symbol>
  <symbol fill="none" xmlns="http://www.w3.org/2000/svg" viewBox="0 0 42 34" id="ic_quote">
    <path d="M12.0501 18.4014C13.1421 19.0514 14 19.9857 14.624 21.2043C15.3259 22.3417 15.6769 23.6416 15.6769 25.1039C15.6769 27.6225 14.8579 29.7348 13.2201 31.4409C11.6602 33.147 9.7493 34 7.48746 34C5.38162 34 3.58774 33.2688 2.10585 31.8064C0.70195 30.3441 0 28.4755 0 26.2007C0 24.9821 0.194986 23.8447 0.584958 22.7885C0.97493 21.6511 1.67688 20.1482 2.69081 18.2796L12.5181 0H19.8886L12.0501 18.4014ZM34.1616 18.4014C35.2535 19.0514 36.1114 19.9857 36.7354 21.2043C37.4373 22.3417 37.7883 23.6416 37.7883 25.1039C37.7883 27.6225 36.9694 29.7348 35.3315 31.4409C33.7716 33.147 31.8607 34 29.5989 34C27.493 34 25.6992 33.2688 24.2173 31.8064C22.8134 30.3441 22.1114 28.4755 22.1114 26.2007C22.1114 24.9821 22.3064 23.8447 22.6964 22.7885C23.0864 21.6511 23.7883 20.1482 24.8022 18.2796L34.6295 0H42L34.1616 18.4014Z" fill="currentColor"></path>
  </symbol>
  <symbol fill="none" xmlns="http://www.w3.org/2000/svg" viewBox="0 0 14 14" id="ic_star">
    <path d="M6.57366 2.57313C6.7087 2.27016 6.77625 2.11867 6.87029 2.07202C6.95195 2.03149 7.04785 2.03149 7.12952 2.07202C7.22355 2.11867 7.2911 2.27016 7.42615 2.57313L8.50181 4.98634C8.54177 5.0759 8.56172 5.12069 8.59264 5.15498C8.61994 5.18533 8.65336 5.2096 8.69064 5.22621C8.73281 5.24499 8.78158 5.25014 8.87911 5.26043L11.5066 5.53775C11.8365 5.57257 12.0014 5.58997 12.0748 5.66498C12.1386 5.73014 12.1682 5.82137 12.1549 5.91158C12.1397 6.01541 12.0165 6.12642 11.7701 6.34849L9.80731 8.11727C9.73451 8.1829 9.69805 8.21574 9.67501 8.2557C9.6546 8.29111 9.64182 8.33037 9.63756 8.37097C9.63272 8.41688 9.64287 8.46483 9.66323 8.56078L10.2114 11.1454C10.2803 11.4699 10.3147 11.6321 10.266 11.7251C10.2238 11.8059 10.1462 11.8623 10.0563 11.8775C9.9528 11.895 9.80912 11.8122 9.52177 11.6464L7.23306 10.3264C7.14813 10.2774 7.10566 10.2529 7.06051 10.2433C7.02055 10.2348 6.97925 10.2348 6.9393 10.2433C6.89415 10.2529 6.85168 10.2774 6.76675 10.3264L4.47805 11.6464C4.19071 11.8122 4.04704 11.895 3.94355 11.8775C3.85365 11.8623 3.77605 11.8059 3.73379 11.7251C3.68515 11.6321 3.71956 11.4699 3.78839 11.1454L4.33658 8.56078C4.35693 8.46483 4.3671 8.41688 4.36227 8.37097C4.35799 8.33037 4.34524 8.29111 4.32482 8.2557C4.30175 8.21574 4.26532 8.1829 4.19248 8.11727L2.22979 6.34849C1.98338 6.12642 1.86018 6.01541 1.84486 5.91158C1.83156 5.82137 1.8612 5.73014 1.92498 5.66498C1.99841 5.58997 2.16335 5.57257 2.49322 5.53775L5.12072 5.26043C5.21825 5.25014 5.267 5.24499 5.30916 5.22621C5.34647 5.2096 5.37987 5.18533 5.40721 5.15498C5.43809 5.12069 5.45805 5.0759 5.49798 4.98634L6.57366 2.57313Z" stroke="currentColor" stroke-width="1.5" stroke-linecap="round" stroke-linejoin="round"></path>
  </symbol>
  <symbol fill="none" xmlns="http://www.w3.org/2000/svg" viewBox="0 0 16 16" id="ic_star_fill">
    <path d="M15.9734 6.06925C15.9139 5.8915 15.7599 5.762 15.5747 5.7335L10.6562 4.982L8.4524 0.2875C8.3699 0.112 8.1934 0 7.99965 0C7.8059 0 7.62965 0.112 7.5469 0.2875L5.34315 4.982L0.424654 5.73375C0.239404 5.762 0.085654 5.89175 0.025904 6.0695C-0.033596 6.247 0.011154 6.443 0.142154 6.57725L3.71565 10.2415L2.87115 15.4175C2.84015 15.6065 2.9199 15.7967 3.07665 15.9067C3.16265 15.9675 3.2634 15.9982 3.3644 15.9982C3.4474 15.9982 3.5309 15.9772 3.6064 15.9357L7.9994 13.506L12.3924 15.9357C12.4679 15.9772 12.5514 15.9982 12.6344 15.9982C12.7354 15.9982 12.8364 15.9675 12.9222 15.9067C13.0789 15.7967 13.1587 15.6065 13.1277 15.4175L12.2832 10.2415L15.8567 6.57725C15.9879 6.44275 16.0329 6.24675 15.9734 6.06925Z" fill="currentColor"></path>
  </symbol>
  <symbol fill="none" xmlns="http://www.w3.org/2000/svg" viewBox="0 0 22 22" id="ic_tg">
    <path d="M3.06428 9.92897C8.70941 7.44553 16.0147 4.4177 17.023 3.99862C19.6682 2.90176 20.4798 3.11197 20.0751 5.54106C19.7845 7.28697 18.9459 13.0673 18.2776 16.6651C17.8809 18.7987 16.9911 19.0515 15.592 18.1285C14.9191 17.6843 11.523 15.4384 10.7859 14.9111C10.1131 14.4305 9.18507 13.8524 10.3489 12.7138C10.763 12.3082 13.4778 9.71607 15.5929 7.69841C15.87 7.4334 15.5219 6.99816 15.2021 7.21061C12.3512 9.10116 8.39858 11.7252 7.89552 12.067C7.13553 12.5831 6.40563 12.8198 5.09541 12.4434C4.10545 12.1591 3.13839 11.82 2.76199 11.6906C1.31253 11.1929 1.65659 10.5484 3.06428 9.92897Z" fill="currentColor"></path>
  </symbol>
  <symbol fill="none" xmlns="http://www.w3.org/2000/svg" viewBox="0 0 22 22" id="ic_user">
    <path d="M4.58301 19.25C4.58301 15.7062 7.45585 12.8333 10.9997 12.8333C14.5435 12.8333 17.4163 15.7062 17.4163 19.25M14.6663 6.41667C14.6663 8.44171 13.0247 10.0833 10.9997 10.0833C8.97463 10.0833 7.33301 8.44171 7.33301 6.41667C7.33301 4.39162 8.97463 2.75 10.9997 2.75C13.0247 2.75 14.6663 4.39162 14.6663 6.41667Z" stroke="currentColor" stroke-width="2" stroke-linecap="round" stroke-linejoin="round"></path>
  </symbol>
  <symbol fill="none" xmlns="http://www.w3.org/2000/svg" viewBox="0 0 18 20" id="ic_video_play">
    <path d="M16.5 8.06531C17.8333 8.83511 17.8333 10.7596 16.5 11.5294L3 19.3236C1.66667 20.0934 9.31106e-07 19.1312 9.98404e-07 17.5916L1.6798e-06 2.00313C1.7471e-06 0.463533 1.66667 -0.498717 3 0.271083L16.5 8.06531Z" fill="currentColor"></path>
  </symbol>
  <symbol fill="none" xmlns="http://www.w3.org/2000/svg" viewBox="0 0 22 22" id="ic_vk">
    <path d="M21.5015 5.302C21.254 6.08025 20.9203 6.75767 20.5023 7.37275L20.5198 7.34525C20.1091 8.02969 19.6187 8.82047 19.0485 9.71758C18.5596 10.4259 18.3008 10.7925 18.2721 10.8176C18.1456 10.9762 18.0576 11.1705 18.0273 11.3841L18.0264 11.3905C18.0512 11.5848 18.141 11.7544 18.2721 11.8809L18.6388 12.2897C20.6004 14.3058 21.7038 15.6955 21.9488 16.4587C21.9809 16.5431 21.9993 16.6402 21.9993 16.742C21.9993 16.9198 21.9424 17.0839 21.8462 17.2187L21.848 17.2159C21.6867 17.3818 21.4612 17.4845 21.2118 17.4845C21.1843 17.4845 21.1559 17.4836 21.1293 17.4808H21.133H18.7213C18.7203 17.4808 18.7185 17.4808 18.7167 17.4808C18.4078 17.4808 18.1236 17.3727 17.9008 17.193L17.9036 17.1948C17.5791 16.9281 17.2903 16.6393 17.0318 16.3258L17.0236 16.3148C16.6013 15.8376 16.2267 15.4357 15.8998 15.1094C14.8108 14.0742 14.0072 13.5566 13.4889 13.5566C13.4697 13.5547 13.4477 13.5538 13.4248 13.5538C13.2735 13.5538 13.1323 13.6006 13.0159 13.6803L13.0187 13.6785C12.9233 13.7977 12.8656 13.9517 12.8656 14.1176C12.8656 14.1506 12.8674 14.1817 12.872 14.2138V14.2102C12.8473 14.498 12.8326 14.8326 12.8326 15.1708C12.8326 15.2799 12.8344 15.3881 12.8372 15.4963V15.4807V16.5431C12.8463 16.5862 12.8518 16.6357 12.8518 16.6861C12.8518 16.9079 12.751 17.1059 12.5933 17.237L12.5924 17.2379C12.2377 17.4002 11.8233 17.4955 11.3861 17.4955C11.2926 17.4955 11.2009 17.4909 11.1102 17.4827L11.1221 17.4836C9.67926 17.4561 8.34093 17.0335 7.20335 16.3212L7.23543 16.3396C5.85035 15.4981 4.70268 14.4027 3.82818 13.1083L3.80343 13.0698C2.97293 11.968 2.19835 10.7232 1.53835 9.4105L1.47418 9.26933C1.08826 8.53417 0.688596 7.63033 0.34393 6.70083L0.28893 6.53125C0.14868 6.11325 0.0469297 5.62742 0.00476302 5.12417L0.00292969 5.10125C0.00292969 4.63803 0.275485 4.40642 0.820596 4.40642H3.23143C3.25343 4.40458 3.2791 4.40367 3.30568 4.40367C3.53301 4.40367 3.74293 4.48158 3.90885 4.61267L3.90701 4.61083C4.09035 4.81158 4.22601 5.05817 4.29293 5.33317L4.29568 5.34417C4.73935 6.59725 5.2096 7.64958 5.75043 8.65792L5.68901 8.53233C6.13085 9.4215 6.61943 10.1869 7.17676 10.8937L7.15568 10.8652C7.64457 11.4654 8.0259 11.7654 8.29968 11.7654C8.30793 11.7663 8.31801 11.7663 8.32901 11.7663C8.46468 11.7663 8.58293 11.693 8.6471 11.583L8.64801 11.5812C8.71585 11.407 8.75526 11.2044 8.75526 10.9936C8.75526 10.9487 8.75343 10.9037 8.74976 10.8597V10.8652V7.3095C8.73051 6.89058 8.62785 6.49917 8.45643 6.14808L8.46376 6.1655C8.3501 5.9235 8.21351 5.7145 8.05126 5.52842L8.05401 5.53208C7.90368 5.38175 7.80101 5.18467 7.76893 4.96467L7.76801 4.95917C7.76801 4.80333 7.83951 4.66308 7.95135 4.57142L7.95226 4.5705C8.06318 4.46875 8.21168 4.40733 8.37393 4.40733H8.38126H12.1818C12.2019 4.40458 12.2248 4.40367 12.2487 4.40367C12.4274 4.40367 12.5878 4.48433 12.6942 4.61083L12.6951 4.61175C12.7895 4.78408 12.8454 4.99033 12.8454 5.2085C12.8454 5.24333 12.8436 5.27725 12.8408 5.31117V5.30658V10.0485C12.839 10.0705 12.8381 10.0962 12.8381 10.1218C12.8381 10.2905 12.8848 10.4491 12.9655 10.5838L12.9637 10.5802C13.0306 10.6792 13.1424 10.7433 13.2689 10.7433C13.4303 10.7323 13.5778 10.6792 13.7016 10.5948L13.6988 10.5967C13.9482 10.4252 14.1627 10.23 14.3488 10.0091L14.3524 10.0045C14.9088 9.37567 15.4222 8.68083 15.8695 7.942L15.9053 7.87783C16.2206 7.35533 16.5616 6.71183 16.8705 6.05092L16.9273 5.91617L17.3362 5.0985C17.4783 4.68967 17.8596 4.40183 18.3078 4.40183C18.3253 4.40183 18.3427 4.40183 18.3601 4.40275H18.3573H20.7691C21.4205 4.40275 21.665 4.7025 21.5024 5.302H21.5015Z" fill="currentColor"></path>
  </symbol>
  <symbol fill="none" xmlns="http://www.w3.org/2000/svg" viewBox="0 0 22 22" id="ic_whatsapp">
    <path d="M18.479 6.27C15.839 2.2 10.449 0.99 6.26903 3.52C2.19902 6.05 0.879025 11.55 3.51903 15.62L3.73903 15.95L2.85903 19.25L6.15903 18.37L6.48903 18.59C7.91903 19.36 9.45903 19.8 10.999 19.8C12.649 19.8 14.299 19.36 15.729 18.48C19.799 15.84 21.009 10.45 18.479 6.27ZM16.169 14.74C15.729 15.4 15.179 15.84 14.409 15.95C13.969 15.95 13.419 16.17 11.219 15.29C9.34903 14.41 7.80903 12.98 6.70903 11.33C6.04903 10.56 5.71903 9.57 5.60903 8.58C5.60903 7.7 5.93903 6.93 6.48903 6.38C6.70903 6.16 6.92903 6.05 7.14903 6.05H7.69903C7.91903 6.05 8.13903 6.05 8.24903 6.49C8.46903 7.04 9.01903 8.36 9.01903 8.47C9.12902 8.58 9.12902 8.8 9.01903 8.91C9.12902 9.13 9.01903 9.35 8.90903 9.46C8.79903 9.57 8.68903 9.79 8.57903 9.9C8.35903 10.01 8.24903 10.23 8.35903 10.45C8.79903 11.11 9.34903 11.77 9.89903 12.32C10.559 12.87 11.219 13.31 11.989 13.64C12.209 13.75 12.429 13.75 12.539 13.53C12.649 13.31 13.199 12.76 13.419 12.54C13.639 12.32 13.749 12.32 13.969 12.43L15.729 13.31C15.949 13.42 16.169 13.53 16.279 13.64C16.389 13.97 16.389 14.41 16.169 14.74Z" fill="currentColor"></path>
  </symbol>
  <symbol fill="none" xmlns="http://www.w3.org/2000/svg" viewBox="0 0 20 20" id="ic_youtube">
    <path fill-rule="evenodd" clip-rule="evenodd" d="M7.98844 12.5861V6.9743C9.98064 7.91173 11.5236 8.81731 13.3485 9.79363C11.8433 10.6283 9.98064 11.5649 7.98844 12.5861ZM19.091 4.18328C18.7474 3.73052 18.1617 3.37809 17.5381 3.26141C15.7053 2.91336 4.27099 2.91237 2.43915 3.26141C1.93911 3.35515 1.49384 3.58173 1.11133 3.93377C-0.500363 5.42967 0.00466618 13.4517 0.393147 14.7512C0.556507 15.3136 0.76769 15.7193 1.03365 15.9855C1.37631 16.3376 1.84547 16.58 2.38436 16.6887C3.89345 17.0008 11.668 17.1753 17.5062 16.7355C18.0441 16.6418 18.5202 16.3916 18.8958 16.0246C20.3859 14.5347 20.2843 6.06213 19.091 4.18328Z" fill="currentColor"></path>
  </symbol>
</svg>